<svg width="60" height="34" viewBox="0 0 60 34" fill="none" xmlns="http://www.w3.org/2000/svg">
<path d="M54.765 12.426L31.336 4.059C31.2283 4.01988 31.1146 3.99991 31 4H30.508C29.885 4.00574 29.2649 4.08598 28.661 4.239L22.555 0.167999C22.3905 0.0587393 22.1975 0.000312416 22 0C20.1441 0.00211736 18.3649 0.740295 17.0526 2.05259C15.7403 3.36489 15.0021 5.14413 15 7C15 7.19567 15.0574 7.38704 15.1652 7.55039C15.2729 7.71374 15.4262 7.84191 15.606 7.919L21.753 10.553C20.6458 11.6989 19.2216 12.488 17.663 12.8192C16.1043 13.1504 14.4823 13.0087 13.0048 12.4121C11.5273 11.8155 10.2616 10.7913 9.36989 9.47075C8.47821 8.15018 8.0012 6.59342 8 5C8 4.73478 7.89464 4.48043 7.70711 4.29289C7.51957 4.10536 7.26522 4 7 4H1C0.734784 4 0.48043 4.10536 0.292893 4.29289C0.105357 4.48043 0 4.73478 0 5V23C0.00211819 23.6522 0.216751 24.286 0.611386 24.8054C1.00602 25.3247 1.55915 25.7012 2.187 25.878L3.03 29.247C3.08493 29.4625 3.21013 29.6535 3.38581 29.7899C3.56148 29.9263 3.77761 30.0002 4 30H5V33C5 33.2652 5.10536 33.5196 5.29289 33.7071C5.48043 33.8946 5.73478 34 6 34H10C10.2652 34 10.5196 33.8946 10.7071 33.7071C10.8946 33.5196 11 33.2652 11 33V30H13V33C13 33.2652 13.1054 33.5196 13.2929 33.7071C13.4804 33.8946 13.7348 34 14 34H18C18.2652 34 18.5196 33.8946 18.7071 33.7071C18.8946 33.5196 19 33.2652 19 33V30H32V33C32 33.2652 32.1054 33.5196 32.2929 33.7071C32.4804 33.8946 32.7348 34 33 34H37C37.2652 34 37.5196 33.8946 37.7071 33.7071C37.8946 33.5196 38 33.2652 38 33V30H40V33C40 33.2652 40.1054 33.5196 40.2929 33.7071C40.4804 33.8946 40.7348 34 41 34H45C45.2652 34 45.5196 33.8946 45.7071 33.7071C45.8946 33.5196 46 33.2652 46 33V30H48V33C48 33.2652 48.1054 33.5196 48.2929 33.7071C48.4804 33.8946 48.7348 34 49 34H53C53.2652 34 53.5196 33.8946 53.7071 33.7071C53.8946 33.5196 54 33.2652 54 33V30H56C56.2231 29.9999 56.4397 29.9253 56.6155 29.7879C56.7912 29.6506 56.916 29.4584 56.97 29.242L57.811 25.88C58.4383 25.7077 58.9919 25.3347 59.3871 24.818C59.7824 24.3014 59.9977 23.6695 60 23.019V19.854C59.9974 18.2278 59.4934 16.6419 58.5565 15.3126C57.6197 13.9833 56.2957 12.9753 54.765 12.426ZM42.086 12.086L43.608 10.564L45.944 11.399L43.672 13.672C43.4617 13.8823 43.1764 14.0005 42.879 14.0005C42.5816 14.0005 42.2963 13.8823 42.086 13.672C41.8757 13.4617 41.7575 13.1764 41.7575 12.879C41.7575 12.5816 41.8757 12.2963 42.086 12.086V12.086ZM34.943 7.47L37.281 8.305L34.671 10.914C34.4576 11.118 34.1737 11.2318 33.8785 11.2318C33.5833 11.2318 33.2994 11.118 33.086 10.914C32.9817 10.81 32.8989 10.6864 32.8425 10.5503C32.786 10.4142 32.7569 10.2683 32.7569 10.121C32.7569 9.97367 32.786 9.82779 32.8425 9.69172C32.8989 9.55564 32.9817 9.43204 33.086 9.328L34.943 7.47ZM30.827 6L32.859 6.726L31.671 7.914C31.3728 8.20202 31.135 8.54654 30.9713 8.92747C30.8077 9.30839 30.7216 9.7181 30.718 10.1327C30.7145 10.5472 30.7935 10.9584 30.9505 11.342C31.1075 11.7257 31.3394 12.0743 31.6326 12.3674C31.9258 12.6606 32.2744 12.8923 32.6581 13.0493C33.0418 13.2062 33.453 13.2851 33.8676 13.2815C34.2821 13.2778 34.6918 13.1916 35.0727 13.0279C35.4536 12.8642 35.798 12.6263 36.086 12.328L39.365 9.049L41.524 9.82L40.672 10.672C40.0867 11.2573 39.7578 12.0512 39.7578 12.879C39.7578 13.7068 40.0867 14.5007 40.672 15.086C41.2573 15.6713 42.0512 16.0002 42.879 16.0002C43.7068 16.0002 44.5007 15.6713 45.086 15.086L48.028 12.143L51.281 13.305L48.639 15.947C47.4847 17.1025 46.0183 17.896 44.4197 18.2303C42.821 18.5646 41.1596 18.4251 39.639 17.829L23.549 11.529C24.0675 10.9403 24.5152 10.2929 24.883 9.6C25.3993 8.54103 26.1974 7.6448 27.1897 7.00972C28.182 6.37465 29.3301 6.02529 30.508 6H30.827ZM21.71 2.009L26.419 5.148C25.0069 5.99095 23.8597 7.2133 23.108 8.676C23.067 8.754 23.014 8.823 22.971 8.9L17.041 6.358C17.192 5.20323 17.7408 4.13722 18.593 3.34345C19.4452 2.54967 20.5474 2.07779 21.71 2.009V2.009ZM2 6H6.05C6.19183 7.41105 6.63517 8.77517 7.35 10H2V6ZM55.219 28H53C52.7348 28 52.4804 28.1054 52.2929 28.2929C52.1054 28.4804 52 28.7348 52 29V32H50V29C50 28.7348 49.8946 28.4804 49.7071 28.2929C49.5196 28.1054 49.2652 28 49 28H45C44.7348 28 44.4804 28.1054 44.2929 28.2929C44.1054 28.4804 44 28.7348 44 29V32H42V29C42 28.7348 41.8946 28.4804 41.7071 28.2929C41.5196 28.1054 41.2652 28 41 28H37C36.7348 28 36.4804 28.1054 36.2929 28.2929C36.1054 28.4804 36 28.7348 36 29V32H34V29C34 28.7348 33.8946 28.4804 33.7071 28.2929C33.5196 28.1054 33.2652 28 33 28H18C17.7348 28 17.4804 28.1054 17.2929 28.2929C17.1054 28.4804 17 28.7348 17 29V32H15V29C15 28.7348 14.8946 28.4804 14.7071 28.2929C14.5196 28.1054 14.2652 28 14 28H10C9.73478 28 9.48043 28.1054 9.29289 28.2929C9.10536 28.4804 9 28.7348 9 29V32H7V29C7 28.7348 6.89464 28.4804 6.70711 28.2929C6.51957 28.1054 6.26522 28 6 28H4.781L4.281 26H55.719L55.219 28ZM58 23.019C57.9997 23.2791 57.8963 23.5285 57.7124 23.7124C57.5285 23.8963 57.2791 23.9997 57.019 24H3C2.73527 23.9984 2.48183 23.8926 2.29463 23.7054C2.10744 23.5182 2.00157 23.2647 2 23V12H8.879C10.5586 13.7225 12.806 14.7772 15.2042 14.9685C17.6025 15.1597 19.9886 14.4745 21.92 13.04L38.913 19.692C40.7954 20.4288 42.8518 20.6007 44.8304 20.1867C46.809 19.7727 48.624 18.7907 50.053 17.361L53.365 14.049L54.092 14.309C55.2348 14.7189 56.2232 15.4713 56.9226 16.4637C57.622 17.456 57.9982 18.64 58 19.854V23.019Z" fill="black"/>
</svg>
