<svg width="40" height="40" viewBox="0 0 40 40" fill="none" xmlns="http://www.w3.org/2000/svg">
<ellipse cx="20.0339" cy="13.5375" rx="12.6653" ry="13.5375" fill="white"/>
<path d="M32.6992 13.5375C32.6992 6.07292 27.0177 0 20.0339 0C13.0502 0 7.36865 6.07292 7.36865 13.5375C7.36865 21.002 13.0502 27.0749 20.0339 27.0749C24.7144 27.0749 28.9972 24.3251 31.2104 19.9007L31.2445 19.842L31.2404 19.8392C32.195 17.9077 32.6992 15.7298 32.6992 13.5375ZM20.5945 0.724575C20.5229 0.659756 20.4443 0.600414 20.3594 0.546246C20.669 0.555071 20.9789 0.576373 21.2865 0.610152C21.0223 0.6488 20.7797 0.690491 20.5945 0.724575ZM23.8977 6.08722L23.1476 10.9602C23.1424 10.9599 23.1369 10.9596 23.1323 10.9599L23.0997 10.9627C22.6517 11.0299 19.37 12.2079 18.3279 12.5847L14.3853 9.24723C14.7389 7.3906 15.2532 5.2817 15.5166 5.00416C15.8805 4.62072 18.8362 3.13901 20.2627 3.13901C20.4163 3.13901 20.5469 3.15666 20.6448 3.18922C21.0269 3.3779 22.5501 4.77745 23.8977 6.08722ZM17.164 18.4695C17.3812 17.3801 18.0666 13.969 18.2898 13.1699L18.3609 13.144C20.0189 12.5436 22.6373 11.6188 23.128 11.5065C23.2649 11.5682 23.6204 11.836 24.0863 12.2283C24.9065 12.9754 25.9887 14.0341 26.631 14.6908C26.7656 14.8521 26.8724 14.9936 26.9426 15.0995C27.334 16.1826 26.5842 18.4263 26.2241 19.5045L26.0213 20.1049C25.9485 20.1664 25.8368 20.2586 25.4775 20.4208C24.3075 20.9479 21.8506 21.6752 20.9238 21.7698C20.1708 21.3858 18.4822 19.744 17.666 18.9506C17.4569 18.7483 17.2749 18.5711 17.164 18.4695ZM28.454 6.09605L28.363 6.31667C27.6057 6.02179 26.6885 5.88455 25.4804 5.88455C25.1459 5.88455 24.8404 5.89459 24.5706 5.90341L24.4892 5.90737L24.4637 5.90189C24.1123 5.55771 21.4766 2.98625 20.8432 2.68954L20.8224 2.68102C20.7672 2.66154 20.7063 2.64602 20.6327 2.63294C20.6979 2.12808 20.7929 1.50454 20.8371 1.21939C21.3324 1.12505 22.237 0.975026 22.9862 0.975026C23.0483 0.975026 23.1095 0.975939 23.1577 0.976243C25.1814 1.55231 27.0457 2.69289 28.5496 4.27441C28.8338 4.96612 28.6044 5.64779 28.454 6.09605ZM14.9607 4.93813C14.5173 5.89489 14.0212 8.40458 13.8716 9.1958C13.4848 9.48338 11.7135 10.8522 10.3033 12.8016C10.1026 12.7018 9.1255 12.1881 8.53892 11.3863L8.52044 11.309C8.41502 10.8732 8.27061 10.2767 8.70874 8.82484C8.90369 8.29107 9.13532 7.764 9.39727 7.25792L13.2642 3.97466C13.7575 4.21203 14.5927 4.63411 14.9607 4.93813ZM10.1667 13.3232C10.9193 16.6826 11.3898 17.8721 11.8967 18.6643C11.4386 19.3779 11.0964 21.2856 11.0337 21.6545C10.813 21.5836 10.5447 21.4363 10.2354 21.2153C8.69575 18.9738 7.88187 16.3189 7.88187 13.5375C7.88187 13.2578 7.89111 12.9647 7.90989 12.6662C8.02368 12.3789 8.18079 12.1598 8.37719 12.0147C8.77315 12.4909 9.66211 13.1422 10.1667 13.3232ZM12.2432 19.1025C12.3977 19.1299 12.604 19.1576 12.8255 19.181C13.1186 19.2412 13.4689 19.2717 13.8669 19.2717C13.9654 19.2717 14.0648 19.2699 14.1621 19.2665C14.2796 19.2692 14.3989 19.2708 14.5191 19.2708C15.2269 19.2708 16.2135 19.2178 16.9217 18.9668C17.0219 19.062 17.1582 19.1944 17.3174 19.349C18.1711 20.1791 19.7506 21.715 20.6072 22.2059C20.4926 22.9244 20.122 24.1757 19.9106 24.8601C19.7807 25.1678 19.3697 25.3276 18.6211 25.3629L14.9722 25.2567C13.7188 24.8881 12.007 22.7336 11.4863 21.981C11.5697 21.3127 11.8669 19.7212 12.2432 19.1025ZM16.256 25.8665C16.7305 25.8884 17.3803 25.9179 18.0305 25.9179C19.0658 25.9179 19.7835 25.844 20.2225 25.6918C20.2462 25.7049 20.2919 25.7289 20.3811 25.774C21.0849 26.0421 21.7356 26.1723 22.3704 26.1723C22.6104 26.1723 22.8409 26.1538 23.061 26.1252C22.0747 26.3969 21.0598 26.5345 20.0337 26.5345C18.7219 26.5345 17.4294 26.309 16.1873 25.8635C16.2101 25.8644 16.2329 25.8653 16.256 25.8665ZM26.5368 24.5108C27.3449 23.7266 27.8001 22.8799 27.9694 22.565L27.9893 22.5282C28.0736 22.463 28.2036 22.3644 28.3639 22.243C28.7956 21.9156 29.4192 21.4427 29.9801 20.9959C29.0611 22.3927 27.8839 23.5936 26.5368 24.5108ZM26.5325 20.2388C26.5614 20.1347 26.6287 19.9226 26.7081 19.6849C27.0891 18.5453 27.794 16.4349 27.487 15.1342C28.5608 14.6239 30.0733 12.9361 30.445 12.424C31.6196 12.8598 31.9691 14.7894 31.9827 14.8582C31.9186 15.9388 31.4547 17.6859 31.0793 18.9552C30.9843 19.1758 30.8809 19.3992 30.7775 19.6095C30.6218 19.8079 29.8969 20.3584 29.1295 20.9415C28.6535 21.303 28.1617 21.6764 27.7689 21.9938C27.4605 21.5614 26.9181 20.8194 26.5262 20.3861C26.525 20.3855 26.5013 20.3508 26.5325 20.2388ZM32.186 13.5375C32.186 13.5959 32.1854 13.654 32.1846 13.7118C31.9313 13.0664 31.4963 12.3251 30.776 11.9815C30.7171 11.0972 30.2559 8.31542 28.8774 6.46183C28.8924 6.40979 28.9161 6.34011 28.9363 6.27985C28.949 6.24212 28.9626 6.20286 28.977 6.16178C29.0801 5.86568 29.2173 5.47189 29.2043 5.01938C31.1284 7.38634 32.186 10.4042 32.186 13.5375ZM14.1228 2.18559L13.2734 3.18101L10.3218 5.73543C11.3421 4.28689 12.6458 3.06932 14.1228 2.18559Z" fill="black"/>
<path d="M7.13847 14.276H4.60541L3.22374 16.245L1.15124 16.9835L1.6118 19.6909L0.460407 21.1678L3.6843 29.0441L6.21736 34.213L7.59902 36.9205L8.98069 38.8895L12.4349 38.1511L14.9679 36.9205L15.4285 36.4282L15.6588 34.213L16.5799 32.7361L16.3496 31.2593L14.9679 30.2748L13.8165 28.0596L17.501 21.1678L16.5799 19.6909L14.9679 19.1987L11.9743 22.8907V20.9216L9.21097 13.7837L7.13847 14.276Z" fill="white"/>
<path d="M17.0755 19.4727C16.6444 19.1119 16.1258 18.9209 15.5768 18.9209C14.8192 18.9209 14.1197 19.2837 13.6559 19.9167L12.8195 21.0578L12.4193 21.5993L10.0414 14.6721C9.75819 13.8461 9.01301 13.2908 8.18677 13.2908C7.95603 13.2908 7.72898 13.3341 7.51114 13.4193C7.04782 13.6009 6.68674 13.9504 6.46521 14.3802C5.92774 13.8126 5.05868 13.6073 4.32547 13.9322C3.84004 14.1468 3.46147 14.552 3.25928 15.0728C3.1598 15.3293 3.1096 15.598 3.1073 15.8668C2.70431 15.7699 2.2654 15.8112 1.87623 15.9953C0.882814 16.4659 0.432391 17.7133 0.872222 18.7757L1.15869 19.4663C1.11309 19.4835 1.06842 19.5027 1.02421 19.5239C0.151452 19.9428 -0.23956 21.0416 0.151452 21.9744C1.88913 26.114 3.15658 28.9947 5.2581 33.244L7.77549 38.6482C8.11032 39.3659 8.78181 39.8296 9.48646 39.8296C9.71996 39.8296 9.94978 39.7799 10.1685 39.6829L14.9979 37.5479C15.7721 37.2058 16.1894 36.3448 16.0881 35.3012L15.9886 34.2773C16.5707 34.0425 17.0142 33.4901 17.099 32.799C17.1598 32.3097 17.0373 31.8238 16.755 31.43C16.4805 31.0475 16.0862 30.8019 15.6441 30.7285L15.5888 30.1585C15.5423 29.6829 15.3056 29.2866 14.9219 29.0425C14.7879 28.9563 14.6442 28.9066 14.4987 28.8726L14.297 28.1608L17.5093 23.1008C18.2808 21.8853 18.0942 20.3258 17.0755 19.4727ZM7.04966 34.582L12.7734 32.0507C12.8467 32.0178 12.9563 32.0414 12.9987 32.1507L13.923 34.5392C13.9589 34.6317 13.9161 34.742 13.8295 34.7804L8.28441 37.2319L7.04966 34.582ZM16.024 32.0291C16.1567 32.2142 16.2143 32.4421 16.1862 32.6705C16.1581 32.8975 16.0434 33.089 15.8868 33.2248L15.7468 31.7849C15.8532 31.843 15.9485 31.9237 16.024 32.0291ZM14.6719 30.2604L15.1711 35.4031C15.1932 35.6286 15.2199 36.3842 14.6456 36.6382L9.81576 38.7737C9.36533 38.9721 8.83569 38.7161 8.59943 38.2096L8.47692 37.9467L14.0934 35.4632C14.5332 35.2682 14.7428 34.7277 14.5613 34.2576L13.637 31.8691C13.4597 31.4113 12.9402 31.1794 12.5086 31.369L6.62456 33.9706L6.30172 33.2775L14.0377 29.8567C14.1804 29.7937 14.3172 29.804 14.4503 29.8882C14.5834 29.9734 14.6562 30.095 14.6719 30.2604ZM16.7476 22.5479L13.4109 27.8024C13.3326 27.9255 13.3105 28.0796 13.351 28.2219L13.5711 28.9977L6.2354 32.2417L5.88123 32.3978C3.90406 28.3814 2.66747 25.5656 0.991045 21.5723C0.808204 21.1346 0.991505 20.6192 1.40048 20.4228C1.43686 20.4056 1.47509 20.3947 1.51332 20.3834L2.80287 23.7181C2.8761 23.9081 3.04743 24.0228 3.22843 24.0228C3.28738 24.0228 3.34679 24.0105 3.40436 23.9854C3.6397 23.8815 3.75116 23.5935 3.65398 23.342L2.27968 19.7873C2.27323 19.7435 2.26264 19.7006 2.2456 19.6593L2.01532 19.104L1.84399 18.661C1.83524 18.6383 1.81866 18.6231 1.80761 18.6029L1.71412 18.3774C1.47969 17.8113 1.7201 17.1462 2.24928 16.8952C2.65273 16.7042 3.15243 16.8248 3.44857 17.1664L5.48653 22.4751C5.5593 22.6651 5.73109 22.7803 5.91255 22.7803C5.97104 22.7803 6.03045 22.7685 6.08756 22.7434C6.3229 22.64 6.43528 22.3525 6.33856 22.101L4.29876 16.7908C4.29093 16.7706 4.27573 16.7569 4.26606 16.7386C4.26191 16.7244 4.26283 16.7096 4.25731 16.6953L4.10763 16.3089C4.00124 16.0327 4.0017 15.728 4.10947 15.4499C4.21724 15.1717 4.41896 14.9556 4.67641 14.8419C5.20375 14.6101 5.83471 14.8951 6.04933 15.4504L6.23816 15.9382C6.23816 15.9382 6.23816 15.9382 6.23816 15.9387L8.27704 21.2488C8.34981 21.4388 8.52159 21.554 8.70305 21.554C8.76154 21.554 8.82096 21.5422 8.87807 21.5171C9.11341 21.4137 9.22579 21.1263 9.12907 20.8747L7.43008 16.4492C7.42916 16.4457 7.43008 16.4423 7.4287 16.4388L7.20394 15.7846C7.00452 15.2032 7.285 14.5564 7.828 14.3432C8.35994 14.1345 8.98399 14.4486 9.17697 15.0103L11.7492 22.5051L10.4338 24.2842C10.2759 24.4973 10.3095 24.807 10.5094 24.9753C10.5941 25.0472 10.6945 25.0817 10.7944 25.0817C10.9308 25.0817 11.0652 25.0172 11.156 24.8946L12.5911 22.9536C12.6017 22.9418 12.615 22.9329 12.6247 22.9196L14.3808 20.5232C14.6686 20.1304 15.1043 19.9049 15.5768 19.9049C15.9181 19.9049 16.2396 20.0231 16.5076 20.2471C17.14 20.7772 17.2431 21.7662 16.7476 22.5479Z" fill="black"/>
<path d="M32.9294 14.5216H35.4625L36.8441 16.4907L38.9166 17.2291L38.4561 19.9366L39.6075 21.4134L36.3836 29.2897L33.8505 34.4586L32.4688 37.1661L31.0872 39.1351L27.633 38.3967L25.1 37.1661L24.6394 36.6738L24.4091 34.4586L23.488 32.9818L23.7183 31.5049L25.1 30.5204L26.2513 28.3052L22.5669 21.4134L23.488 19.9366L25.1 19.4443L28.0936 23.1363V21.1672L30.8569 14.0293L32.9294 14.5216Z" fill="white"/>
<path d="M38.975 19.6948C38.9307 19.6732 38.8861 19.654 38.8405 19.6372L39.1269 18.9461C39.5668 17.8837 39.1168 16.6368 38.1229 16.1657C37.7338 15.9816 37.2948 15.9403 36.8919 16.0372C36.8896 15.7685 36.8394 15.4997 36.7399 15.2432C36.5377 14.7219 36.1587 14.3167 35.6737 14.1026C34.9405 13.7777 34.0714 13.983 33.5339 14.5506C33.3124 14.1213 32.9509 13.7718 32.4876 13.5897C32.2702 13.5045 32.0431 13.4612 31.8124 13.4612C30.9862 13.4612 30.241 14.0165 29.9577 14.843L27.5799 21.7697L27.1797 21.2287C27.1797 21.2287 27.1797 21.2282 27.1792 21.2282L26.3433 20.0876C25.8795 19.4546 25.1799 19.0913 24.4223 19.0913C23.8733 19.0913 23.3547 19.2823 22.9241 19.6431C21.9049 20.4962 21.7184 22.0562 22.4898 23.2712L25.7031 28.3317L25.5014 29.0435C25.3559 29.077 25.2122 29.1272 25.0781 29.2129C24.6945 29.4571 24.4573 29.8538 24.4113 30.3294L24.356 30.8989C23.9139 30.9718 23.5196 31.2174 23.2451 31.6004C22.9628 31.9942 22.8403 32.4806 22.9011 32.9699C22.9863 33.6606 23.4294 34.2129 24.0115 34.4477L23.912 35.4716C23.8107 36.5157 24.2284 37.3762 25.0021 37.7184L29.8311 39.8538C30.0508 39.9508 30.2806 40 30.5136 40C31.2183 40 31.8898 39.5363 32.2246 38.8186L34.742 33.4144C36.8435 29.1656 38.1105 26.2849 39.8486 22.1449C40.2387 21.2125 39.8477 20.1128 38.975 19.6948ZM23.8125 32.8404C23.784 32.6115 23.8415 32.3836 23.9746 32.1985C24.0502 32.0937 24.1455 32.0129 24.2524 31.9548L24.1124 33.3942C23.9558 33.2579 23.8411 33.0669 23.8125 32.8404ZM30.182 38.9436L25.3526 36.8076C24.7783 36.5536 24.8055 35.798 24.8271 35.5725L25.3264 30.4303C25.342 30.2644 25.4148 30.1428 25.5479 30.0576C25.6234 30.0094 25.7017 29.9858 25.7796 29.9858C25.8385 29.9858 25.8993 29.999 25.9606 30.0261L26.9185 30.4495L33.6965 33.4469L33.3737 34.1405L27.4896 31.5389C27.0581 31.3484 26.5386 31.5812 26.3612 32.039L25.4369 34.427C25.255 34.8976 25.465 35.4386 25.9048 35.6326L31.5213 38.1166L31.3988 38.379C31.1625 38.8855 30.6334 39.1425 30.182 38.9436ZM31.7143 37.4028L26.1692 34.9508C26.0826 34.9129 26.0398 34.8021 26.0757 34.7096L26.9996 32.3211C27.0295 32.2423 27.1023 32.2074 27.1603 32.2074C27.1829 32.2074 27.2045 32.2123 27.2253 32.2212L32.949 34.7524L31.7143 37.4028ZM39.0072 21.7417C37.3303 25.735 36.0942 28.5513 34.117 32.5677L26.4276 29.1671L26.6477 28.3918C26.6882 28.2495 26.6661 28.0949 26.5878 27.9724L23.2511 22.7174C22.7556 21.9361 22.8583 20.9472 23.4915 20.417C23.7586 20.1935 24.0801 20.0748 24.4218 20.0748C24.8939 20.0748 25.3301 20.3003 25.6179 20.6936L27.374 23.09C27.3837 23.1033 27.397 23.1127 27.4081 23.1245L28.8427 25.0645C28.9335 25.1876 29.0679 25.2516 29.2043 25.2516C29.3042 25.2516 29.4051 25.2171 29.4893 25.1457C29.6892 24.9769 29.7228 24.6673 29.5649 24.4541L28.2495 22.675L30.8217 15.1807C31.0142 14.618 31.6397 14.3049 32.1702 14.5132C32.7142 14.7268 32.9942 15.3732 32.7948 15.9545L32.57 16.6093C32.5686 16.6127 32.5695 16.6162 32.5686 16.6196L30.8696 21.0446C30.7729 21.2967 30.8853 21.5842 31.1206 21.6875C31.1777 21.7126 31.2372 21.7245 31.2956 21.7245C31.4771 21.7245 31.6489 21.6093 31.7217 21.4188L33.7605 16.1086V16.1081L33.9494 15.6203C34.1649 15.0655 34.7963 14.7805 35.3223 15.0118C35.5802 15.126 35.7815 15.3422 35.8892 15.6203C35.997 15.8984 35.9975 16.2036 35.8911 16.4788L35.7414 16.8657C35.7359 16.8795 35.7368 16.8948 35.7322 16.9091C35.7225 16.9273 35.7073 16.9406 35.6999 16.9607L33.6611 22.2709C33.5643 22.5229 33.6767 22.8104 33.9121 22.9138C33.9692 22.9389 34.0286 22.9507 34.0871 22.9507C34.2685 22.9507 34.4403 22.8355 34.5131 22.645L36.5511 17.3368C36.8476 16.9952 37.3474 16.8751 37.7503 17.0651C38.2795 17.3162 38.5199 17.9807 38.2855 18.5473L38.1911 18.7738C38.18 18.794 38.1635 18.8087 38.1552 18.8309L37.9843 19.2724L37.7536 19.8292C37.7365 19.8706 37.7255 19.9139 37.7195 19.9572L36.3452 23.5124C36.248 23.7634 36.3595 24.0514 36.5948 24.1553C36.6524 24.1809 36.7118 24.1927 36.7707 24.1927C36.9517 24.1927 37.1231 24.0785 37.1963 23.8885L38.4858 20.5538C38.5241 20.5647 38.5623 20.5755 38.5987 20.5932C39.0067 20.7891 39.1905 21.3045 39.0072 21.7417Z" fill="black"/>
</svg>
