<svg width="464" height="464" viewBox="0 0 464 464" fill="none" xmlns="http://www.w3.org/2000/svg">
<path fill-rule="evenodd" clip-rule="evenodd" d="M224.962 77.2268C224.536 77.2663 222.752 77.3939 220.998 77.511C199.897 78.9159 178.732 84.9484 159.803 94.9518C152.011 99.0701 141.319 106.016 136.394 110.161C136.066 110.437 135.46 110.923 135.047 111.242C134.004 112.046 130.723 114.812 128.87 116.451C128.022 117.201 125.318 119.816 122.862 122.263C119.046 126.064 117.338 127.873 114.284 131.35C113.105 132.691 109.453 137.289 107.771 139.549C106.774 140.888 105.89 142.071 105.806 142.177C104.35 144.008 98.5342 153.253 96.5644 156.871C96.0423 157.829 95.4217 158.96 95.1827 159.385C90.0168 168.614 84.2164 183.866 81.5053 195.348C81.2292 196.517 80.9206 197.823 80.8185 198.248C80.2025 200.824 79.3313 205.618 78.6932 209.945C76.2153 226.752 76.9194 248.577 80.4357 263.986C85.8393 287.663 94.6572 307.09 107.98 324.675C109.259 326.365 110.48 327.981 110.693 328.267C115.545 334.804 129.187 348.446 135.738 353.313C136.025 353.526 137.641 354.746 139.331 356.026C147.619 362.305 158.536 368.814 167.634 372.899C180.477 378.666 193.225 382.579 206.11 384.71C215.716 386.298 221.568 386.762 232.018 386.762C240.922 386.762 247.943 386.302 254.156 385.312C259.286 384.494 260.734 384.239 263.616 383.646C273.968 381.514 285.019 377.955 294.759 373.616C297.455 372.417 305.15 368.642 305.588 368.307C305.693 368.225 306.476 367.783 307.328 367.325C313.055 364.241 321.057 358.912 327.822 353.679C336.103 347.274 347.306 336.071 353.71 327.791C357.051 323.473 363.118 314.821 363.104 314.394C363.099 314.249 362.785 313.887 359.947 310.763C358.974 309.691 357.838 308.43 357.424 307.959C356.186 306.554 352.332 302.266 350.057 299.763C348.888 298.476 347.642 297.09 347.291 296.684C346.938 296.277 346.628 295.975 346.601 296.013C346.575 296.051 345.996 297.039 345.316 298.208C344.03 300.423 340.753 305.59 340.047 306.519C339.965 306.627 339.143 307.761 338.221 309.037C336.669 311.184 333.431 315.352 332.438 316.48C332.205 316.747 331.255 317.834 330.328 318.897C277.676 379.279 181.657 377.504 130.554 315.205C92.2744 268.538 90.8822 200.102 127.253 152.958C127.809 152.239 128.529 151.305 128.855 150.883C134.51 143.551 143.883 134.177 150.909 128.825C151.441 128.42 152.572 127.557 153.423 126.906C165.071 117.993 179.113 110.933 194.753 106.126C214.832 99.9552 239.02 99.1455 260.605 103.923C295.897 111.734 327.525 134.823 345.315 165.766C345.988 166.935 346.563 167.924 346.593 167.961C346.625 167.999 346.938 167.696 347.291 167.288C347.642 166.881 348.888 165.494 350.057 164.207C351.227 162.919 353.533 160.361 355.181 158.521C356.829 156.682 359.287 153.954 360.643 152.458C361.999 150.963 363.108 149.671 363.108 149.585C363.108 149.055 354.751 137.276 352.764 135.005C352.658 134.883 352.092 134.193 351.507 133.47C348.19 129.37 339.646 120.38 336.447 117.622C335.831 117.09 334.546 115.959 333.591 115.108C332.074 113.756 330.897 112.775 327.484 110.019C301.986 89.4251 267.753 77.4936 233.372 77.2175C229.172 77.1839 225.386 77.1885 224.962 77.2268ZM226.992 107.859C225.024 107.934 222.697 108.063 221.819 108.145L220.224 108.294V131.375V154.455H232.018H243.813V131.35C243.813 108.589 243.807 108.244 243.436 108.244C243.23 108.244 241.989 108.162 240.681 108.062C237.182 107.793 231.067 107.702 226.992 107.859ZM211.427 109.431C193.949 112.618 179.732 118.086 165.547 127.077C162.868 128.775 162.958 128.456 164.63 130.292C165.165 130.879 166.257 132.095 167.054 132.996C167.852 133.896 169.026 135.201 169.664 135.896C170.302 136.59 171.204 137.592 171.67 138.121C172.463 139.025 175.933 142.892 177.541 144.666L178.263 145.464L178.266 168.026L178.268 190.587L180.443 192.984C181.639 194.302 184.053 196.978 185.809 198.93C189.895 203.479 193.68 207.681 196.249 210.521C197.365 211.755 199.106 213.691 200.116 214.822L201.952 216.879L202.002 200.071L202.051 183.263H226.876H251.701L253.993 180.784C255.253 179.42 257.893 176.535 259.861 174.371C263.11 170.799 264.758 168.996 270.253 163.007C271.236 161.935 272.041 161.007 272.041 160.946C272.041 160.885 256.293 160.835 237.045 160.835H202.05V147.791V134.749L203.335 134.352C204.749 133.914 210.202 132.566 211.958 132.218L213.071 131.999V120.605C213.071 109.874 213.051 109.213 212.732 109.232C212.546 109.245 211.958 109.333 211.427 109.431ZM250.58 120.594C250.58 131.911 250.583 132.026 250.968 132.026C251.603 132.026 256.463 133.15 259.474 133.993C268.009 136.383 278.032 140.721 284.512 144.829L285.672 145.564L286.349 144.82C286.721 144.411 288.374 142.57 290.023 140.73C291.671 138.889 294.02 136.278 295.243 134.927C296.466 133.576 298.168 131.696 299.025 130.75C299.881 129.803 300.641 128.932 300.713 128.812C301.074 128.209 289.729 121.728 283.062 118.728C273.333 114.35 260.024 110.358 251.595 109.29L250.58 109.162V120.594ZM327.146 154.681C326.561 155.34 325.56 156.453 324.922 157.156C324.284 157.859 323.153 159.123 322.409 159.965C321.664 160.808 320.533 162.069 319.895 162.767C319.257 163.465 318.126 164.73 317.381 165.576C316.638 166.421 315.506 167.683 314.868 168.381C314.23 169.078 313.099 170.339 312.354 171.182C311.61 172.027 310.479 173.287 309.841 173.983C309.203 174.679 308.071 175.939 307.328 176.783C306.583 177.627 305.452 178.89 304.814 179.588C304.176 180.287 303.045 181.551 302.3 182.397C301.556 183.243 300.425 184.505 299.787 185.202C299.149 185.899 298.018 187.157 297.273 187.998C296.529 188.838 295.052 190.488 293.991 191.664C292.931 192.839 291.8 194.101 291.479 194.468C291.156 194.834 290.415 195.664 289.829 196.31C289.244 196.956 288.113 198.22 287.316 199.118C286.518 200.016 285.387 201.278 284.802 201.922C284.218 202.567 283.087 203.828 282.289 204.725C281.492 205.622 280.36 206.884 279.776 207.531C279.19 208.179 278.06 209.438 277.262 210.332C276.465 211.226 275.334 212.486 274.748 213.132C274.163 213.778 273.032 215.042 272.235 215.94C271.437 216.838 270.306 218.1 269.721 218.744C269.137 219.389 268.006 220.65 267.207 221.546C266.41 222.443 265.279 223.705 264.695 224.353C264.109 225 262.979 226.263 262.181 227.16C261.384 228.057 260.253 229.319 259.667 229.965C259.082 230.61 257.987 231.829 257.233 232.675C254.835 235.362 252.443 238.02 251.598 238.933L250.779 239.818L250.776 257.488L250.774 275.16L251.929 273.898C252.566 273.204 253.37 272.295 253.718 271.88C254.066 271.465 255.438 269.917 256.767 268.442C260.894 263.863 263.138 261.36 266.145 257.988C267.74 256.198 269.958 253.718 271.075 252.478C272.191 251.236 274.41 248.756 276.005 246.967C277.601 245.177 279.819 242.697 280.936 241.457C282.052 240.216 284.271 237.735 285.866 235.946C287.461 234.156 289.679 231.676 290.797 230.436C291.913 229.195 294.132 226.716 295.727 224.927C300.561 219.505 303.018 216.813 303.196 216.745C303.291 216.709 303.364 242.052 303.364 275.088C303.364 307.212 303.429 333.494 303.509 333.492C303.66 333.489 307.221 330.837 309.345 329.144C315.017 324.628 320.843 319.044 325.841 313.331L326.952 312.06V251.112V190.165L327.871 189.164C328.375 188.614 330.137 186.657 331.786 184.814C333.434 182.973 335.784 180.363 337.006 179.014C338.229 177.665 339.787 175.928 340.468 175.156L341.707 173.75L340.962 172.368C337.979 166.825 332.133 158.091 328.745 154.115L328.209 153.485L327.146 154.681ZM135.055 154.406C132.634 157.438 130.821 159.951 128.295 163.775C125.92 167.373 124.562 169.609 122.877 172.696L122.156 174.019L122.714 174.629C123.02 174.965 123.79 175.806 124.425 176.5C125.061 177.194 126.234 178.498 127.031 179.399C127.829 180.301 129.046 181.652 129.737 182.403C130.428 183.153 131.569 184.414 132.272 185.207C132.975 185.999 134.258 187.422 135.124 188.37L136.698 190.093V250.839V311.583L138.095 313.211C141.808 317.53 146.694 322.39 151.201 326.245C154.159 328.778 154.899 329.373 157.681 331.456L160.189 333.337L160.238 275.024C160.267 240.426 160.359 216.712 160.462 216.712C160.558 216.712 161.319 217.474 162.153 218.405C162.987 219.335 164.54 221.058 165.603 222.233C166.667 223.408 168.972 225.969 170.728 227.923C172.482 229.877 174.875 232.535 176.044 233.827C177.214 235.119 179.563 237.731 181.265 239.627C182.966 241.525 185.316 244.136 186.485 245.428C187.654 246.721 190.004 249.33 191.705 251.227C193.407 253.123 195.756 255.732 196.926 257.024C198.095 258.315 199.748 260.148 200.6 261.096C201.45 262.044 202.624 263.349 203.21 263.995C203.795 264.642 204.969 265.947 205.82 266.896C206.671 267.845 207.889 269.195 208.527 269.893C210.261 271.795 212.338 274.114 212.821 274.69L213.249 275.2L213.253 257.509L213.255 239.818L212.374 238.851C210.413 236.703 207.867 233.888 206.497 232.356C205.7 231.464 204.524 230.161 203.886 229.46C203.248 228.761 202.074 227.456 201.276 226.56C200.479 225.666 199.304 224.363 198.666 223.667C198.028 222.97 196.854 221.665 196.056 220.767C195.259 219.868 194.084 218.563 193.446 217.867C192.808 217.169 191.634 215.864 190.835 214.966C190.038 214.067 188.863 212.762 188.225 212.066C187.587 211.369 186.413 210.064 185.615 209.165C184.818 208.266 183.599 206.918 182.908 206.168C182.217 205.419 181.353 204.462 180.987 204.041C180.622 203.619 179.447 202.312 178.377 201.136C177.306 199.959 176.132 198.654 175.767 198.236C175.402 197.817 174.226 196.512 173.157 195.335C172.086 194.159 170.912 192.854 170.547 192.435C170.181 192.016 169.006 190.711 167.936 189.535C166.866 188.359 165.692 187.053 165.326 186.635C164.961 186.216 163.786 184.911 162.716 183.734C161.645 182.558 160.471 181.253 160.106 180.834C159.74 180.415 158.565 179.11 157.496 177.934C156.425 176.758 155.251 175.453 154.885 175.034C154.52 174.615 153.345 173.31 152.275 172.134C151.204 170.957 150.028 169.652 149.662 169.233C149.004 168.484 145.804 164.934 142.013 160.748C140.949 159.573 139.089 157.503 137.88 156.146C136.671 154.79 135.671 153.681 135.658 153.681C135.645 153.681 135.374 154.007 135.055 154.406ZM220.224 273.239V355.673L221.529 355.801C226.89 356.321 237.147 356.321 242.508 355.801L243.813 355.673V273.239V190.804H232.018H220.224V273.239ZM178.276 295.345C178.269 333.996 178.317 343.944 178.509 344.065C181.016 345.649 192.376 349.938 198.376 351.568C199.811 351.958 201.225 352.352 201.517 352.446L202.05 352.616L202.043 312.845L202.037 273.074L200.158 271.029C199.125 269.905 196.888 267.432 195.186 265.537C193.484 263.64 191.614 261.562 191.029 260.919C188.618 258.268 187.573 257.109 186.195 255.562C185.398 254.668 184.223 253.364 183.585 252.664C182.947 251.965 181.816 250.711 181.071 249.877C180.327 249.042 179.395 248.003 179.001 247.568L178.283 246.778L178.276 295.345Z" fill="white"/>
<path fill-rule="evenodd" clip-rule="evenodd" d="M220.224 37.7736C110.86 44.4916 28.7677 139.753 38.1957 249.002C46.0982 340.559 117.671 414.398 209.01 425.224C285.328 434.269 359.956 397.518 399.201 331.561C402.453 326.097 403.805 323.605 406.6 317.93C446.236 237.447 425.693 140.368 356.824 82.7003C326.325 57.1621 288.726 41.6146 249.13 38.1691C240.677 37.4336 228.474 37.2666 220.224 37.7736ZM244.858 62.3117C265.852 63.9996 283.585 68.5808 303.268 77.4033C305.123 78.2351 311.415 81.4079 313.418 82.5216C314.428 83.0842 315.603 83.7374 316.028 83.9729C317.494 84.7872 322.216 87.6167 322.989 88.1422C323.414 88.4322 325.107 89.5622 326.752 90.6538C330.932 93.4276 334.283 95.8823 338.343 99.1445C339.344 99.9496 340.431 100.822 340.759 101.085C346.603 105.758 358.248 117.403 362.92 123.246C363.184 123.575 364.056 124.662 364.861 125.663C368.128 129.728 370.583 133.079 373.351 137.253C374.441 138.898 375.503 140.485 375.709 140.781C376.134 141.393 379.93 147.677 379.93 147.771C379.93 147.804 380.419 148.691 381.018 149.742C405.545 192.776 408.906 249.3 389.716 296.031C385.919 305.277 379.879 317.016 375.862 322.958C375.575 323.382 374.919 324.384 374.406 325.181C362.438 343.788 343.82 362.407 325.212 374.375C324.415 374.888 323.414 375.543 322.989 375.831C321.722 376.687 316.206 379.937 313.611 381.354C280.237 399.594 241.965 406.022 203.79 399.798C199.499 399.099 194.607 398.069 189.965 396.886C189.115 396.669 188.071 396.408 187.645 396.304C181.103 394.721 169.172 390.428 161.862 387.029C160.975 386.616 160.204 386.279 160.152 386.279C159.953 386.279 151.978 382.213 149.956 381.082C148.795 380.431 147.822 379.898 147.793 379.898C147.703 379.898 141.377 376.071 140.812 375.674C140.517 375.468 139.361 374.697 138.245 373.962C128.401 367.482 120.512 361.02 111.749 352.257C102.416 342.924 96.6525 335.792 88.6166 323.634C87.7024 322.25 84.9136 317.633 84.0041 315.997C83.7686 315.572 83.1166 314.396 82.5563 313.387C81.5284 311.534 77.7268 304.029 77.7268 303.852C77.7268 303.8 77.3892 303.031 76.9763 302.144C74.7825 297.425 72.1758 290.797 70.4485 285.545C69.8348 283.675 67.945 277.365 67.699 276.361C67.5946 275.935 67.2443 274.535 66.9195 273.249C61.394 251.355 60.4137 227.35 64.1051 204.339C66.3835 190.142 71.0633 174.645 76.88 162.029C77.2396 161.251 77.5331 160.57 77.5331 160.517C77.5331 160.337 81.5261 152.442 82.5551 150.587C83.1166 149.577 83.7686 148.403 84.0041 147.977C84.9136 146.341 87.7024 141.724 88.6166 140.34C94.6514 131.209 98.3706 126.307 104.967 118.782C107.589 115.791 115.822 107.557 118.814 104.936C126.338 98.3394 131.241 94.6201 140.372 88.5854C141.756 87.6712 146.373 84.8824 148.008 83.9729C148.434 83.7374 149.608 83.0854 150.619 82.5239C152.474 81.4949 160.368 77.5019 160.548 77.5019C160.601 77.5019 161.282 77.2084 162.061 76.8488C166.779 74.6736 173.326 72.1063 178.461 70.4172C180.331 69.8024 186.64 67.9138 187.645 67.6678C188.071 67.5634 189.637 67.1736 191.125 66.8024C200.58 64.4393 211.017 62.828 220.708 62.234C222.622 62.1168 224.623 61.9904 225.154 61.9521C227.496 61.7862 241.491 62.0414 244.858 62.3117Z" fill="#030000"/>
<path fill-rule="evenodd" clip-rule="evenodd" d="M221.964 15.1704C119.363 20.6889 35.666 94.4566 18.1939 194.768C15.8993 207.937 15.18 216.867 15.1858 232.084C15.2032 277.553 29.0663 321.523 54.565 356.987C66.3666 373.401 79.9918 388.085 93.9685 399.454C153.377 447.774 231.503 461.872 302.897 437.156C307.217 435.66 308.014 435.368 311.724 433.924C370.717 410.957 417.697 361.343 437.946 300.626C456.755 244.225 451.488 181.989 423.486 129.735C391.751 70.5216 334.524 29.2434 268.658 18.059C261.736 16.8827 256.356 16.2272 247.776 15.5149C244.334 15.2284 225.543 14.9778 221.964 15.1704ZM242.196 37.6726C269.295 39.1912 293.968 45.6169 317.962 57.4034C368.146 82.0564 405.9 128.058 420.066 181.813C433.52 232.863 426.056 286.428 399.201 331.561C362.327 393.534 293.559 430.252 221.772 426.298C106.451 419.947 22.1951 316.127 39.7553 202.019C54.8713 103.793 143.155 32.1239 242.196 37.6726ZM226.463 61.9799C226.757 62.024 227.192 62.0228 227.43 61.9776C227.667 61.9312 227.427 61.8952 226.895 61.8964C226.363 61.8975 226.169 61.9358 226.463 61.9799ZM236.71 61.9799C237.004 62.024 237.439 62.0228 237.677 61.9776C237.914 61.9312 237.674 61.8952 237.143 61.8964C236.611 61.8975 236.417 61.9358 236.71 61.9799ZM222.305 62.1713C222.546 62.2177 222.894 62.2154 223.079 62.1679C223.264 62.1191 223.067 62.0808 222.642 62.0832C222.216 62.0855 222.065 62.1249 222.305 62.1713ZM241.061 62.1713C241.301 62.2177 241.649 62.2154 241.833 62.1679C242.019 62.1191 241.822 62.0808 241.396 62.0832C240.971 62.0855 240.819 62.1249 241.061 62.1713ZM117.354 106.263L116.687 106.988L117.412 106.322C118.087 105.701 118.226 105.538 118.079 105.538C118.046 105.538 117.72 105.864 117.354 106.263ZM345.901 105.598C345.901 105.632 346.183 105.915 346.529 106.227L347.158 106.794L346.589 106.166C346.06 105.581 345.901 105.448 345.901 105.598ZM114.84 108.583L114.174 109.308L114.899 108.642C115.573 108.021 115.712 107.858 115.565 107.858C115.532 107.858 115.206 108.184 114.84 108.583ZM348.994 108.534C349.355 108.907 349.694 109.212 349.747 109.212C349.8 109.212 349.549 108.907 349.188 108.534C348.827 108.163 348.488 107.858 348.435 107.858C348.382 107.858 348.633 108.163 348.994 108.534ZM108.557 114.867L107.793 115.688L108.615 114.924C109.379 114.213 109.525 114.045 109.379 114.045C109.348 114.045 108.978 114.415 108.557 114.867ZM355.375 114.915C355.735 115.287 356.074 115.592 356.127 115.592C356.181 115.592 355.929 115.287 355.568 114.915C355.207 114.543 354.869 114.238 354.815 114.238C354.762 114.238 355.014 114.543 355.375 114.915ZM106.04 117.574L105.473 118.202L106.101 117.634C106.687 117.105 106.819 116.945 106.669 116.945C106.636 116.945 106.352 117.228 106.04 117.574ZM62.1114 222.513C62.1114 222.885 62.1508 223.037 62.1995 222.852C62.2483 222.666 62.2483 222.361 62.1995 222.175C62.1508 221.988 62.1114 222.14 62.1114 222.513ZM401.823 222.513C401.823 222.885 401.863 223.037 401.911 222.852C401.96 222.666 401.96 222.361 401.911 222.175C401.863 221.988 401.823 222.14 401.823 222.513ZM61.9304 226.767C61.9304 227.352 61.9675 227.59 62.0116 227.298C62.0557 227.006 62.0557 226.528 62.0116 226.236C61.9675 225.943 61.9304 226.182 61.9304 226.767ZM402.03 226.767C402.03 227.352 402.066 227.59 402.11 227.298C402.155 227.006 402.155 226.528 402.11 226.236C402.066 225.943 402.03 226.182 402.03 226.767ZM61.9281 237.111C61.9292 237.643 61.9675 237.838 62.0116 237.543C62.0557 237.249 62.0545 236.814 62.0093 236.577C61.9629 236.339 61.9269 236.579 61.9281 237.111ZM402.03 237.208C402.03 237.792 402.066 238.031 402.11 237.739C402.155 237.447 402.155 236.969 402.11 236.676C402.066 236.384 402.03 236.623 402.03 237.208ZM62.1148 241.364C62.1172 241.79 62.1566 241.941 62.203 241.701C62.2494 241.461 62.2471 241.112 62.1995 240.927C62.1508 240.742 62.1125 240.94 62.1148 241.364ZM401.823 241.462C401.823 241.833 401.863 241.986 401.911 241.799C401.96 241.614 401.96 241.309 401.911 241.123C401.863 240.937 401.823 241.089 401.823 241.462ZM357.878 346.401L357.212 347.126L357.937 346.46C358.611 345.839 358.75 345.676 358.603 345.676C358.571 345.676 358.245 346.002 357.878 346.401ZM105.569 345.93C105.569 345.963 105.852 346.245 106.198 346.557L106.826 347.126L106.258 346.497C105.729 345.911 105.569 345.78 105.569 345.93ZM355.364 349.107L354.698 349.832L355.423 349.167C355.822 348.8 356.148 348.474 356.148 348.441C356.148 348.294 355.985 348.433 355.364 349.107ZM108.083 348.636C108.083 348.67 108.365 348.953 108.711 349.265L109.34 349.832L108.771 349.205C108.242 348.619 108.083 348.487 108.083 348.636ZM114.27 354.823C114.27 354.857 114.553 355.14 114.899 355.452L115.526 356.02L114.959 355.392C114.43 354.806 114.27 354.675 114.27 354.823ZM348.984 355.488L348.318 356.213L349.043 355.547C349.442 355.18 349.768 354.854 349.768 354.822C349.768 354.675 349.604 354.814 348.984 355.488ZM116.977 357.337C116.977 357.371 117.26 357.654 117.605 357.966L118.234 358.533L117.666 357.905C117.137 357.32 116.977 357.187 116.977 357.337ZM346.277 358.002L345.611 358.727L346.336 358.061C346.734 357.694 347.061 357.367 347.061 357.336C347.061 357.187 346.898 357.327 346.277 358.002ZM222.207 401.88C222.393 401.928 222.698 401.928 222.883 401.88C223.069 401.831 222.917 401.792 222.544 401.792C222.172 401.792 222.02 401.831 222.207 401.88ZM241.155 401.88C241.34 401.928 241.645 401.928 241.831 401.88C242.018 401.831 241.865 401.792 241.493 401.792C241.121 401.792 240.969 401.831 241.155 401.88ZM226.267 402.078C226.56 402.123 227.037 402.123 227.33 402.078C227.622 402.034 227.383 401.998 226.799 401.998C226.214 401.998 225.975 402.034 226.267 402.078ZM236.708 402.078C237 402.123 237.478 402.123 237.771 402.078C238.063 402.034 237.824 401.998 237.239 401.998C236.655 401.998 236.416 402.034 236.708 402.078Z" fill="#1266AB"/>
<path fill-rule="evenodd" clip-rule="evenodd" d="M219.644 0.177364C218.635 0.26205 216.371 0.426783 214.617 0.541631C206.661 1.06599 195.713 2.4871 188.612 3.914C187.868 4.06366 186.519 4.33396 185.615 4.51377C181.766 5.27827 178.006 6.12397 175.271 6.83974C174.633 7.0068 173.633 7.2655 173.048 7.41399C171.495 7.80726 170.003 8.21561 168.794 8.57756C168.209 8.75273 167.295 9.01375 166.764 9.1576C162.078 10.4267 150.803 14.2747 147.236 15.8235C146.81 16.0079 146.027 16.3165 145.496 16.5079C144.963 16.7005 144.441 16.9151 144.336 16.9847C144.229 17.0543 143.707 17.2678 143.176 17.458C142.643 17.6494 141.57 18.0984 140.789 18.458C140.009 18.8176 139.329 19.1111 139.279 19.1111C139.191 19.1111 138.263 19.5288 135.828 20.6633C135.19 20.9603 134.016 21.5056 133.217 21.8745C128.492 24.0624 121.7 27.5647 118.332 29.5508C117.791 29.8698 117.313 30.132 117.271 30.132C117.095 30.132 108.367 35.4382 108.308 35.5809C108.273 35.6679 108.139 35.7387 108.009 35.7387C107.88 35.7387 107.605 35.8698 107.397 36.0299C107.19 36.1888 105.54 37.2944 103.733 38.4858C101.924 39.676 100.339 40.7421 100.211 40.8535C100.082 40.9649 99.3998 41.4475 98.6944 41.9266C97.3371 42.8477 88.7188 49.2421 88.5541 49.4497C88.5007 49.517 87.8488 50.0472 87.104 50.6272C86.3604 51.2061 85.7072 51.727 85.6539 51.7827C85.6005 51.8384 85.1226 52.2316 84.5912 52.6562C83.285 53.7015 82.7455 54.1493 82.3801 54.4938C82.2107 54.6527 81.6435 55.1319 81.1191 55.5576C80.5947 55.9822 79.9335 56.5483 79.6493 56.814C78.7479 57.6585 76.3361 59.807 76.176 59.9079C74.9857 60.6608 60.6923 74.9543 59.9394 76.1445C59.8385 76.3046 57.69 78.7164 56.8454 79.6178C56.5798 79.902 56.0137 80.5633 55.5891 81.0876C55.1633 81.612 54.6842 82.1793 54.5253 82.3487C54.1807 82.7141 53.7329 83.2535 52.6877 84.5598C52.2631 85.0911 51.8698 85.5691 51.8141 85.6224C51.7584 85.6758 51.2376 86.3289 50.6587 87.0725C50.0786 87.8173 49.5485 88.4693 49.4812 88.5226C49.2735 88.6874 42.8791 97.3057 41.958 98.663C41.4789 99.3683 40.9963 100.05 40.885 100.179C40.7736 100.308 39.7075 101.893 38.5172 103.701C37.3258 105.509 36.2202 107.158 36.0613 107.366C35.9012 107.574 35.7701 107.849 35.7701 107.977C35.7701 108.107 35.6994 108.242 35.6124 108.277C35.4697 108.336 30.1634 117.063 30.1634 117.239C30.1634 117.281 29.9012 117.759 29.5822 118.301C27.5962 121.669 24.0939 128.461 21.9059 133.186C21.537 133.984 20.9918 135.158 20.6948 135.796C19.5602 138.231 19.1426 139.159 19.1426 139.247C19.1426 139.297 18.8491 139.977 18.4895 140.758C18.1298 141.539 17.6809 142.612 17.4895 143.144C17.2992 143.676 17.0858 144.198 17.0162 144.304C16.9466 144.41 16.7319 144.932 16.5394 145.464C16.3479 145.996 16.0394 146.779 15.8549 147.204C14.3062 150.772 10.4582 162.047 9.18905 166.732C9.0452 167.264 8.78418 168.178 8.60901 168.762C8.24706 169.971 7.83871 171.463 7.44544 173.016C7.29695 173.601 7.03825 174.601 6.8712 175.239C6.15542 177.975 5.30972 181.734 4.54522 185.584C4.36541 186.487 4.09511 187.837 3.94546 188.58C2.53363 195.603 1.11136 206.533 0.587004 214.392C0.476796 216.041 0.299302 218.521 0.193735 219.903C0.0870065 221.285 0 226.724 0 231.987C0 237.25 0.0870065 242.689 0.193735 244.072C0.299302 245.453 0.476796 247.934 0.587004 249.582C1.11136 257.442 2.53363 268.371 3.94546 275.394C4.09511 276.138 4.36541 277.487 4.54522 278.391C5.30972 282.24 6.15542 286 6.8712 288.735C7.03825 289.373 7.29695 290.373 7.44544 290.958C7.83871 292.511 8.24706 294.003 8.60901 295.212C8.78418 295.797 9.04172 296.711 9.17977 297.242C9.31898 297.773 9.47907 298.339 9.53476 298.498C9.59044 298.659 9.96051 299.833 10.3561 301.109C12.0487 306.553 14.7076 314.127 15.8549 316.77C16.0394 317.196 16.3479 317.979 16.5394 318.51C16.7319 319.042 16.9466 319.564 17.0162 319.67C17.0858 319.777 17.2992 320.299 17.4895 320.83C17.6809 321.363 18.1298 322.436 18.4895 323.216C18.8491 323.997 19.1426 324.677 19.1426 324.727C19.1426 324.814 19.3027 325.17 20.7806 328.371C23.9106 335.149 27.2679 341.749 29.5822 345.673C29.9012 346.215 30.1634 346.693 30.1634 346.735C30.1634 346.889 35.4697 355.643 35.7121 355.889C35.8502 356.029 35.9639 356.229 35.9639 356.332C35.9639 356.436 36.052 356.625 36.1599 356.753C36.2678 356.881 37.3304 358.466 38.5207 360.273C39.7109 362.082 40.755 363.648 40.842 363.753C40.929 363.86 41.5798 364.773 42.2887 365.783C43.6355 367.703 49.2782 375.283 49.4847 375.452C49.5508 375.504 50.0786 376.157 50.6587 376.902C51.2376 377.645 51.7584 378.298 51.8141 378.352C51.8698 378.404 52.2631 378.883 52.6877 379.415C53.7329 380.721 54.1807 381.26 54.5253 381.626C54.6842 381.795 55.1633 382.362 55.5891 382.887C56.0137 383.411 56.5798 384.072 56.8454 384.356C57.69 385.258 59.8385 387.67 59.9394 387.83C60.6923 389.02 74.9857 403.313 76.176 404.066C76.3361 404.167 78.7479 406.316 79.6493 407.16C79.9335 407.426 80.5947 407.992 81.1191 408.417C81.6435 408.842 82.2107 409.322 82.3801 409.48C82.7455 409.825 83.285 410.273 84.5912 411.318C85.1226 411.743 85.6005 412.136 85.6539 412.192C85.7072 412.247 86.3604 412.768 87.104 413.347C87.8488 413.927 88.5007 414.455 88.5541 414.521C88.7223 414.728 96.3023 420.37 98.2223 421.717C99.2315 422.426 100.146 423.077 100.252 423.164C100.358 423.251 101.924 424.296 103.733 425.487C105.54 426.68 107.19 427.785 107.397 427.944C107.605 428.105 107.88 428.236 108.009 428.236C108.139 428.236 108.273 428.306 108.308 428.393C108.367 428.536 117.095 433.842 117.271 433.842C117.313 433.842 117.791 434.105 118.332 434.424C122.257 436.738 128.857 440.095 135.635 443.225C138.836 444.703 139.192 444.863 139.279 444.863C139.329 444.863 140.009 445.157 140.789 445.516C141.57 445.876 142.643 446.325 143.176 446.516C143.707 446.707 144.229 446.92 144.336 446.99C144.441 447.059 144.963 447.274 145.496 447.466C146.027 447.658 146.81 447.966 147.236 448.151C149.879 449.298 157.453 451.957 162.897 453.65C164.173 454.045 165.347 454.415 165.507 454.471C165.666 454.527 166.232 454.687 166.764 454.826C167.295 454.964 168.209 455.222 168.794 455.397C170.003 455.759 171.495 456.167 173.048 456.56C173.633 456.709 174.633 456.968 175.271 457.135C178.006 457.85 181.766 458.696 185.615 459.461C186.519 459.64 187.868 459.911 188.612 460.06C195.635 461.472 206.564 462.894 214.424 463.419C216.072 463.529 218.552 463.706 219.934 463.812C223.193 464.063 240.845 464.063 244.103 463.812C245.485 463.706 247.965 463.53 249.614 463.421C257.499 462.899 268.308 461.491 275.426 460.06C276.169 459.911 277.474 459.65 278.326 459.481C280.948 458.963 282.52 458.621 286.349 457.74C287.04 457.581 288.042 457.354 288.573 457.235C289.104 457.118 289.713 456.944 289.927 456.85C290.139 456.756 290.705 456.594 291.183 456.49C291.661 456.384 292.575 456.157 293.213 455.983C293.851 455.809 294.779 455.563 295.276 455.436C295.772 455.31 296.243 455.142 296.323 455.063C296.402 454.983 296.624 454.918 296.815 454.918C297.007 454.918 297.536 454.797 297.992 454.651C298.448 454.503 299.473 454.188 300.27 453.949C301.068 453.711 301.894 453.447 302.108 453.364C302.32 453.281 303.538 452.887 304.814 452.491C306.09 452.094 307.221 451.704 307.328 451.625C307.434 451.546 307.826 451.418 308.198 451.34C308.569 451.262 308.961 451.132 309.068 451.051C309.174 450.971 309.479 450.842 309.744 450.767C310.33 450.601 314.83 448.975 315.641 448.635C315.96 448.501 316.656 448.236 317.189 448.044C317.72 447.854 318.242 447.639 318.349 447.57C318.454 447.5 318.976 447.287 319.509 447.095C320.581 446.71 321.027 446.522 322.954 445.652C323.679 445.325 324.324 445.057 324.388 445.057C324.453 445.057 325.034 444.803 325.681 444.494C326.327 444.185 327.291 443.739 327.822 443.505C330.131 442.485 331.551 441.807 335.556 439.811C339.714 437.74 340.721 437.216 343.483 435.682C344.228 435.269 345.228 434.722 345.707 434.465C346.185 434.209 347.285 433.572 348.15 433.051C349.017 432.529 349.821 432.102 349.939 432.102C350.058 432.102 350.154 432.015 350.154 431.908C350.154 431.803 350.244 431.716 350.356 431.716C350.466 431.716 351.009 431.411 351.561 431.038C352.113 430.667 352.669 430.362 352.794 430.362C352.919 430.362 353.052 430.29 353.086 430.202C353.141 430.065 353.838 429.618 356.244 428.176C356.458 428.05 356.675 427.897 356.728 427.837C356.781 427.777 357.39 427.391 358.082 426.978C358.772 426.566 359.381 426.175 359.434 426.11C359.488 426.044 359.88 425.783 360.305 425.528C360.73 425.274 361.121 425.013 361.175 424.948C361.228 424.884 361.62 424.622 362.045 424.366C362.47 424.109 362.924 423.809 363.054 423.699C363.526 423.295 363.82 423.085 365.622 421.861C367.108 420.852 369.968 418.791 370.939 418.03C371.046 417.948 372.264 417.018 373.646 415.964C375.028 414.912 376.202 413.999 376.256 413.935C376.309 413.873 376.961 413.345 377.705 412.762C379.249 411.555 379.864 411.054 380.309 410.641C380.482 410.482 381.053 410.003 381.579 409.577C382.105 409.152 382.672 408.673 382.839 408.514C383.288 408.085 385.557 406.113 385.73 406C385.975 405.841 389.137 402.948 391.326 400.881C393.982 398.371 398.455 393.896 401.01 391.193C403.527 388.528 405.274 386.592 407.691 383.787C408.002 383.426 408.346 383.035 408.457 382.917C408.621 382.743 411.635 379.108 412.966 377.481C413.246 377.136 415.17 374.696 415.555 374.194C415.636 374.089 415.962 373.696 416.278 373.324C416.594 372.952 416.854 372.596 416.856 372.533C416.858 372.469 417.078 372.165 417.346 371.857C417.614 371.547 418.071 370.946 418.361 370.521C418.651 370.096 418.976 369.649 419.083 369.527C419.29 369.29 419.333 369.23 421.085 366.751C421.724 365.846 422.322 365.02 422.414 364.913C422.836 364.43 428.073 356.478 428.073 356.323C428.073 356.227 428.144 356.12 428.231 356.084C428.436 356 433.874 346.934 433.874 346.677C433.874 346.569 433.939 346.452 434.019 346.417C434.15 346.359 434.552 345.666 435.407 344.032C435.574 343.714 435.754 343.409 435.808 343.356C436.042 343.12 441.192 332.918 442.7 329.697C443.933 327.066 444.701 325.358 444.701 325.247C444.701 325.192 444.971 324.567 445.301 323.859C445.63 323.15 446.069 322.135 446.276 321.604C446.483 321.073 446.768 320.376 446.909 320.057C447.05 319.738 447.323 319.042 447.514 318.51C447.704 317.979 447.919 317.457 447.989 317.35C448.058 317.244 448.272 316.722 448.463 316.19C448.654 315.658 448.92 314.962 449.054 314.643C449.345 313.947 450.866 309.733 451.461 307.973C451.695 307.281 451.955 306.583 452.04 306.42C452.124 306.257 452.259 305.824 452.339 305.459C452.419 305.095 452.556 304.662 452.643 304.498C452.73 304.336 452.991 303.551 453.223 302.752C453.454 301.955 453.893 300.54 454.2 299.607C454.505 298.676 454.755 297.755 454.755 297.561C454.755 297.368 454.82 297.145 454.9 297.065C454.98 296.986 455.149 296.514 455.275 296.018C455.4 295.522 455.642 294.616 455.81 294.004C456.39 291.9 456.663 290.856 457.157 288.831C457.431 287.714 457.736 286.54 457.835 286.221C457.936 285.902 458.11 285.163 458.223 284.577C458.335 283.993 458.559 282.949 458.721 282.257C458.881 281.566 459.151 280.305 459.319 279.454C459.487 278.603 459.748 277.298 459.898 276.554C461.33 269.449 462.617 260.253 463.256 252.579C463.363 251.303 463.559 249.083 463.695 247.648C464.035 244.018 464.035 219.956 463.695 216.326C463.559 214.89 463.363 212.672 463.256 211.396C462.617 203.722 461.33 194.526 459.898 187.42C459.748 186.676 459.49 185.371 459.323 184.52C459.157 183.67 458.879 182.364 458.708 181.62C458.535 180.876 458.318 179.875 458.224 179.397C458.13 178.918 457.965 178.222 457.856 177.849C457.748 177.477 457.435 176.259 457.16 175.143C456.66 173.109 456.382 172.045 455.81 169.97C455.642 169.359 455.4 168.453 455.275 167.956C455.149 167.461 454.98 166.989 454.9 166.91C454.82 166.83 454.755 166.616 454.755 166.435C454.755 166.254 454.592 165.594 454.392 164.969C454.194 164.344 453.753 162.918 453.414 161.802C453.076 160.685 452.728 159.638 452.642 159.476C452.555 159.312 452.419 158.88 452.339 158.515C452.259 158.15 452.124 157.717 452.04 157.555C451.955 157.391 451.695 156.693 451.461 156.001C450.866 154.242 449.345 150.027 449.054 149.331C448.92 149.012 448.654 148.316 448.463 147.785C448.272 147.252 448.058 146.73 447.989 146.624C447.919 146.518 447.704 145.996 447.514 145.464C447.323 144.932 447.05 144.236 446.909 143.917C446.768 143.598 446.483 142.902 446.276 142.37C446.069 141.839 445.63 140.824 445.301 140.115C444.971 139.408 444.701 138.782 444.701 138.728C444.701 138.616 443.933 136.909 442.7 134.278C441.193 131.06 436.043 120.855 435.808 120.619C435.716 120.526 435.13 119.471 434.467 118.202C434.301 117.883 434.099 117.593 434.019 117.557C433.939 117.523 433.874 117.405 433.874 117.297C433.874 116.6 424.852 102.411 421.11 97.2233C420.459 96.3196 419.779 95.3753 419.6 95.1235C419.421 94.873 419.189 94.5679 419.083 94.4472C418.976 94.3254 418.651 93.8788 418.361 93.453C418.071 93.0284 417.614 92.4275 417.346 92.1178C417.078 91.8092 416.858 91.5052 416.856 91.4414C416.854 91.3788 416.594 91.0215 416.278 90.6502C415.962 90.2779 415.636 89.8857 415.555 89.7802C415.17 89.2779 413.246 86.8382 412.966 86.4936C412.514 85.9414 408.729 81.3649 408.26 80.8046C408.044 80.547 407.738 80.1944 407.578 80.0215C407.419 79.8487 406.95 79.3197 406.536 78.8464C400.536 71.9775 390.419 61.8592 385.352 57.6585C384.984 57.3534 384.452 56.8871 384.17 56.6202C383.549 56.0367 381.945 54.6678 381.172 54.0634C380.864 53.821 380.473 53.4927 380.303 53.3337C379.881 52.9347 379.286 52.4486 377.705 51.2119C376.961 50.6296 376.309 50.1017 376.256 50.0391C376.202 49.9753 375.028 49.0623 373.646 48.0101C372.264 46.9567 371.046 46.0263 370.939 45.944C369.991 45.2004 367.111 43.125 365.624 42.1122C364.614 41.4254 363.682 40.7758 363.552 40.669C363.422 40.5635 363.204 40.386 363.067 40.2769C362.93 40.1667 362.47 39.8674 362.045 39.6099C361.62 39.3535 361.228 39.0902 361.175 39.0264C361.121 38.9614 360.73 38.7004 360.305 38.4463C359.88 38.1911 359.488 37.9301 359.434 37.864C359.381 37.799 358.772 37.408 358.082 36.9962C357.39 36.5832 356.781 36.1969 356.728 36.1377C356.675 36.0774 356.458 35.9243 356.244 35.7978C353.838 34.3559 353.141 33.9092 353.086 33.7723C353.052 33.6842 352.919 33.6122 352.794 33.6122C352.669 33.6122 352.113 33.3083 351.561 32.9359C351.009 32.5635 350.466 32.2584 350.356 32.2584C350.244 32.2584 350.154 32.1714 350.154 32.0658C350.154 31.9591 350.058 31.8721 349.939 31.8721C349.821 31.8721 349.017 31.4452 348.15 30.9232C347.285 30.4023 346.185 29.7654 345.707 29.509C345.228 29.2526 344.228 28.7051 343.483 28.2921C340.647 26.7178 339.684 26.2167 335.363 24.0705C331.127 21.9661 330.032 21.4429 327.822 20.4696C327.291 20.2353 326.327 19.7898 325.681 19.4801C325.034 19.1715 324.453 18.9174 324.388 18.9174C324.324 18.9174 323.679 18.6494 322.954 18.3223C321.027 17.4522 320.581 17.2643 319.509 16.8791C318.976 16.6877 318.454 16.4743 318.349 16.4047C318.242 16.3351 317.72 16.1204 317.189 15.9302C316.656 15.7388 315.96 15.472 315.641 15.3385C315.322 15.2051 313.8 14.6425 312.258 14.0868C310.715 13.5323 309.28 13.0033 309.068 12.9116C308.855 12.8188 307.289 12.2956 305.588 11.7469C303.886 11.1994 302.32 10.6854 302.108 10.6054C301.894 10.5253 301.068 10.2632 300.27 10.0253C299.473 9.78637 298.448 9.47082 297.992 9.32349C297.536 9.17732 297.007 9.05667 296.815 9.05667C296.624 9.05667 296.402 8.99171 296.323 8.91166C296.243 8.83277 295.772 8.66456 295.276 8.53811C294.779 8.41166 293.851 8.16572 293.213 7.99171C292.575 7.8177 291.661 7.59032 291.183 7.48475C290.705 7.38035 290.139 7.21793 289.927 7.12397C289.713 7.03 289.104 6.85599 288.573 6.73882C288.042 6.62049 287.062 6.39775 286.398 6.24346C282.293 5.29219 281.793 5.18314 278.422 4.51377C277.518 4.33396 276.169 4.06366 275.426 3.914C268.308 2.48362 257.499 1.07527 249.614 0.553232C247.965 0.444184 245.485 0.267851 244.103 0.162283C241.187 -0.0627742 222.357 -0.0500132 219.644 0.177364ZM247.776 15.5149C275.769 17.8409 299.006 23.8629 323.569 35.1552C377.021 59.7304 419.122 106.918 437.941 163.348C454.6 213.304 452.433 268.333 431.903 316.674C409.217 370.093 365.084 413.15 311.724 433.924C308.014 435.368 307.217 435.66 302.896 437.156C231.502 461.872 153.376 447.774 93.9682 399.454C79.9915 388.085 66.3663 373.401 54.5647 356.987C24.5161 315.194 10.5464 260.654 16.3561 207.819C26.8815 112.096 100.244 34.2955 195.282 18.0705C203.346 16.6935 212.859 15.6599 221.964 15.1703C225.543 14.9778 244.334 15.2283 247.776 15.5149ZM224.478 62.0541C181.556 64.0216 141.71 81.6422 111.502 112.014C106.761 116.781 102.415 121.628 99.1933 125.744C98.6109 126.488 98.0842 127.14 98.0216 127.193C97.7617 127.415 93.3244 133.454 91.9114 135.506C78.7444 154.644 69.437 176.687 65.1737 198.828C64.8466 200.529 64.4939 202.356 64.3918 202.889C60.9359 220.804 61.212 245.011 65.0971 264.76C65.3686 266.142 65.6343 267.49 65.6853 267.756C65.9997 269.363 67.8059 276.59 68.4649 278.874C74.9126 301.222 85.2293 320.901 100.349 339.694C106.419 347.239 115.547 356.395 123.952 363.369C160.773 393.919 211.049 407.67 258.217 400.09C331.85 388.258 388.289 331.818 400.121 258.185C402.259 244.883 402.671 228.247 401.206 214.391C400.701 209.621 400.38 207.31 399.459 201.825C395.069 175.675 380.939 144.592 364.867 125.732C364.591 125.409 364.061 124.76 363.689 124.293C357.792 116.886 347.135 106.228 339.713 100.317C339.245 99.9449 338.38 99.2477 337.79 98.7662C334.955 96.4588 328.704 91.9205 325.502 89.8463C306.856 77.7686 289.243 70.4195 267.208 65.5239C254.768 62.7606 238.278 61.4207 224.478 62.0541ZM241.493 77.3197C289.965 80.2199 334.406 105.881 361.262 146.476L363.327 149.598L354.976 158.898C350.385 164.014 346.606 168.174 346.581 168.143C346.555 168.112 345.988 167.129 345.32 165.958C335.044 147.952 318.33 130.951 299.98 119.838C287.988 112.576 272.484 106.327 260.657 103.988C260.166 103.89 259.155 103.682 258.411 103.524C256.477 103.112 251.827 102.33 249.226 101.98C235.543 100.134 218.755 100.729 205.627 103.524C204.882 103.682 203.882 103.889 203.403 103.984C165.746 111.458 130.236 140.007 113.185 176.519C75.1795 257.904 128.726 352.687 218.194 362.398C269.018 367.916 320.408 341.919 345.248 298.127L346.577 295.784L347.447 296.711C347.925 297.22 349.756 299.244 351.515 301.21C353.272 303.175 356.653 306.94 359.026 309.577L363.341 314.371L361.121 317.698C308.188 397.059 197.547 410.511 127.231 346.132C102.99 323.937 87.1608 295.893 80.046 262.536C76.169 244.361 76.1702 219.535 80.0472 201.439C81.4404 194.935 82.8325 189.601 84.4358 184.617C104.032 123.701 159.203 80.9252 222.834 77.3104C229.682 76.9218 234.884 76.9241 241.493 77.3197ZM239.365 107.859C240.907 107.963 242.582 108.101 243.088 108.165L244.006 108.281V131.464V154.648H232.115H220.224V131.446C220.224 118.685 220.246 108.238 220.273 108.23C221.758 107.788 234.646 107.538 239.365 107.859ZM253.964 109.611C269.602 112.321 285.393 118.54 299.263 127.449C301.058 128.602 301.058 128.602 300.69 129.01C300.488 129.232 297.079 133.027 293.115 137.44C289.151 141.853 285.834 145.492 285.745 145.527C285.655 145.562 284.863 145.16 283.985 144.635C279.209 141.779 274.612 139.507 269.431 137.441C264.137 135.331 257.059 133.244 251.691 132.213L250.58 131.999V120.513V109.027L251.111 109.118C251.404 109.168 252.688 109.389 253.964 109.611ZM213.023 120.651L212.973 132.092L210.461 132.628C209.078 132.923 206.671 133.517 205.11 133.948C203.55 134.38 202.223 134.734 202.161 134.734C202.1 134.734 202.05 140.606 202.05 147.783V160.834L237.162 160.883L272.275 160.932L261.991 172.194L251.705 183.457H226.877H202.05V200.276V217.096L201.035 215.979C200.476 215.364 199.28 214.041 198.376 213.037C197.472 212.035 196.254 210.686 195.67 210.041C195.084 209.396 193.943 208.131 193.134 207.231C192.324 206.332 188.648 202.248 184.964 198.158L178.268 190.721V168.168V145.615L170.995 137.515C166.993 133.061 163.555 129.235 163.353 129.013C162.986 128.611 162.989 128.608 164.971 127.341C178.372 118.782 192.974 112.904 208.043 110.003C209.692 109.686 211.215 109.388 211.427 109.342C211.639 109.294 212.098 109.246 212.443 109.234L213.073 109.212L213.023 120.651ZM331.295 157.258C334.822 161.929 338.472 167.552 341.047 172.283L341.859 173.775L334.503 181.946L327.146 190.115V251.051V311.987L325.67 313.701C321.08 319.034 312.189 327.247 306.168 331.716L303.46 333.724L303.364 275.178L303.268 216.631L299.787 220.531C297.873 222.676 286.083 235.858 273.588 249.825L250.87 275.218L250.82 257.453L250.771 239.689L252.56 237.717C253.545 236.632 254.97 235.052 255.726 234.204C256.483 233.357 268.915 219.483 283.354 203.371C297.792 187.261 310.19 173.427 310.905 172.629C312.581 170.759 324.284 157.713 326.022 155.779C326.753 154.965 327.538 154.061 327.766 153.769L328.183 153.24L328.645 153.8C328.897 154.107 330.091 155.663 331.295 157.258ZM175.626 197.915L213.263 239.733V257.503V275.273L212.33 274.27C211.816 273.719 203.924 264.958 194.793 254.803C185.66 244.646 178.141 236.295 178.082 236.241C178.022 236.188 176.845 234.883 175.464 233.341C174.084 231.799 172.91 230.494 172.854 230.441C172.798 230.387 171.624 229.082 170.244 227.541C168.863 225.999 167.689 224.694 167.634 224.64C167.578 224.587 166.404 223.282 165.024 221.74C163.643 220.198 162.47 218.893 162.416 218.84C162.361 218.787 161.903 218.29 161.398 217.735L160.48 216.73V275.112C160.48 307.222 160.423 333.495 160.352 333.495C160.109 333.495 155.164 329.693 152.166 327.204C148.966 324.546 140.869 316.612 138.27 313.588L136.698 311.758V251.021V190.283L129.374 182.154L122.05 174.026L123.144 172.022C126.059 166.687 130.133 160.525 134.151 155.377L135.62 153.497L136.804 154.797C137.455 155.513 154.925 174.916 175.626 197.915ZM244.006 273.248V355.692L242.894 355.813C236.905 356.462 226.311 356.46 221.143 355.809L220.224 355.693V273.249V190.804H232.115H244.006V273.248ZM190.428 260.082L202.05 272.999V312.83C202.05 350.673 202.033 352.657 201.711 352.567C201.526 352.513 200.055 352.117 198.442 351.683C193.083 350.242 185.501 347.466 180.423 345.083L178.268 344.072V295.336C178.268 253.704 178.307 246.64 178.537 246.882C178.685 247.038 184.036 252.978 190.428 260.082Z" fill="#A39261"/>
<path fill-rule="evenodd" clip-rule="evenodd" d="M230.81 77.0655C231.475 77.1026 232.563 77.1026 233.228 77.0655C233.892 77.0272 233.348 76.9971 232.019 76.9971C230.689 76.9971 230.145 77.0272 230.81 77.0655ZM224.626 77.2523C224.866 77.2987 225.214 77.2964 225.399 77.2488C225.584 77.2001 225.387 77.1618 224.962 77.1641C224.536 77.1664 224.386 77.2059 224.626 77.2523ZM238.74 77.2523C238.981 77.2987 239.329 77.2964 239.513 77.2488C239.699 77.2001 239.501 77.1618 239.076 77.1641C238.651 77.1664 238.499 77.2059 238.74 77.2523ZM218.631 77.6386C218.873 77.685 219.221 77.6838 219.405 77.6351C219.59 77.5864 219.394 77.5493 218.968 77.5504C218.542 77.5527 218.391 77.5922 218.631 77.6386ZM244.733 77.6386C244.975 77.685 245.323 77.6838 245.507 77.6351C245.692 77.5864 245.496 77.5493 245.07 77.5504C244.644 77.5527 244.493 77.5922 244.733 77.6386ZM231.1 100.846C231.606 100.886 232.432 100.886 232.938 100.846C233.442 100.807 233.029 100.773 232.019 100.773C231.008 100.773 230.595 100.807 231.1 100.846ZM224.916 101.036C225.21 101.08 225.645 101.079 225.883 101.033C226.121 100.988 225.88 100.951 225.348 100.953C224.817 100.954 224.622 100.991 224.916 101.036ZM238.257 101.036C238.551 101.08 238.986 101.079 239.224 101.033C239.462 100.988 239.221 100.951 238.689 100.953C238.158 100.954 237.963 100.991 238.257 101.036ZM227.434 107.808C228.049 107.846 229.006 107.846 229.561 107.807C230.115 107.767 229.612 107.736 228.442 107.737C227.272 107.737 226.818 107.77 227.434 107.808ZM234.587 107.808C235.203 107.846 236.16 107.846 236.715 107.807C237.269 107.767 236.766 107.736 235.595 107.737C234.426 107.737 233.972 107.77 234.587 107.808ZM239.801 107.991C239.988 108.04 240.291 108.04 240.478 107.991C240.664 107.942 240.512 107.903 240.14 107.903C239.767 107.903 239.615 107.942 239.801 107.991ZM243.813 131.348V154.451L231.97 154.502L220.128 154.555L232.068 154.601L244.006 154.647V131.446C244.006 118.685 243.963 108.244 243.91 108.244C243.856 108.244 243.813 118.641 243.813 131.348ZM129.246 116.027L128.481 116.848L129.302 116.084C129.755 115.664 130.125 115.294 130.125 115.263C130.125 115.116 129.957 115.263 129.246 116.027ZM334.107 115.454C334.107 115.507 334.803 116.178 335.653 116.945C336.504 117.711 337.201 118.296 337.201 118.243C337.201 118.189 336.504 117.519 335.653 116.752C334.803 115.985 334.107 115.401 334.107 115.454ZM122.388 122.504L118.814 126.129L122.439 122.554C125.807 119.232 126.152 118.879 126.014 118.879C125.986 118.879 124.355 120.51 122.388 122.504ZM341.453 122.455C343.206 124.21 344.683 125.645 344.736 125.645C344.79 125.645 343.399 124.21 341.647 122.455C339.895 120.701 338.417 119.265 338.364 119.265C338.312 119.265 339.702 120.701 341.453 122.455ZM154.969 125.759L154.389 126.258L155.018 125.841C155.364 125.613 155.647 125.389 155.647 125.343C155.647 125.198 155.564 125.249 154.969 125.759ZM117.546 127.53L116.88 128.256L117.605 127.59C118.004 127.223 118.33 126.897 118.33 126.865C118.33 126.717 118.167 126.856 117.546 127.53ZM346.288 127.483C346.648 127.854 346.987 128.159 347.04 128.159C347.094 128.159 346.842 127.854 346.481 127.483C346.12 127.111 345.782 126.805 345.728 126.805C345.675 126.805 345.927 127.111 346.288 127.483ZM347.738 129.126C348.153 129.551 348.536 129.899 348.589 129.899C348.642 129.899 348.347 129.551 347.931 129.126C347.516 128.701 347.132 128.353 347.079 128.353C347.026 128.353 347.322 128.701 347.738 129.126ZM115.905 129.368L115.14 130.189L115.961 129.425C116.726 128.714 116.872 128.546 116.726 128.546C116.695 128.546 116.325 128.916 115.905 129.368ZM164.638 130.479C165.053 130.905 165.436 131.253 165.489 131.253C165.542 131.253 165.245 130.905 164.83 130.479C164.415 130.054 164.032 129.706 163.979 129.706C163.925 129.706 164.222 130.054 164.638 130.479ZM299.198 130.528L298.434 131.349L299.255 130.585C300.02 129.874 300.166 129.706 300.02 129.706C299.988 129.706 299.618 130.076 299.198 130.528ZM348.801 130.346C348.801 130.38 349.083 130.663 349.429 130.975L350.058 131.543L349.489 130.914C348.96 130.329 348.801 130.198 348.801 130.346ZM146.547 132.427L145.496 133.409L146.607 132.488C147.628 131.642 147.826 131.446 147.66 131.446C147.626 131.446 147.126 131.888 146.547 132.427ZM297.842 132.075L297.274 132.703L297.903 132.135C298.488 131.606 298.62 131.446 298.47 131.446C298.436 131.446 298.154 131.729 297.842 132.075ZM317.285 132.28C317.285 132.314 317.568 132.597 317.914 132.909L318.542 133.476L317.974 132.848C317.445 132.262 317.285 132.13 317.285 132.28ZM144.422 134.298L143.756 135.023L144.481 134.356C144.879 133.99 145.206 133.664 145.206 133.631C145.206 133.484 145.042 133.623 144.422 134.298ZM167.44 133.634C167.44 133.667 167.723 133.949 168.069 134.261L168.698 134.83L168.129 134.201C167.6 133.615 167.44 133.484 167.44 133.634ZM295.813 134.298L295.147 135.023L295.872 134.356C296.546 133.737 296.686 133.573 296.538 133.573C296.506 133.573 296.18 133.899 295.813 134.298ZM319.605 134.443C319.966 134.815 320.305 135.12 320.358 135.12C320.412 135.12 320.16 134.815 319.799 134.443C319.438 134.071 319.1 133.766 319.046 133.766C318.993 133.766 319.245 134.071 319.605 134.443ZM111.176 134.926C110.84 135.352 110.608 135.7 110.661 135.7C110.713 135.7 111.033 135.352 111.37 134.926C111.706 134.501 111.939 134.153 111.886 134.153C111.833 134.153 111.514 134.501 111.176 134.926ZM169.858 136.28C170.273 136.706 170.656 137.054 170.709 137.054C170.763 137.054 170.466 136.706 170.05 136.28C169.635 135.854 169.252 135.506 169.199 135.506C169.146 135.506 169.443 135.854 169.858 136.28ZM293.976 136.329C292.61 137.788 292.075 138.406 292.178 138.406C292.233 138.406 292.864 137.754 293.581 136.956C294.974 135.406 295.253 134.962 293.976 136.329ZM141.526 137.005L140.276 138.31L141.581 137.058C142.298 136.37 142.886 135.783 142.886 135.753C142.886 135.612 142.689 135.793 141.526 137.005ZM322.506 137.15C323.083 137.735 323.6 138.214 323.653 138.214C323.705 138.214 323.277 137.735 322.699 137.15C322.122 136.565 321.605 136.086 321.552 136.086C321.499 136.086 321.928 136.565 322.506 137.15ZM355.371 138.4C355.596 138.717 355.878 139.036 355.999 139.11C356.119 139.185 355.974 138.927 355.677 138.536C355.031 137.689 354.787 137.581 355.371 138.4ZM139.107 139.229L138.148 140.244L139.163 139.284C139.722 138.757 140.178 138.3 140.178 138.269C140.178 138.124 140 138.286 139.107 139.229ZM173.048 139.856C173.409 140.229 173.748 140.534 173.8 140.534C173.853 140.534 173.602 140.229 173.241 139.856C172.88 139.485 172.541 139.18 172.489 139.18C172.436 139.18 172.687 139.485 173.048 139.856ZM290.593 140.099L289.927 140.824L290.652 140.157C291.326 139.537 291.465 139.374 291.318 139.374C291.285 139.374 290.959 139.7 290.593 140.099ZM136.886 141.645L135.635 142.95L136.94 141.699C137.657 141.011 138.246 140.424 138.246 140.394C138.246 140.252 138.048 140.433 136.886 141.645ZM326.76 141.404C327.337 141.989 327.853 142.467 327.906 142.467C327.959 142.467 327.53 141.989 326.952 141.404C326.375 140.818 325.86 140.34 325.806 140.34C325.753 140.34 326.182 140.818 326.76 141.404ZM175.078 142.08C175.494 142.506 175.876 142.854 175.93 142.854C175.983 142.854 175.686 142.506 175.271 142.08C174.856 141.655 174.473 141.307 174.419 141.307C174.366 141.307 174.663 141.655 175.078 142.08ZM288.755 142.129C287.39 143.588 286.855 144.207 286.957 144.207C287.013 144.207 287.644 143.555 288.361 142.757C289.754 141.207 290.033 140.762 288.755 142.129ZM329.466 144.304C329.827 144.675 330.166 144.98 330.219 144.98C330.272 144.98 330.021 144.675 329.66 144.304C329.299 143.932 328.96 143.627 328.907 143.627C328.854 143.627 329.105 143.932 329.466 144.304ZM134.175 144.545L133.508 145.271L134.233 144.605C134.908 143.984 135.047 143.82 134.9 143.82C134.867 143.82 134.541 144.146 134.175 144.545ZM132.722 146.189L132.155 146.817L132.783 146.25C133.128 145.938 133.411 145.655 133.411 145.621C133.411 145.471 133.251 145.603 132.722 146.189ZM330.626 145.621C330.626 145.655 330.909 145.938 331.255 146.25L331.883 146.817L331.315 146.189C330.786 145.603 330.626 145.471 330.626 145.621ZM129.711 149.766C129.155 150.438 128.918 150.781 129.015 150.781C129.068 150.781 129.344 150.476 129.628 150.105C130.155 149.413 130.219 149.153 129.711 149.766ZM362.739 150.081L362.272 150.685L362.825 150.158C363.13 149.869 363.34 149.598 363.292 149.556C363.244 149.513 362.995 149.75 362.739 150.081ZM360.873 152.182L360.305 152.811L360.934 152.243C361.519 151.714 361.651 151.555 361.502 151.555C361.468 151.555 361.185 151.837 360.873 152.182ZM327.883 153.632C327.723 153.819 327.529 154.101 327.451 154.261C327.373 154.42 327.501 154.309 327.733 154.013C328.092 153.555 328.202 153.512 328.472 153.723C328.755 153.944 328.761 153.935 328.524 153.632C328.378 153.447 328.239 153.295 328.216 153.295C328.192 153.295 328.042 153.447 327.883 153.632ZM358.943 154.31L358.178 155.131L359 154.367C359.764 153.656 359.91 153.487 359.764 153.487C359.733 153.487 359.363 153.857 358.943 154.31ZM137.472 155.711C137.833 156.084 138.171 156.388 138.225 156.388C138.278 156.388 138.026 156.084 137.665 155.711C137.305 155.339 136.966 155.035 136.913 155.035C136.859 155.035 137.111 155.339 137.472 155.711ZM133.69 155.938C133.392 156.328 133.247 156.586 133.367 156.512C133.614 156.359 134.452 155.228 134.317 155.228C134.27 155.228 133.987 155.548 133.69 155.938ZM325.009 156.92L324.342 157.645L325.067 156.978C325.742 156.359 325.882 156.195 325.734 156.195C325.702 156.195 325.376 156.521 325.009 156.92ZM139.212 157.645C139.573 158.016 139.911 158.322 139.965 158.322C140.018 158.322 139.766 158.016 139.406 157.645C139.045 157.273 138.706 156.968 138.653 156.968C138.599 156.968 138.851 157.273 139.212 157.645ZM355.751 157.886L355.084 158.612L355.81 157.946C356.485 157.325 356.624 157.161 356.477 157.161C356.444 157.161 356.118 157.487 355.751 157.886ZM323.17 158.95L322.602 159.578L323.231 159.011C323.817 158.482 323.948 158.322 323.799 158.322C323.766 158.322 323.483 158.605 323.17 158.95ZM140.75 159.337C141.225 159.841 141.638 160.255 141.669 160.255C141.814 160.255 141.661 160.081 140.807 159.28L139.888 158.418L140.75 159.337ZM353.915 159.917L353.152 160.738L353.973 159.975C354.738 159.263 354.884 159.095 354.738 159.095C354.706 159.095 354.336 159.464 353.915 159.917ZM142.692 161.512C143.053 161.884 143.392 162.188 143.445 162.188C143.498 162.188 143.247 161.884 142.886 161.512C142.525 161.139 142.186 160.835 142.133 160.835C142.08 160.835 142.331 161.139 142.692 161.512ZM352.559 161.463L351.992 162.092L352.619 161.523C353.205 160.994 353.337 160.835 353.188 160.835C353.154 160.835 352.871 161.117 352.559 161.463ZM270.585 162.623L269.625 163.638L270.641 162.679C271.199 162.151 271.656 161.695 271.656 161.664C271.656 161.52 271.476 161.68 270.585 162.623ZM320.08 162.431L319.315 163.252L320.137 162.487C320.589 162.067 320.959 161.697 320.959 161.666C320.959 161.52 320.791 161.666 320.08 162.431ZM144.432 163.446C144.793 163.817 145.132 164.122 145.185 164.122C145.239 164.122 144.987 163.817 144.626 163.446C144.265 163.073 143.926 162.768 143.873 162.768C143.82 162.768 144.071 163.073 144.432 163.446ZM350.629 163.591L349.864 164.412L350.687 163.647C351.45 162.936 351.597 162.768 351.45 162.768C351.419 162.768 351.05 163.138 350.629 163.591ZM268.938 164.461L268.272 165.186L268.997 164.519C269.672 163.899 269.811 163.736 269.663 163.736C269.631 163.736 269.304 164.062 268.938 164.461ZM318.144 164.557L317.575 165.186L318.204 164.617C318.79 164.088 318.921 163.928 318.771 163.928C318.738 163.928 318.456 164.211 318.144 164.557ZM145.971 165.137C146.445 165.642 146.858 166.056 146.889 166.056C147.034 166.056 146.881 165.882 146.027 165.08L145.109 164.218L145.971 165.137ZM348.801 165.572C348.332 166.05 347.991 166.442 348.044 166.442C348.097 166.442 348.524 166.05 348.994 165.572C349.464 165.093 349.805 164.702 349.752 164.702C349.698 164.702 349.271 165.093 348.801 165.572ZM316.501 166.393L315.835 167.118L316.56 166.453C317.235 165.832 317.375 165.668 317.226 165.668C317.195 165.668 316.868 165.995 316.501 166.393ZM266.628 166.926C266.158 167.404 265.818 167.796 265.871 167.796C265.924 167.796 266.352 167.404 266.822 166.926C267.291 166.447 267.632 166.056 267.579 166.056C267.526 166.056 267.098 166.447 266.628 166.926ZM147.913 167.312C148.273 167.685 148.612 167.989 148.665 167.989C148.719 167.989 148.467 167.685 148.106 167.312C147.745 166.94 147.407 166.636 147.353 166.636C147.3 166.636 147.552 166.94 147.913 167.312ZM347.339 167.263L346.771 167.892L347.399 167.324C347.745 167.012 348.028 166.73 348.028 166.696C348.028 166.547 347.868 166.678 347.339 167.263ZM314.965 168.086C314.495 168.564 314.154 168.956 314.208 168.956C314.261 168.956 314.689 168.564 315.159 168.086C315.629 167.607 315.969 167.216 315.915 167.216C315.863 167.216 315.435 167.607 314.965 168.086ZM264.397 169.391L263.438 170.406L264.453 169.447C265.012 168.919 265.468 168.462 265.468 168.432C265.468 168.287 265.289 168.448 264.397 169.391ZM312.957 170.31C312.573 170.736 312.259 171.144 312.259 171.218C312.259 171.292 312.324 171.27 312.404 171.169C312.484 171.069 312.849 170.659 313.215 170.261C313.581 169.862 313.831 169.536 313.769 169.536C313.708 169.536 313.342 169.884 312.957 170.31ZM151.191 170.937C151.665 171.442 152.078 171.856 152.11 171.856C152.255 171.856 152.102 171.682 151.248 170.881L150.329 170.019L151.191 170.937ZM262.846 171.131L262.277 171.759L262.906 171.192C263.492 170.663 263.623 170.502 263.475 170.502C263.441 170.502 263.158 170.785 262.846 171.131ZM153.133 173.113C153.494 173.485 153.832 173.789 153.886 173.789C153.939 173.789 153.687 173.485 153.327 173.113C152.966 172.74 152.627 172.436 152.574 172.436C152.52 172.436 152.772 172.74 153.133 173.113ZM260.635 173.499C260.165 173.978 259.824 174.369 259.877 174.369C259.931 174.369 260.357 173.978 260.827 173.499C261.297 173.021 261.638 172.629 261.585 172.629C261.532 172.629 261.105 173.021 260.635 173.499ZM310.045 173.584L309.283 174.466L310.132 173.651C310.6 173.203 310.943 172.805 310.896 172.768C310.847 172.732 310.465 173.099 310.045 173.584ZM340.884 174.65L340.023 175.627L340.971 174.715C341.492 174.214 341.879 173.774 341.832 173.738C341.783 173.702 341.357 174.111 340.884 174.65ZM122.584 174.659C122.945 175.031 123.284 175.337 123.336 175.337C123.389 175.337 123.138 175.031 122.777 174.659C122.416 174.287 122.077 173.983 122.025 173.983C121.972 173.983 122.224 174.287 122.584 174.659ZM258.404 175.964L257.445 176.979L258.46 176.02C259.018 175.492 259.475 175.036 259.475 175.005C259.475 174.861 259.295 175.021 258.404 175.964ZM308.089 175.772L307.521 176.399L308.15 175.832C308.735 175.303 308.867 175.143 308.718 175.143C308.684 175.143 308.401 175.426 308.089 175.772ZM156.411 176.738C156.886 177.243 157.299 177.657 157.33 177.657C157.475 177.657 157.322 177.483 156.468 176.681L155.549 175.819L156.411 176.738ZM124.615 176.883C125.03 177.309 125.413 177.657 125.466 177.657C125.519 177.657 125.222 177.309 124.807 176.883C124.392 176.457 124.009 176.109 123.956 176.109C123.902 176.109 124.199 176.457 124.615 176.883ZM256.757 177.802L256.091 178.527L256.816 177.86C257.215 177.493 257.541 177.167 257.541 177.135C257.541 176.987 257.377 177.127 256.757 177.802ZM337.576 178.382L336.911 179.107L337.636 178.44C338.31 177.82 338.449 177.657 338.301 177.657C338.269 177.657 337.943 177.983 337.576 178.382ZM158.353 178.913C158.714 179.285 159.053 179.589 159.106 179.589C159.16 179.589 158.908 179.285 158.547 178.913C158.186 178.541 157.848 178.237 157.794 178.237C157.741 178.237 157.993 178.541 158.353 178.913ZM304.999 179.252L304.234 180.073L305.056 179.309C305.82 178.598 305.966 178.429 305.82 178.429C305.789 178.429 305.419 178.799 304.999 179.252ZM254.535 180.218L253.771 181.039L254.592 180.276C255.356 179.565 255.503 179.397 255.356 179.397C255.325 179.397 254.955 179.766 254.535 180.218ZM335.653 180.459C335.183 180.939 334.843 181.33 334.897 181.33C334.949 181.33 335.377 180.939 335.847 180.459C336.317 179.981 336.658 179.589 336.604 179.589C336.551 179.589 336.123 179.981 335.653 180.459ZM127.417 180.037C127.417 180.071 127.7 180.353 128.046 180.665L128.675 181.233L128.106 180.604C127.577 180.019 127.417 179.888 127.417 180.037ZM303.063 181.378L302.494 182.007L303.123 181.439C303.709 180.91 303.84 180.749 303.69 180.749C303.657 180.749 303.375 181.033 303.063 181.378ZM161.632 182.538C162.106 183.043 162.519 183.457 162.551 183.457C162.696 183.457 162.542 183.283 161.689 182.481L160.77 181.62L161.632 182.538ZM252.418 182.49L251.664 183.262L226.808 183.312L201.953 183.362L226.807 183.41L251.66 183.457L252.514 182.587C252.984 182.108 253.324 181.717 253.271 181.717C253.216 181.717 252.833 182.064 252.418 182.49ZM129.923 182.732C130.725 183.586 130.898 183.739 130.898 183.594C130.898 183.563 130.485 183.15 129.98 182.675L129.061 181.813L129.923 182.732ZM301.42 183.215L300.754 183.94L301.479 183.274C302.154 182.653 302.294 182.49 302.145 182.49C302.114 182.49 301.787 182.817 301.42 183.215ZM332.356 184.182L331.69 184.907L332.415 184.24C333.089 183.621 333.228 183.457 333.081 183.457C333.049 183.457 332.723 183.783 332.356 184.182ZM163.574 184.713C163.935 185.086 164.273 185.39 164.327 185.39C164.38 185.39 164.128 185.086 163.767 184.713C163.407 184.341 163.068 184.037 163.015 184.037C162.961 184.037 163.213 184.341 163.574 184.713ZM299.971 184.858L299.208 185.68L300.029 184.917C300.794 184.205 300.94 184.037 300.794 184.037C300.762 184.037 300.392 184.406 299.971 184.858ZM330.433 186.26C329.963 186.739 329.623 187.13 329.676 187.13C329.728 187.13 330.156 186.739 330.626 186.26C331.096 185.782 331.437 185.39 331.384 185.39C331.331 185.39 330.902 185.782 330.433 186.26ZM133.218 186.454C133.578 186.826 133.917 187.13 133.971 187.13C134.024 187.13 133.772 186.826 133.411 186.454C133.051 186.081 132.712 185.777 132.659 185.777C132.605 185.777 132.857 186.081 133.218 186.454ZM298.035 186.985L297.468 187.614L298.095 187.045C298.681 186.516 298.813 186.357 298.664 186.357C298.63 186.357 298.347 186.639 298.035 186.985ZM166.852 188.339C167.327 188.843 167.74 189.258 167.771 189.258C167.916 189.258 167.763 189.084 166.909 188.282L165.99 187.42L166.852 188.339ZM135.143 188.533C135.618 189.037 136.031 189.45 136.062 189.45C136.207 189.45 136.054 189.277 135.2 188.476L134.282 187.614L135.143 188.533ZM327.372 189.705L326.952 190.153L327.001 251.141L327.05 312.129L327.099 251.141L327.146 190.152L327.566 189.704C327.798 189.458 327.943 189.258 327.89 189.258C327.837 189.258 327.604 189.458 327.372 189.705ZM294.944 190.465L294.18 191.288L295.002 190.523C295.766 189.812 295.913 189.644 295.766 189.644C295.734 189.644 295.365 190.014 294.944 190.465ZM168.794 190.514C169.155 190.886 169.494 191.19 169.547 191.19C169.6 191.19 169.349 190.886 168.988 190.514C168.627 190.142 168.288 189.838 168.235 189.838C168.182 189.838 168.433 190.142 168.794 190.514ZM243.909 273.266C243.909 318.675 243.931 337.222 243.959 314.482C243.985 291.743 243.985 254.591 243.959 231.923C243.931 209.254 243.909 227.859 243.909 273.266ZM179.621 192.254C179.982 192.626 180.321 192.93 180.374 192.93C180.427 192.93 180.176 192.626 179.815 192.254C179.454 191.882 179.115 191.578 179.062 191.578C179.009 191.578 179.26 191.882 179.621 192.254ZM293.107 192.495L292.44 193.22L293.165 192.555C293.564 192.188 293.89 191.862 293.89 191.829C293.89 191.682 293.726 191.821 293.107 192.495ZM172.073 194.139C172.547 194.644 172.96 195.058 172.991 195.058C173.136 195.058 172.983 194.884 172.129 194.082L171.211 193.22L172.073 194.139ZM181.547 194.333C182.021 194.838 182.434 195.251 182.466 195.251C182.611 195.251 182.458 195.078 181.604 194.276L180.685 193.414L181.547 194.333ZM289.918 196.073L289.153 196.894L289.975 196.13C290.739 195.419 290.885 195.251 290.739 195.251C290.708 195.251 290.338 195.621 289.918 196.073ZM183.101 196.121C183.462 196.493 183.801 196.798 183.854 196.798C183.908 196.798 183.656 196.493 183.295 196.121C182.934 195.748 182.596 195.444 182.542 195.444C182.489 195.444 182.741 195.748 183.101 196.121ZM174.015 196.314C174.375 196.687 174.714 196.991 174.767 196.991C174.821 196.991 174.569 196.687 174.208 196.314C173.847 195.942 173.509 195.638 173.455 195.638C173.402 195.638 173.654 195.942 174.015 196.314ZM184.842 198.054C185.202 198.427 185.541 198.731 185.594 198.731C185.648 198.731 185.396 198.427 185.035 198.054C184.675 197.682 184.336 197.378 184.282 197.378C184.229 197.378 184.481 197.682 184.842 198.054ZM288.079 198.103L287.413 198.828L288.138 198.161C288.813 197.542 288.953 197.378 288.804 197.378C288.773 197.378 288.446 197.704 288.079 198.103ZM177.293 199.94C178.095 200.793 178.269 200.947 178.269 200.802C178.269 200.77 177.854 200.357 177.35 199.883L176.431 199.021L177.293 199.94ZM186.767 200.133C187.569 200.987 187.742 201.14 187.742 200.995C187.742 200.964 187.329 200.551 186.824 200.077L185.905 199.215L186.767 200.133ZM286.339 200.036L285.673 200.761L286.398 200.095C287.073 199.474 287.212 199.311 287.064 199.311C287.033 199.311 286.705 199.638 286.339 200.036ZM284.89 201.68L284.127 202.501L284.948 201.738C285.712 201.027 285.859 200.858 285.712 200.858C285.681 200.858 285.311 201.227 284.89 201.68ZM188.322 201.921C188.683 202.293 189.021 202.599 189.075 202.599C189.128 202.599 188.876 202.293 188.516 201.921C188.155 201.549 187.816 201.245 187.763 201.245C187.709 201.245 187.961 201.549 188.322 201.921ZM179.235 202.115C179.596 202.487 179.934 202.791 179.988 202.791C180.041 202.791 179.789 202.487 179.429 202.115C179.068 201.742 178.729 201.438 178.676 201.438C178.622 201.438 178.874 201.742 179.235 202.115ZM283.052 203.71L282.386 204.435L283.111 203.769C283.509 203.402 283.837 203.075 283.837 203.044C283.837 202.896 283.673 203.035 283.052 203.71ZM190.062 203.855C190.423 204.227 190.762 204.531 190.815 204.531C190.868 204.531 190.617 204.227 190.256 203.855C189.895 203.483 189.556 203.179 189.503 203.179C189.449 203.179 189.701 203.483 190.062 203.855ZM182.513 205.74C183.315 206.594 183.489 206.747 183.489 206.602C183.489 206.571 183.075 206.158 182.57 205.683L181.651 204.821L182.513 205.74ZM192.092 206.079C192.507 206.503 192.891 206.851 192.945 206.851C192.997 206.851 192.701 206.503 192.286 206.079C191.871 205.653 191.488 205.305 191.434 205.305C191.381 205.305 191.677 205.653 192.092 206.079ZM279.863 207.286L279.099 208.109L279.921 207.344C280.685 206.633 280.832 206.465 280.685 206.465C280.653 206.465 280.284 206.835 279.863 207.286ZM184.649 208.109C185.01 208.48 185.349 208.785 185.401 208.785C185.454 208.785 185.202 208.48 184.842 208.109C184.481 207.737 184.142 207.431 184.09 207.431C184.036 207.431 184.288 207.737 184.649 208.109ZM278.038 209.266C277.679 209.637 277.422 209.97 277.469 210.006C277.515 210.042 277.845 209.739 278.203 209.332C279.016 208.407 278.912 208.365 278.038 209.266ZM195.38 209.752C195.795 210.177 196.178 210.525 196.231 210.525C196.285 210.525 195.988 210.177 195.572 209.752C195.157 209.327 194.774 208.979 194.721 208.979C194.668 208.979 194.965 209.327 195.38 209.752ZM187.839 211.686C188.255 212.111 188.637 212.459 188.691 212.459C188.744 212.459 188.447 212.111 188.032 211.686C187.617 211.26 187.234 210.912 187.18 210.912C187.127 210.912 187.424 211.26 187.839 211.686ZM197.313 211.879C197.728 212.304 198.112 212.652 198.165 212.652C198.217 212.652 197.922 212.304 197.506 211.879C197.091 211.454 196.708 211.105 196.655 211.105C196.601 211.105 196.897 211.454 197.313 211.879ZM274.837 212.894L274.072 213.716L274.893 212.951C275.658 212.24 275.804 212.072 275.658 212.072C275.627 212.072 275.257 212.442 274.837 212.894ZM189.869 213.909C190.23 214.281 190.569 214.586 190.621 214.586C190.675 214.586 190.423 214.281 190.062 213.909C189.701 213.537 189.362 213.232 189.31 213.232C189.257 213.232 189.509 213.537 189.869 213.909ZM272.998 214.924L272.332 215.65L273.057 214.982C273.732 214.363 273.871 214.199 273.723 214.199C273.692 214.199 273.364 214.525 272.998 214.924ZM200.697 215.65C201.057 216.021 201.396 216.326 201.449 216.326C201.503 216.326 201.251 216.021 200.89 215.65C200.529 215.277 200.191 214.972 200.137 214.972C200.084 214.972 200.336 215.277 200.697 215.65ZM271.258 216.857L270.592 217.582L271.317 216.916C271.716 216.55 272.042 216.224 272.042 216.191C272.042 216.044 271.878 216.183 271.258 216.857ZM160.335 274.971C160.296 321.586 160.238 333.296 160.045 333.187C159.853 333.079 159.852 333.104 160.042 333.308C160.173 333.449 160.325 333.52 160.38 333.466C160.436 333.41 160.459 307.097 160.432 274.99L160.382 216.616L160.335 274.971ZM193.06 217.486C193.475 217.912 193.858 218.26 193.911 218.26C193.965 218.26 193.668 217.912 193.252 217.486C192.837 217.06 192.454 216.712 192.401 216.712C192.347 216.712 192.644 217.06 193.06 217.486ZM161.35 217.68C161.765 218.104 162.149 218.452 162.202 218.452C162.255 218.452 161.959 218.104 161.544 217.68C161.128 217.254 160.745 216.906 160.692 216.906C160.639 216.906 160.935 217.254 161.35 217.68ZM269.809 218.501L269.045 219.322L269.867 218.559C270.631 217.848 270.777 217.68 270.631 217.68C270.6 217.68 270.23 218.049 269.809 218.501ZM77.5822 218.936C77.5846 219.362 77.624 219.513 77.6704 219.272C77.7168 219.031 77.7156 218.683 77.6669 218.499C77.6182 218.314 77.5811 218.51 77.5822 218.936ZM301.129 218.887L300.56 219.516L301.189 218.948C301.775 218.419 301.906 218.26 301.758 218.26C301.724 218.26 301.441 218.542 301.129 218.887ZM195.09 219.71C195.451 220.081 195.789 220.386 195.842 220.386C195.895 220.386 195.643 220.081 195.282 219.71C194.922 219.337 194.583 219.032 194.531 219.032C194.477 219.032 194.729 219.337 195.09 219.71ZM267.971 220.531L267.305 221.256L268.03 220.59C268.428 220.224 268.755 219.897 268.755 219.865C268.755 219.717 268.592 219.856 267.971 220.531ZM299.294 220.917L298.628 221.643L299.353 220.977C300.027 220.356 300.166 220.192 300.019 220.192C299.986 220.192 299.66 220.52 299.294 220.917ZM164.734 221.45C165.095 221.821 165.433 222.126 165.487 222.126C165.54 222.126 165.288 221.821 164.928 221.45C164.567 221.078 164.228 220.772 164.175 220.772C164.121 220.772 164.373 221.078 164.734 221.45ZM101.167 222.126C101.167 222.499 101.207 222.651 101.256 222.465C101.304 222.278 101.304 221.974 101.256 221.788C101.207 221.602 101.167 221.754 101.167 222.126ZM298.035 222.368L297.468 222.996L298.095 222.428C298.681 221.899 298.813 221.74 298.664 221.74C298.63 221.74 298.347 222.022 298.035 222.368ZM198.28 223.286C198.695 223.712 199.078 224.06 199.132 224.06C199.185 224.06 198.888 223.712 198.473 223.286C198.057 222.861 197.674 222.513 197.621 222.513C197.568 222.513 197.865 222.861 198.28 223.286ZM166.57 223.48C166.986 223.905 167.37 224.253 167.423 224.253C167.475 224.253 167.179 223.905 166.764 223.48C166.349 223.054 165.966 222.706 165.912 222.706C165.859 222.706 166.155 223.054 166.57 223.48ZM264.782 224.108L264.018 224.93L264.84 224.166C265.603 223.455 265.751 223.286 265.603 223.286C265.572 223.286 265.203 223.656 264.782 224.108ZM296.2 224.398L295.534 225.123L296.259 224.457C296.934 223.836 297.073 223.673 296.925 223.673C296.893 223.673 296.566 224 296.2 224.398ZM77.1959 224.93C77.1982 225.355 77.2377 225.507 77.2841 225.265C77.3305 225.025 77.3282 224.677 77.2806 224.493C77.2319 224.307 77.1936 224.504 77.1959 224.93ZM100.987 225.413C100.987 225.999 101.023 226.238 101.067 225.945C101.112 225.653 101.112 225.174 101.067 224.882C101.023 224.589 100.987 224.828 100.987 225.413ZM200.31 225.51C200.671 225.882 201.01 226.187 201.062 226.187C201.115 226.187 200.864 225.882 200.503 225.51C200.142 225.138 199.803 224.833 199.751 224.833C199.698 224.833 199.949 225.138 200.31 225.51ZM262.957 226.087C262.598 226.458 262.341 226.791 262.388 226.827C262.434 226.863 262.764 226.56 263.122 226.153C263.935 225.228 263.831 225.187 262.957 226.087ZM294.364 226.428L293.6 227.25L294.422 226.486C295.186 225.775 295.333 225.607 295.186 225.607C295.154 225.607 294.785 225.977 294.364 226.428ZM169.954 227.25C170.315 227.622 170.654 227.927 170.707 227.927C170.76 227.927 170.509 227.622 170.148 227.25C169.787 226.878 169.448 226.573 169.395 226.573C169.342 226.573 169.593 226.878 169.954 227.25ZM261.397 227.878L260.731 228.603L261.456 227.937C262.131 227.317 262.27 227.153 262.122 227.153C262.091 227.153 261.764 227.48 261.397 227.878ZM203.5 229.087C203.916 229.513 204.299 229.861 204.352 229.861C204.405 229.861 204.108 229.513 203.693 229.087C203.278 228.661 202.895 228.313 202.842 228.313C202.788 228.313 203.085 228.661 203.5 229.087ZM171.897 229.387C172.371 229.924 172.798 230.335 172.845 230.299C172.893 230.263 172.506 229.823 171.984 229.321L171.037 228.411L171.897 229.387ZM259.755 229.716L258.991 230.537L259.812 229.772C260.577 229.061 260.723 228.893 260.577 228.893C260.545 228.893 260.175 229.263 259.755 229.716ZM291.268 229.908L290.7 230.537L291.328 229.968C291.914 229.439 292.045 229.281 291.897 229.281C291.863 229.281 291.58 229.562 291.268 229.908ZM77.0254 231.987C77.0254 233.104 77.0579 233.56 77.0962 233.002C77.1356 232.444 77.1356 231.53 77.0962 230.972C77.0579 230.414 77.0254 230.87 77.0254 231.987ZM205.531 231.311C205.891 231.682 206.23 231.987 206.282 231.987C206.336 231.987 206.084 231.682 205.723 231.311C205.362 230.938 205.024 230.633 204.971 230.633C204.918 230.633 205.17 230.938 205.531 231.311ZM100.796 232.083C100.797 232.721 100.833 232.959 100.876 232.612C100.919 232.264 100.917 231.742 100.873 231.452C100.829 231.161 100.794 231.445 100.796 232.083ZM257.853 231.794C257.469 232.22 257.154 232.629 257.154 232.703C257.154 232.777 257.219 232.755 257.3 232.654C257.38 232.553 257.745 232.144 258.11 231.746C258.477 231.347 258.726 231.021 258.665 231.021C258.603 231.021 258.238 231.369 257.853 231.794ZM289.53 231.842L288.767 232.663L289.588 231.9C290.353 231.189 290.499 231.021 290.353 231.021C290.321 231.021 289.951 231.39 289.53 231.842ZM175.175 233.051C175.535 233.422 175.874 233.727 175.927 233.727C175.981 233.727 175.729 233.422 175.368 233.051C175.008 232.678 174.669 232.373 174.615 232.373C174.562 232.373 174.814 232.678 175.175 233.051ZM288.174 233.388L287.607 234.017L288.234 233.449C288.82 232.92 288.952 232.761 288.803 232.761C288.769 232.761 288.486 233.043 288.174 233.388ZM208.721 234.887C209.136 235.313 209.519 235.661 209.572 235.661C209.626 235.661 209.329 235.313 208.913 234.887C208.498 234.461 208.115 234.113 208.062 234.113C208.009 234.113 208.306 234.461 208.721 234.887ZM177.118 235.188C177.591 235.725 178.018 236.136 178.066 236.1C178.113 236.064 177.727 235.624 177.205 235.122L176.257 234.211L177.118 235.188ZM254.824 235.226L254.157 235.951L254.882 235.284C255.557 234.665 255.696 234.501 255.549 234.501C255.516 234.501 255.19 234.827 254.824 235.226ZM286.339 235.419L285.673 236.144L286.398 235.478C286.797 235.111 287.123 234.785 287.123 234.753C287.123 234.605 286.959 234.745 286.339 235.419ZM210.751 237.111C211.112 237.482 211.451 237.787 211.503 237.787C211.556 237.787 211.304 237.482 210.944 237.111C210.583 236.739 210.244 236.434 210.192 236.434C210.138 236.434 210.39 236.739 210.751 237.111ZM252.985 237.256L252.417 237.884L253.045 237.316C253.631 236.787 253.762 236.627 253.614 236.627C253.58 236.627 253.297 236.91 252.985 237.256ZM284.504 237.449L283.739 238.271L284.562 237.507C285.325 236.796 285.472 236.627 285.325 236.627C285.294 236.627 284.925 236.997 284.504 237.449ZM100.987 238.561C100.987 239.146 101.023 239.385 101.067 239.093C101.112 238.8 101.112 238.321 101.067 238.029C101.023 237.736 100.987 237.975 100.987 238.561ZM77.1959 238.851C77.1982 239.276 77.2377 239.428 77.2841 239.187C77.3305 238.946 77.3282 238.598 77.2806 238.414C77.2319 238.228 77.1936 238.426 77.1959 238.851ZM180.395 238.851C180.756 239.223 181.095 239.528 181.148 239.528C181.201 239.528 180.95 239.223 180.589 238.851C180.228 238.479 179.889 238.174 179.836 238.174C179.782 238.174 180.034 238.479 180.395 238.851ZM182.425 241.074C182.84 241.5 183.223 241.848 183.277 241.848C183.33 241.848 183.034 241.5 182.619 241.074C182.204 240.649 181.82 240.301 181.766 240.301C181.714 240.301 182.01 240.649 182.425 241.074ZM281.407 240.929L280.839 241.558L281.468 240.989C282.053 240.46 282.185 240.301 282.036 240.301C282.002 240.301 281.719 240.583 281.407 240.929ZM101.167 241.848C101.167 242.22 101.207 242.372 101.256 242.187C101.304 242 101.304 241.696 101.256 241.509C101.207 241.323 101.167 241.475 101.167 241.848ZM279.669 242.863L278.906 243.684L279.727 242.921C280.492 242.21 280.638 242.042 280.492 242.042C280.461 242.042 280.091 242.41 279.669 242.863ZM278.313 244.409L277.746 245.038L278.374 244.47C278.959 243.941 279.092 243.782 278.942 243.782C278.908 243.782 278.625 244.064 278.313 244.409ZM185.615 244.652C185.976 245.023 186.315 245.328 186.368 245.328C186.422 245.328 186.17 245.023 185.809 244.652C185.448 244.279 185.11 243.974 185.056 243.974C185.003 243.974 185.255 244.279 185.615 244.652ZM77.5869 244.942C77.5869 245.42 77.624 245.616 77.6704 245.377C77.7168 245.137 77.7168 244.746 77.6704 244.507C77.624 244.267 77.5869 244.463 77.5869 244.942ZM276.478 246.439L275.812 247.164L276.537 246.499C276.936 246.132 277.262 245.806 277.262 245.774C277.262 245.626 277.099 245.765 276.478 246.439ZM187.646 246.874C188.061 247.3 188.444 247.648 188.497 247.648C188.55 247.648 188.255 247.3 187.839 246.874C187.424 246.45 187.04 246.102 186.987 246.102C186.934 246.102 187.23 246.45 187.646 246.874ZM274.643 248.47L273.878 249.292L274.701 248.528C275.464 247.816 275.611 247.648 275.464 247.648C275.433 247.648 275.064 248.018 274.643 248.47ZM180.009 248.712C180.369 249.083 180.708 249.388 180.76 249.388C180.814 249.388 180.562 249.083 180.201 248.712C179.84 248.34 179.502 248.035 179.45 248.035C179.396 248.035 179.648 248.34 180.009 248.712ZM190.836 250.452C191.197 250.823 191.535 251.128 191.589 251.128C191.642 251.128 191.39 250.823 191.03 250.452C190.669 250.08 190.33 249.775 190.277 249.775C190.223 249.775 190.475 250.08 190.836 250.452ZM271.645 251.854L270.978 252.579L271.703 251.913C272.102 251.546 272.428 251.219 272.428 251.188C272.428 251.039 272.265 251.178 271.645 251.854ZM183.287 252.337C184.089 253.191 184.262 253.344 184.262 253.199C184.262 253.168 183.849 252.755 183.344 252.28L182.425 251.418L183.287 252.337ZM192.866 252.675C193.281 253.101 193.664 253.449 193.717 253.449C193.771 253.449 193.475 253.101 193.06 252.675C192.644 252.25 192.26 251.902 192.207 251.902C192.155 251.902 192.451 252.25 192.866 252.675ZM269.809 253.884L269.045 254.705L269.867 253.942C270.631 253.231 270.777 253.062 270.631 253.062C270.6 253.062 270.23 253.431 269.809 253.884ZM185.325 254.609C185.741 255.034 186.123 255.383 186.177 255.383C186.23 255.383 185.934 255.034 185.519 254.609C185.104 254.183 184.72 253.835 184.666 253.835C184.614 253.835 184.91 254.183 185.325 254.609ZM268.453 255.43L267.885 256.059L268.513 255.49C269.099 254.961 269.231 254.802 269.081 254.802C269.048 254.802 268.765 255.084 268.453 255.43ZM196.25 256.445C196.611 256.818 196.949 257.123 197.002 257.123C197.055 257.123 196.803 256.818 196.442 256.445C196.082 256.073 195.743 255.769 195.691 255.769C195.637 255.769 195.889 256.073 196.25 256.445ZM187.701 257.268C188.231 257.879 188.867 258.553 189.114 258.765C189.361 258.979 188.965 258.478 188.234 257.654C187.502 256.83 186.866 256.155 186.821 256.155C186.774 256.155 187.171 256.656 187.701 257.268ZM266.617 257.46L265.951 258.185L266.677 257.519C267.076 257.153 267.402 256.827 267.402 256.794C267.402 256.647 267.238 256.786 266.617 257.46ZM198.086 258.475C198.502 258.901 198.884 259.249 198.938 259.249C198.991 259.249 198.695 258.901 198.28 258.475C197.865 258.051 197.481 257.703 197.427 257.703C197.375 257.703 197.671 258.051 198.086 258.475ZM264.782 259.49L264.018 260.313L264.84 259.548C265.603 258.837 265.751 258.669 265.603 258.669C265.572 258.669 265.203 259.039 264.782 259.49ZM190.546 260.409C190.961 260.835 191.344 261.183 191.397 261.183C191.451 261.183 191.155 260.835 190.739 260.409C190.324 259.983 189.94 259.635 189.887 259.635C189.835 259.635 190.13 259.983 190.546 260.409ZM201.47 262.246C201.831 262.618 202.17 262.923 202.222 262.923C202.275 262.923 202.024 262.618 201.663 262.246C201.302 261.873 200.963 261.569 200.911 261.569C200.858 261.569 201.11 261.873 201.47 262.246ZM191.996 262.016C191.996 262.05 192.279 262.333 192.625 262.645L193.252 263.213L192.685 262.584C192.156 261.998 191.996 261.867 191.996 262.016ZM261.784 262.874L261.117 263.599L261.842 262.934C262.518 262.313 262.657 262.149 262.509 262.149C262.477 262.149 262.151 262.475 261.784 262.874ZM193.832 264.083C194.248 264.508 194.632 264.856 194.685 264.856C194.737 264.856 194.441 264.508 194.026 264.083C193.611 263.657 193.228 263.309 193.175 263.309C193.121 263.309 193.417 263.657 193.832 264.083ZM203.307 264.276C203.722 264.702 204.105 265.05 204.158 265.05C204.212 265.05 203.916 264.702 203.5 264.276C203.085 263.851 202.701 263.503 202.648 263.503C202.596 263.503 202.891 263.851 203.307 264.276ZM259.948 264.905L259.185 265.726L260.006 264.963C260.77 264.251 260.917 264.083 260.77 264.083C260.739 264.083 260.369 264.452 259.948 264.905ZM195.766 266.21C196.181 266.635 196.564 266.983 196.618 266.983C196.671 266.983 196.375 266.635 195.96 266.21C195.545 265.784 195.161 265.436 195.107 265.436C195.055 265.436 195.351 265.784 195.766 266.21ZM258.592 266.451L258.025 267.08L258.652 266.511C259.238 265.982 259.37 265.823 259.221 265.823C259.187 265.823 258.904 266.105 258.592 266.451ZM206.691 268.046C207.051 268.418 207.39 268.724 207.442 268.724C207.496 268.724 207.244 268.418 206.883 268.046C206.522 267.674 206.184 267.37 206.132 267.37C206.078 267.37 206.33 267.674 206.691 268.046ZM197.216 267.816C197.216 267.85 197.499 268.133 197.845 268.445L198.473 269.014L197.905 268.385C197.376 267.799 197.216 267.668 197.216 267.816ZM256.757 268.481L256.091 269.206L256.816 268.54C257.215 268.174 257.541 267.848 257.541 267.815C257.541 267.668 257.377 267.807 256.757 268.481ZM199.053 269.884C199.468 270.308 199.852 270.656 199.905 270.656C199.958 270.656 199.662 270.308 199.246 269.884C198.831 269.458 198.448 269.11 198.395 269.11C198.342 269.11 198.637 269.458 199.053 269.884ZM208.615 270.125C209.417 270.979 209.591 271.132 209.591 270.987C209.591 270.956 209.177 270.543 208.672 270.068L207.753 269.206L208.615 270.125ZM255.027 270.366C254.557 270.845 254.217 271.236 254.271 271.236C254.323 271.236 254.751 270.845 255.221 270.366C255.69 269.888 256.032 269.496 255.978 269.496C255.925 269.496 255.497 269.888 255.027 270.366ZM201.083 272.106C201.444 272.479 201.782 272.784 201.836 272.784C201.889 272.784 201.637 272.479 201.277 272.106C200.916 271.734 200.577 271.43 200.524 271.43C200.47 271.43 200.722 271.734 201.083 272.106ZM211.911 273.846C212.272 274.219 212.611 274.524 212.663 274.524C212.716 274.524 212.464 274.219 212.104 273.846C211.743 273.474 211.404 273.17 211.352 273.17C211.299 273.17 211.55 273.474 211.911 273.846ZM251.924 273.895L251.257 274.62L251.982 273.954C252.657 273.334 252.796 273.17 252.649 273.17C252.616 273.17 252.29 273.496 251.924 273.895ZM348.03 297.534C348.69 298.279 349.33 298.95 349.451 299.023C349.572 299.096 349.073 298.487 348.342 297.668C347.611 296.849 346.972 296.178 346.921 296.178C346.87 296.178 347.369 296.788 348.03 297.534ZM350.734 300.528C351.095 300.901 351.434 301.206 351.487 301.206C351.54 301.206 351.289 300.901 350.928 300.528C350.567 300.156 350.228 299.852 350.175 299.852C350.122 299.852 350.373 300.156 350.734 300.528ZM352.088 302.039C352.088 302.073 352.371 302.356 352.717 302.668L353.344 303.236L352.777 302.607C352.248 302.021 352.088 301.89 352.088 302.039ZM353.924 304.106C354.34 304.531 354.724 304.879 354.777 304.879C354.829 304.879 354.533 304.531 354.118 304.106C353.703 303.68 353.32 303.332 353.267 303.332C353.213 303.332 353.509 303.68 353.924 304.106ZM355.762 306.136C356.123 306.508 356.461 306.813 356.514 306.813C356.567 306.813 356.315 306.508 355.955 306.136C355.594 305.764 355.255 305.459 355.203 305.459C355.149 305.459 355.401 305.764 355.762 306.136ZM358.952 309.713C359.367 310.139 359.75 310.487 359.804 310.487C359.857 310.487 359.56 310.139 359.145 309.713C358.729 309.287 358.347 308.939 358.293 308.939C358.24 308.939 358.537 309.287 358.952 309.713ZM360.982 311.937C361.343 312.308 361.682 312.613 361.734 312.613C361.787 312.613 361.536 312.308 361.175 311.937C360.814 311.564 360.475 311.259 360.423 311.259C360.37 311.259 360.622 311.564 360.982 311.937ZM137.278 312.48C137.278 312.513 137.561 312.796 137.907 313.108L138.536 313.677L137.967 313.048C137.438 312.462 137.278 312.331 137.278 312.48ZM326.068 313.048C324.972 314.25 324.566 314.74 324.667 314.74C324.723 314.74 325.221 314.218 325.777 313.579C326.837 312.36 327.051 311.972 326.068 313.048ZM362.739 313.893C362.995 314.224 363.244 314.461 363.292 314.418C363.34 314.376 363.13 314.105 362.825 313.816L362.272 313.289L362.739 313.893ZM333.103 315.465C332.762 315.861 332.507 316.287 332.609 316.287C332.648 316.287 332.873 316.026 333.109 315.707C333.575 315.076 333.571 314.919 333.103 315.465ZM141.048 316.673C141.573 317.205 142.045 317.64 142.097 317.64C142.15 317.64 141.765 317.205 141.242 316.673C140.719 316.142 140.247 315.707 140.193 315.707C140.14 315.707 140.525 316.142 141.048 316.673ZM322.596 316.915L321.442 318.124L322.651 316.969C323.315 316.335 323.86 315.791 323.86 315.762C323.86 315.618 323.668 315.793 322.596 316.915ZM132.251 317.314C132.251 317.347 132.534 317.63 132.88 317.943L133.508 318.51L132.94 317.882C132.411 317.296 132.251 317.164 132.251 317.314ZM331.097 317.882L330.53 318.51L331.158 317.943C331.743 317.414 331.876 317.253 331.726 317.253C331.692 317.253 331.409 317.536 331.097 317.882ZM134.378 319.67C134.739 320.042 135.077 320.347 135.131 320.347C135.184 320.347 134.932 320.042 134.572 319.67C134.211 319.298 133.872 318.994 133.819 318.994C133.765 318.994 134.017 319.298 134.378 319.67ZM329.456 319.719L328.79 320.444L329.515 319.778C329.913 319.411 330.24 319.084 330.24 319.053C330.24 318.904 330.076 319.043 329.456 319.719ZM136.602 322.088C137.125 322.619 137.597 323.054 137.65 323.054C137.704 323.054 137.319 322.619 136.795 322.088C136.271 321.555 135.799 321.12 135.747 321.12C135.693 321.12 136.078 321.555 136.602 322.088ZM316.698 322.813L315.641 323.924L316.754 322.867C317.365 322.286 317.865 321.786 317.865 321.756C317.865 321.612 317.681 321.779 316.698 322.813ZM326.655 322.715L325.696 323.73L326.711 322.771C327.654 321.88 327.814 321.7 327.67 321.7C327.64 321.7 327.183 322.157 326.655 322.715ZM147.236 322.86C147.759 323.393 148.232 323.828 148.285 323.828C148.338 323.828 147.953 323.393 147.429 322.86C146.906 322.329 146.433 321.894 146.38 321.894C146.327 321.894 146.712 322.329 147.236 322.86ZM150.426 325.628C150.426 325.662 150.708 325.944 151.054 326.256L151.683 326.824L151.114 326.195C150.585 325.61 150.426 325.478 150.426 325.628ZM312.923 326.195L312.355 326.824L312.984 326.256C313.57 325.727 313.701 325.568 313.551 325.568C313.517 325.568 313.235 325.85 312.923 326.195ZM322.499 326.873L321.442 327.984L322.554 326.927C323.166 326.346 323.666 325.846 323.666 325.816C323.666 325.672 323.481 325.839 322.499 326.873ZM141.726 327.21C142.304 327.795 142.819 328.274 142.872 328.274C142.925 328.274 142.496 327.795 141.918 327.21C141.341 326.626 140.826 326.148 140.772 326.148C140.719 326.148 141.148 326.626 141.726 327.21ZM309.825 328.772L309.068 329.462L309.89 328.836C310.64 328.264 310.824 328.081 310.647 328.081C310.611 328.081 310.241 328.391 309.825 328.772ZM319.595 329.579L318.929 330.304L319.654 329.639C320.052 329.272 320.379 328.945 320.379 328.913C320.379 328.765 320.216 328.904 319.595 329.579ZM144.432 329.724C144.793 330.097 145.132 330.401 145.185 330.401C145.239 330.401 144.987 330.097 144.626 329.724C144.265 329.352 143.926 329.048 143.873 329.048C143.82 329.048 144.071 329.352 144.432 329.724ZM112.798 331.039C113.207 331.539 113.583 331.948 113.633 331.948C113.764 331.948 112.54 330.431 112.277 330.267C112.154 330.192 112.388 330.539 112.798 331.039ZM145.592 330.655C145.592 330.688 145.875 330.971 146.221 331.284L146.849 331.851L146.281 331.223C145.752 330.637 145.592 330.505 145.592 330.655ZM317.756 331.223L317.189 331.851L317.817 331.284C318.402 330.755 318.535 330.594 318.385 330.594C318.351 330.594 318.068 330.877 317.756 331.223ZM349.272 333.156L348.704 333.785L349.333 333.216C349.919 332.687 350.05 332.528 349.901 332.528C349.868 332.528 349.584 332.81 349.272 333.156ZM115.914 334.655C116.329 335.081 116.712 335.429 116.765 335.429C116.819 335.429 116.522 335.081 116.106 334.655C115.691 334.229 115.308 333.881 115.255 333.881C115.202 333.881 115.499 334.229 115.914 334.655ZM149.459 333.946C149.459 333.998 149.807 334.318 150.233 334.655C150.658 334.991 151.007 335.224 151.007 335.171C151.007 335.118 150.658 334.799 150.233 334.461C149.807 334.125 149.459 333.893 149.459 333.946ZM347.728 334.896L346.964 335.719L347.786 334.954C348.55 334.243 348.697 334.075 348.55 334.075C348.518 334.075 348.149 334.445 347.728 334.896ZM346.372 336.444L345.804 337.071L346.433 336.504C347.018 335.975 347.149 335.815 347.001 335.815C346.967 335.815 346.684 336.098 346.372 336.444ZM122.487 341.615C124.399 343.529 126.007 345.096 126.06 345.096C126.113 345.096 124.592 343.529 122.681 341.615C120.769 339.701 119.161 338.135 119.108 338.135C119.054 338.135 120.575 339.701 122.487 341.615ZM341.451 341.567L338.263 344.806L341.502 341.618C343.283 339.864 344.741 338.406 344.741 338.379C344.741 338.241 344.414 338.558 341.451 341.567ZM336.318 346.497L335.75 347.126L336.378 346.557C336.964 346.028 337.096 345.869 336.946 345.869C336.913 345.869 336.63 346.151 336.318 346.497ZM334.774 347.851L334.01 348.672L334.832 347.909C335.596 347.198 335.742 347.029 335.596 347.029C335.565 347.029 335.195 347.398 334.774 347.851ZM129.255 347.996C129.67 348.422 130.053 348.77 130.106 348.77C130.16 348.77 129.863 348.422 129.447 347.996C129.032 347.57 128.649 347.222 128.596 347.222C128.543 347.222 128.84 347.57 129.255 347.996ZM333.031 349.397L332.463 350.026L333.092 349.457C333.677 348.928 333.808 348.77 333.66 348.77C333.626 348.77 333.343 349.051 333.031 349.397ZM227.33 356.258C227.782 356.299 228.521 356.299 228.974 356.258C229.426 356.217 229.056 356.184 228.152 356.184C227.247 356.184 226.879 356.217 227.33 356.258ZM235.064 356.258C235.517 356.299 236.256 356.299 236.708 356.258C237.159 356.217 236.789 356.184 235.885 356.184C234.982 356.184 234.612 356.217 235.064 356.258ZM140.178 356.767C140.178 356.819 140.439 357.049 140.758 357.276C141.077 357.504 141.338 357.647 141.338 357.593C141.338 357.54 141.077 357.31 140.758 357.083C140.439 356.857 140.178 356.714 140.178 356.767ZM323.182 357.196L322.602 357.695L323.231 357.279C323.576 357.05 323.86 356.826 323.86 356.78C323.86 356.635 323.777 356.686 323.182 357.196ZM224.627 363.024C224.975 363.066 225.497 363.065 225.787 363.021C226.077 362.977 225.793 362.942 225.155 362.943C224.517 362.945 224.279 362.981 224.627 363.024ZM238.354 363.024C238.702 363.066 239.224 363.065 239.514 363.021C239.805 362.977 239.521 362.942 238.883 362.943C238.245 362.945 238.007 362.981 238.354 363.024ZM231.294 363.217C231.693 363.259 232.345 363.259 232.744 363.217C233.143 363.175 232.817 363.142 232.019 363.142C231.222 363.142 230.895 363.175 231.294 363.217ZM218.533 386.412C218.718 386.461 219.024 386.461 219.209 386.412C219.396 386.363 219.243 386.324 218.872 386.324C218.499 386.324 218.347 386.363 218.533 386.412ZM244.829 386.412C245.014 386.461 245.319 386.461 245.505 386.412C245.691 386.363 245.539 386.324 245.166 386.324C244.794 386.324 244.642 386.363 244.829 386.412ZM224.626 386.802C224.866 386.848 225.214 386.847 225.399 386.798C225.584 386.75 225.387 386.713 224.962 386.714C224.536 386.716 224.386 386.755 224.626 386.802ZM238.74 386.802C238.981 386.848 239.329 386.847 239.513 386.798C239.699 386.75 239.501 386.713 239.076 386.714C238.651 386.716 238.499 386.755 238.74 386.802ZM230.81 387.001C231.475 387.04 232.563 387.04 233.228 387.001C233.892 386.964 233.348 386.933 232.019 386.933C230.689 386.933 230.145 386.964 230.81 387.001Z" fill="#D5CDB7"/>
</svg>
