<svg width="114" height="221" viewBox="0 0 114 221" fill="none" xmlns="http://www.w3.org/2000/svg">
<mask id="path-1-outside-1" maskUnits="userSpaceOnUse" x="0" y="0" width="114" height="221" fill="black">
<rect fill="white" width="114" height="221"/>
<path d="M88.4801 136.124C88.4801 177.963 70.8638 188.573 34.8304 206.189C39.4347 209.192 45.6404 212.995 56.2502 218C83.8758 204.988 110.5 187.772 110.5 142.13V45.4402H88.4801V136.124ZM67.4606 45.4402H2V64.658H45.4402V126.115C45.4402 154.141 43.6386 156.743 7.20482 173.158C9.80723 179.564 13.4106 185.77 18.215 191.576C59.4532 173.158 67.4606 163.75 67.4606 131.92V45.4402ZM10.608 2V19.0158C10.608 23.4198 8.00556 26.4226 2.80074 26.4226H2V22.8193H2.60056C5.00278 22.8193 6.40408 21.6182 6.40408 19.0158V5.60334H2.60056V2H10.608ZM18.0148 22.8193H21.8184V2H25.8221V22.4189C25.8221 25.0213 24.4208 26.2224 21.8184 26.2224H18.0148C15.4124 26.2224 14.0111 24.8211 14.0111 22.4189V2H18.0148V22.8193ZM36.8323 17.0139V2.20019H40.836V17.2141C40.836 24.0204 37.2326 26.4226 31.0269 26.4226H29.025V2H33.0287V22.2187H33.2289C35.8313 22.4189 36.8323 20.0167 36.8323 17.0139V17.0139ZM48.2428 5.80352V12.2095H52.8471L52.0463 15.6126H48.0426V22.6191H54.0482L53.4476 26.2224H44.2391V2H53.2475L53.848 5.60334H48.2428V5.80352ZM64.4578 2H68.2614V26.2224H64.4578V18.0148L60.6543 9.60704H60.4541V26.2224H56.6506V2H60.4541L64.2577 11.2085H64.4578V2ZM82.2743 5.80352H78.4708V26.4226H74.4671V5.80352H70.6636L71.2641 2.20019H81.6738L82.2743 5.80352ZM88.2799 22.8193H92.0834V2.20019H96.0871V22.6191C96.0871 25.2215 94.6858 26.4226 92.0834 26.4226H88.2799C85.6775 26.4226 84.2762 25.0213 84.2762 22.6191V2.20019H88.2799V22.8193ZM99.0899 18.4152H103.094V23.2196H106.697V19.8165C106.697 18.215 106.297 17.4143 105.095 16.6135L101.292 14.2113C99.8906 13.2104 99.2901 11.6089 99.2901 10.4078V6.00371C99.2901 3.4013 100.892 2.20019 103.094 2.20019H106.897C109.5 2.20019 110.701 3.60148 110.701 6.00371V9.00649L106.897 10.0074V5.20297H103.494V8.8063C103.494 10.0074 103.894 10.8082 105.095 11.6089L108.699 13.8109C110.3 14.8119 111.101 16.2132 111.101 18.215V22.8193C111.101 25.4217 109.5 26.4226 107.298 26.4226H103.694C101.092 26.4226 99.6905 25.4217 99.6905 22.8193V18.4152H99.0899Z"/>
</mask>
<path d="M88.4801 136.124C88.4801 177.963 70.8638 188.573 34.8304 206.189C39.4347 209.192 45.6404 212.995 56.2502 218C83.8758 204.988 110.5 187.772 110.5 142.13V45.4402H88.4801V136.124ZM67.4606 45.4402H2V64.658H45.4402V126.115C45.4402 154.141 43.6386 156.743 7.20482 173.158C9.80723 179.564 13.4106 185.77 18.215 191.576C59.4532 173.158 67.4606 163.75 67.4606 131.92V45.4402ZM10.608 2V19.0158C10.608 23.4198 8.00556 26.4226 2.80074 26.4226H2V22.8193H2.60056C5.00278 22.8193 6.40408 21.6182 6.40408 19.0158V5.60334H2.60056V2H10.608ZM18.0148 22.8193H21.8184V2H25.8221V22.4189C25.8221 25.0213 24.4208 26.2224 21.8184 26.2224H18.0148C15.4124 26.2224 14.0111 24.8211 14.0111 22.4189V2H18.0148V22.8193ZM36.8323 17.0139V2.20019H40.836V17.2141C40.836 24.0204 37.2326 26.4226 31.0269 26.4226H29.025V2H33.0287V22.2187H33.2289C35.8313 22.4189 36.8323 20.0167 36.8323 17.0139V17.0139ZM48.2428 5.80352V12.2095H52.8471L52.0463 15.6126H48.0426V22.6191H54.0482L53.4476 26.2224H44.2391V2H53.2475L53.848 5.60334H48.2428V5.80352ZM64.4578 2H68.2614V26.2224H64.4578V18.0148L60.6543 9.60704H60.4541V26.2224H56.6506V2H60.4541L64.2577 11.2085H64.4578V2ZM82.2743 5.80352H78.4708V26.4226H74.4671V5.80352H70.6636L71.2641 2.20019H81.6738L82.2743 5.80352ZM88.2799 22.8193H92.0834V2.20019H96.0871V22.6191C96.0871 25.2215 94.6858 26.4226 92.0834 26.4226H88.2799C85.6775 26.4226 84.2762 25.0213 84.2762 22.6191V2.20019H88.2799V22.8193ZM99.0899 18.4152H103.094V23.2196H106.697V19.8165C106.697 18.215 106.297 17.4143 105.095 16.6135L101.292 14.2113C99.8906 13.2104 99.2901 11.6089 99.2901 10.4078V6.00371C99.2901 3.4013 100.892 2.20019 103.094 2.20019H106.897C109.5 2.20019 110.701 3.60148 110.701 6.00371V9.00649L106.897 10.0074V5.20297H103.494V8.8063C103.494 10.0074 103.894 10.8082 105.095 11.6089L108.699 13.8109C110.3 14.8119 111.101 16.2132 111.101 18.215V22.8193C111.101 25.4217 109.5 26.4226 107.298 26.4226H103.694C101.092 26.4226 99.6905 25.4217 99.6905 22.8193V18.4152H99.0899Z" fill="white"/>
<path d="M88.4801 136.124C88.4801 177.963 70.8638 188.573 34.8304 206.189C39.4347 209.192 45.6404 212.995 56.2502 218C83.8758 204.988 110.5 187.772 110.5 142.13V45.4402H88.4801V136.124ZM67.4606 45.4402H2V64.658H45.4402V126.115C45.4402 154.141 43.6386 156.743 7.20482 173.158C9.80723 179.564 13.4106 185.77 18.215 191.576C59.4532 173.158 67.4606 163.75 67.4606 131.92V45.4402ZM10.608 2V19.0158C10.608 23.4198 8.00556 26.4226 2.80074 26.4226H2V22.8193H2.60056C5.00278 22.8193 6.40408 21.6182 6.40408 19.0158V5.60334H2.60056V2H10.608ZM18.0148 22.8193H21.8184V2H25.8221V22.4189C25.8221 25.0213 24.4208 26.2224 21.8184 26.2224H18.0148C15.4124 26.2224 14.0111 24.8211 14.0111 22.4189V2H18.0148V22.8193ZM36.8323 17.0139V2.20019H40.836V17.2141C40.836 24.0204 37.2326 26.4226 31.0269 26.4226H29.025V2H33.0287V22.2187H33.2289C35.8313 22.4189 36.8323 20.0167 36.8323 17.0139V17.0139ZM48.2428 5.80352V12.2095H52.8471L52.0463 15.6126H48.0426V22.6191H54.0482L53.4476 26.2224H44.2391V2H53.2475L53.848 5.60334H48.2428V5.80352ZM64.4578 2H68.2614V26.2224H64.4578V18.0148L60.6543 9.60704H60.4541V26.2224H56.6506V2H60.4541L64.2577 11.2085H64.4578V2ZM82.2743 5.80352H78.4708V26.4226H74.4671V5.80352H70.6636L71.2641 2.20019H81.6738L82.2743 5.80352ZM88.2799 22.8193H92.0834V2.20019H96.0871V22.6191C96.0871 25.2215 94.6858 26.4226 92.0834 26.4226H88.2799C85.6775 26.4226 84.2762 25.0213 84.2762 22.6191V2.20019H88.2799V22.8193ZM99.0899 18.4152H103.094V23.2196H106.697V19.8165C106.697 18.215 106.297 17.4143 105.095 16.6135L101.292 14.2113C99.8906 13.2104 99.2901 11.6089 99.2901 10.4078V6.00371C99.2901 3.4013 100.892 2.20019 103.094 2.20019H106.897C109.5 2.20019 110.701 3.60148 110.701 6.00371V9.00649L106.897 10.0074V5.20297H103.494V8.8063C103.494 10.0074 103.894 10.8082 105.095 11.6089L108.699 13.8109C110.3 14.8119 111.101 16.2132 111.101 18.215V22.8193C111.101 25.4217 109.5 26.4226 107.298 26.4226H103.694C101.092 26.4226 99.6905 25.4217 99.6905 22.8193V18.4152H99.0899Z" stroke="black" stroke-width="4" mask="url(#path-1-outside-1)"/>
</svg>
