<svg width="231" height="457" viewBox="0 0 231 457" fill="none" xmlns="http://www.w3.org/2000/svg">
<path d="M182.969 283.772C182.969 372.292 145.698 394.74 69.4606 432.011C79.202 438.364 92.3318 446.411 114.779 457C173.228 429.47 229.559 393.045 229.559 296.478V91.9082H182.969V283.772ZM138.498 91.9082H0V132.568H91.9083V262.595C91.9083 321.891 88.0964 327.397 11.0121 362.127C16.5181 375.68 24.1418 388.81 34.3068 401.093C121.556 362.127 138.498 342.221 138.498 274.878V91.9082ZM18.2122 0V36.0009C18.2122 45.3188 12.7062 51.6719 1.69416 51.6719H0V44.0482H1.27062C6.35311 44.0482 9.31789 41.507 9.31789 36.0009V7.62373H1.27062V0H18.2122ZM33.8832 44.0482H41.9305V0H50.4013V43.2011C50.4013 48.7071 47.4365 51.2484 41.9305 51.2484H33.8832C28.3772 51.2484 25.4124 48.2836 25.4124 43.2011V0H33.8832V44.0482ZM73.696 31.7655V0.423542H82.1668V32.1891C82.1668 46.5894 74.5431 51.6719 61.4134 51.6719H57.1779V0H65.6488V42.7776H66.0723C71.5783 43.2011 73.696 38.1186 73.696 31.7655V31.7655ZM97.8378 8.04727V21.6006H107.579L105.885 28.8007H97.4143V43.6247H110.121L108.85 51.2484H89.367V0H108.426L109.697 7.62373H97.8378V8.04727ZM132.145 0H140.192V51.2484H132.145V33.8832L124.097 16.0945H123.674V51.2484H115.627V0H123.674L131.721 19.4829H132.145V0ZM169.84 8.04727H161.792V51.6719H153.322V8.04727H145.274L146.545 0.423542H168.569L169.84 8.04727ZM182.546 44.0482H190.593V0.423542H199.064V43.6247C199.064 49.1307 196.099 51.6719 190.593 51.6719H182.546C177.04 51.6719 174.075 48.7071 174.075 43.6247V0.423542H182.546V44.0482ZM205.417 34.7303H213.888V44.8953H221.512V37.6951C221.512 34.3068 220.665 32.6126 218.123 30.9184L210.076 25.836C207.111 23.7183 205.841 20.3299 205.841 17.7887V8.47081C205.841 2.96478 209.229 0.423542 213.888 0.423542H221.935C227.441 0.423542 229.982 3.38832 229.982 8.47081V14.8239L221.935 16.9416V6.77665H214.735V14.4004C214.735 16.9416 215.582 18.6358 218.123 20.3299L225.747 24.9889C229.135 27.1066 230.829 30.0714 230.829 34.3068V44.0482C230.829 49.5542 227.441 51.6719 222.782 51.6719H215.159C209.652 51.6719 206.688 49.5542 206.688 44.0482V34.7303H205.417Z" fill="black"/>
</svg>
