<svg width="110" height="216" viewBox="0 0 110 216" fill="none" xmlns="http://www.w3.org/2000/svg">
<path d="M86.4801 134.124C86.4801 175.963 68.8638 186.573 32.8304 204.189C37.4347 207.192 43.6404 210.995 54.2502 216C81.8758 202.988 108.5 185.772 108.5 140.13V43.4402H86.4801V134.124ZM65.4606 43.4402H0V62.658H43.4402V124.115C43.4402 152.141 41.6386 154.743 5.20482 171.158C7.80723 177.564 11.4106 183.77 16.215 189.576C57.4532 171.158 65.4606 161.75 65.4606 129.92V43.4402ZM8.60797 0V17.0158C8.60797 21.4198 6.00556 24.4226 0.800743 24.4226H0V20.8193H0.600556C3.00278 20.8193 4.40408 19.6182 4.40408 17.0158V3.60334H0.600556V0H8.60797ZM16.0148 20.8193H19.8184V0H23.8221V20.4189C23.8221 23.0213 22.4208 24.2224 19.8184 24.2224H16.0148C13.4124 24.2224 12.0111 22.8211 12.0111 20.4189V0H16.0148V20.8193ZM34.8323 15.0139V0.200186H38.836V15.2141C38.836 22.0204 35.2326 24.4226 29.0269 24.4226H27.025V0H31.0287V20.2187H31.2289C33.8313 20.4189 34.8323 18.0167 34.8323 15.0139V15.0139ZM46.2428 3.80352V10.2095H50.8471L50.0463 13.6126H46.0426V20.6191H52.0482L51.4476 24.2224H42.2391V0H51.2475L51.848 3.60334H46.2428V3.80352ZM62.4578 0H66.2614V24.2224H62.4578V16.0148L58.6543 7.60704H58.4541V24.2224H54.6506V0H58.4541L62.2577 9.20853H62.4578V0ZM80.2743 3.80352H76.4708V24.4226H72.4671V3.80352H68.6636L69.2641 0.200186H79.6738L80.2743 3.80352ZM86.2799 20.8193H90.0834V0.200186H94.0871V20.6191C94.0871 23.2215 92.6858 24.4226 90.0834 24.4226H86.2799C83.6775 24.4226 82.2762 23.0213 82.2762 20.6191V0.200186H86.2799V20.8193ZM97.0899 16.4152H101.094V21.2196H104.697V17.8165C104.697 16.215 104.297 15.4143 103.095 14.6135L99.2919 12.2113C97.8906 11.2104 97.2901 9.6089 97.2901 8.40778V4.00371C97.2901 1.4013 98.8916 0.200186 101.094 0.200186H104.897C107.5 0.200186 108.701 1.60148 108.701 4.00371V7.00649L104.897 8.00741V3.20297H101.494V6.8063C101.494 8.00742 101.894 8.80816 103.095 9.6089L106.699 11.8109C108.3 12.8119 109.101 14.2132 109.101 16.215V20.8193C109.101 23.4217 107.5 24.4226 105.298 24.4226H101.694C99.0918 24.4226 97.6905 23.4217 97.6905 20.8193V16.4152H97.0899Z" fill="white"/>
</svg>
