<svg width="332" height="482" viewBox="0 0 332 482" fill="none" xmlns="http://www.w3.org/2000/svg">
<path d="M0 240.996C0.0873209 108.622 73.2273 0.36264 165.997 -3.05176e-05C258.79 0.36264 331.901 108.622 332 240.996C331.901 373.332 258.79 481.597 165.997 481.965C73.2273 481.597 0.0873209 373.332 0 240.996Z" fill="black"/>
<path d="M22.6392 240.996C22.709 119.833 85.8653 20.7553 165.997 20.4348C246.14 20.7553 309.29 119.833 309.36 240.996C309.29 362.127 246.14 461.194 165.997 461.531C85.8653 461.194 22.709 362.127 22.6392 240.996Z" fill="white"/>
<path d="M137.656 399.944C134.239 399.381 129.879 400.58 129.07 404.858C128.319 408.647 131.171 411.685 135.473 412.374C140.357 413.152 143.361 410.03 143.885 407.302C144.438 404.506 142.889 400.769 137.656 399.944ZM146.144 390.157C146.726 387.151 144.246 384.807 141.225 384.313C136.987 383.635 134.024 385.238 133.453 388.129C133.016 390.462 134.961 393.427 139.007 394.063C142.691 394.662 145.585 392.996 146.144 390.157ZM134.181 418.592C121.892 416.631 118.94 409.32 119.988 403.912C120.378 401.931 121.391 396.675 129.174 395.072C125.722 392.917 124.197 390.084 124.907 386.405C126.217 379.662 133.494 376.66 141.824 377.99C151.697 379.588 156.005 385.27 154.94 390.72C154.293 394.11 152.058 396.748 147.902 397.784C152.11 400.433 154.177 403.35 153.182 408.453C152.215 413.462 146.819 420.636 134.181 418.592Z" fill="black"/>
<path d="M221.605 392.31C224.766 391.337 227.555 388.42 225.866 383.942C224.225 379.664 220.976 377.73 216.296 379.17C214.014 379.869 209.386 382.381 211.429 387.774C213.577 393.424 218.188 393.382 221.605 392.31ZM217.187 404.319L217.192 404.361C219.311 406.648 222.536 407.436 226.023 405.875C229.58 404.251 232.52 400.956 229.598 393.04L229.423 392.956C228.311 396.168 225.011 397.886 221.914 398.843C213.147 401.55 205.98 397.671 203.588 391.395C200.095 382.155 205.113 375.833 214.084 373.042C229.947 368.143 235.536 382.113 237.538 387.396C243.057 401.938 236.473 409.255 228.207 411.814C221.134 414.011 214.695 412.592 211.29 408.014L217.187 404.319Z" fill="black"/>
<path d="M109.506 370.424C108.884 372.096 103.365 376.253 96.4782 374.124L95.1858 373.72L93.3696 378.45L93.4103 378.46L92.5371 380.773L94.2661 381.309C98.9057 382.775 102.067 382.775 104.192 382.055L94.6503 407.304L103.732 410.122L117.779 372.958L109.506 370.424Z" fill="black"/>
<path d="M180.052 399.775C183.376 399.528 186.869 397.295 186.426 392.622C186.019 388.097 183.376 385.506 178.492 385.858C176.053 386.042 170.901 387.419 171.419 393.111C171.966 399.081 176.454 400.038 180.052 399.775ZM172.513 410.434V410.508C173.939 413.151 176.839 414.628 180.669 413.887C184.523 413.125 188.289 410.592 187.596 402.251L187.451 402.156C185.518 404.968 181.845 405.93 178.591 406.177C169.352 406.886 163.449 401.536 162.821 394.908C161.93 385.18 168.531 380.171 177.968 379.456C194.681 378.179 196.334 392.937 196.841 398.535C198.232 413.877 189.873 419.474 181.17 420.136C173.712 420.714 167.85 417.897 165.795 412.71L172.513 410.434Z" fill="black"/>
<path d="M185.276 85.2022C181.102 89.286 175.141 91.8508 168.499 91.8508C155.924 91.8508 145.708 82.6268 145.708 71.2585C145.708 59.8796 155.924 50.6556 168.499 50.6556C175.141 50.6556 181.102 53.2309 185.276 57.299L192.186 51.5543C186.3 45.7992 177.865 42.1832 168.499 42.1832C150.737 42.1832 136.312 55.1966 136.312 71.2585C136.312 87.315 150.737 100.328 168.499 100.328C177.889 100.328 186.364 96.7125 192.232 90.91L185.276 85.2022Z" fill="black"/>
<path d="M194.538 102.572L210.599 55.0905L218.272 59.7419L224.914 88.2601L232.878 70.4165L238.426 74.4267L256.123 128.394C252.391 125.708 248.491 123.19 244.48 120.846L234.258 89.5425L224.547 111.144C222.947 110.513 221.322 109.893 219.698 109.299L212.794 76.7919L203.486 104.453C200.534 103.754 197.554 103.118 194.538 102.572Z" fill="black"/>
<path d="M116.346 67.8532L102.957 92.808L122.348 85.8387L116.346 67.8532ZM73.5527 130.103L110.036 61.7985L121.597 55.0921L137.408 102.584C134.451 103.12 131.482 103.74 128.565 104.444L125.014 93.7908L97.0305 103.85L88.0655 120.543C83.0125 123.455 78.1575 126.65 73.5527 130.103Z" fill="black"/>
<path d="M166.72 451.955L166.714 451.965H166.033L165.969 451.955C129.317 451.939 95.9315 428.503 71.7087 390.351C56.5207 366.442 45.0991 336.652 38.585 303.456C63.1396 344.2 110.997 371.871 166.004 371.871C221.004 371.871 268.85 344.21 293.417 303.456C286.897 336.636 275.504 366.442 260.316 390.351C236.216 428.293 203.098 451.676 166.72 451.955ZM165.928 29.9689V29.9794C165.98 29.9794 166.033 29.9689 166.097 29.9689C202.713 29.9794 236.076 53.4047 260.316 91.5883C275.539 115.55 286.943 145.408 293.452 178.677C275.143 148.267 243.871 125.147 206.311 115.324L205.839 115.145V115.229C193.166 111.96 179.841 110.105 166.004 110.105C110.945 110.105 63.0698 137.819 38.5093 178.635C45.0176 145.366 56.4683 115.539 71.7087 91.5883C95.9315 53.4309 129.3 29.9952 165.928 29.9689ZM256.393 259.612H300.082C295.21 288.372 279.375 313.826 256.393 332.316V259.612ZM299.424 218.338L256.398 218.359L256.369 149.649C278.287 167.283 293.807 191.207 299.424 218.338ZM173.49 218.338V118.75C184.708 119.302 195.501 121.2 205.834 124.059V125.126L205.816 218.338H173.49ZM205.839 259.628L205.805 356.719V357.933C195.489 360.771 184.696 362.69 173.49 363.241V259.586L205.839 259.628ZM165.998 18.4639C83.8929 18.8791 19.6829 118.892 19.5781 240.996C19.6829 363.099 83.8929 463.108 165.998 463.512C248.114 463.108 312.307 363.099 312.406 240.996C312.307 118.892 248.114 18.8791 165.998 18.4639Z" fill="black"/>
<path d="M173.491 253.12V224.801H212.96L212.989 126.144C226.174 130.527 238.312 136.734 249.204 144.371L249.239 224.827L300.484 224.801C301.259 230.115 301.806 235.486 301.806 240.994C301.806 245.11 301.573 249.151 301.136 253.151H249.233V337.597C238.329 345.244 226.163 351.467 212.96 355.861L212.995 253.167L173.491 253.12Z" fill="#C90C0F"/>
<path d="M148.181 119.597V362.396C139.443 361.355 130.955 359.589 122.823 357.129V124.864C130.955 122.383 139.443 120.622 148.181 119.597Z" fill="#C90C0F"/>
<path d="M97.4946 135.299V346.689C88.3201 341.822 79.8383 336.061 72.1948 329.45V152.538C79.8383 145.932 88.3201 140.155 97.4946 135.299Z" fill="#C90C0F"/>
<path d="M30.2568 240.995C30.2568 219.699 36.2878 199.674 46.8711 182.225V299.75C36.2878 282.301 30.2568 262.287 30.2568 240.995Z" fill="#C90C0F"/>
<path fill-rule="evenodd" clip-rule="evenodd" d="M312.408 240.996C312.309 363.099 248.116 463.107 165.999 463.512C83.8887 463.107 19.6845 363.099 19.5797 240.996C19.6845 118.892 83.8887 18.8789 165.999 18.4637C248.116 18.8789 312.309 118.892 312.408 240.996ZM5.36963 240.996C5.35799 175.534 23.5557 116.27 52.7966 73.5711C82.0782 30.8254 122.159 4.82999 165.999 4.85101C209.829 4.82999 249.909 30.8254 279.191 73.5711C308.437 116.27 326.629 175.534 326.612 240.996C326.629 306.441 308.437 365.69 279.191 408.378C249.909 451.119 209.829 477.125 165.999 477.104C122.159 477.125 82.0782 451.119 52.7966 408.378C23.5557 365.69 5.35799 306.441 5.36963 240.996Z" fill="#C90C0F"/>
</svg>
