<svg width="402" height="542" viewBox="0 0 402 542" fill="none" xmlns="http://www.w3.org/2000/svg">
<path d="M35 36H367V181H301.5H206.5H106.5H35V36Z" fill="#F0F2FF"/>
<path d="M77 191H119V437H77V191Z" fill="#EFBD72"/>
<path d="M325 191H367V368L325 404V191Z" fill="#EFBD72"/>
<path d="M160 191H201V463H160V191Z" fill="#EFBD72"/>
<path d="M242 191H283V463H242V191Z" fill="#EFBD72"/>
<path d="M35 191H77V402L35 344V191Z" fill="#869DC9"/>
<path d="M119 191H160V454H119V191Z" fill="#869DC9"/>
<path d="M201 191H242V463H201V191Z" fill="#869DC9"/>
<path d="M283 191H325V439H283V191Z" fill="#869DC9"/>
<path d="M200.996 456.798C109.52 456.798 35.102 381.65 35.102 289.276V35.4616H366.907V289.276C366.907 381.65 292.481 456.798 200.996 456.798ZM19.4716 289.276C19.4716 390.348 100.915 472.6 200.996 472.6C301.103 472.6 382.529 390.348 382.529 289.276V19.6598H19.4716V289.276V289.276Z" fill="#2857AF"/>
<path d="M382.532 289.27C382.532 390.341 301.098 472.592 200.999 472.592C100.909 472.592 19.475 390.341 19.475 289.27V19.658H382.532V289.27ZM394.499 7.5918H7.5083V289.27C7.5083 397.024 94.3006 484.667 200.999 484.667C307.698 484.667 394.499 397.024 394.499 289.27V7.5918Z" fill="#F3B75C"/>
<path d="M61 123.763V166.665H74.5989H88.1979V150.739V134.813H98.7533C110.669 134.813 115.461 133.968 121.353 130.783C130.678 125.778 135.406 114.857 133.592 102.572C132.233 93.2765 128.218 87.2312 121.159 83.9811C115.137 81.121 112.287 80.861 85.9314 80.861H61V123.763ZM101.408 99.1267C104.581 100.037 106.654 102.117 107.69 105.432C108.337 107.707 108.273 108.552 107.366 111.022C105.617 115.572 103.027 116.873 94.8678 117.133L88.1979 117.393V107.902V98.4117H93.5727C96.4868 98.4117 99.9836 98.7367 101.408 99.1267Z" fill="#333540"/>
<path d="M165.084 123.73L165.265 166.665H186.315C209.17 166.665 213.2 166.208 220.117 162.75C226.612 159.552 233.649 150.483 235.935 142.326C238.461 133.387 238.641 117.27 236.235 107.287C233.95 97.5649 227.454 88.2994 220.297 84.5802C214.042 81.2524 210.554 80.8609 186.736 80.8609H164.964L165.084 123.73ZM205.502 102.328C209.231 104.351 211.516 108.135 212.538 114.073C213.501 119.946 212.959 135.149 211.696 138.281C210.373 141.478 208.449 144.023 206.344 145.197C204.239 146.372 194.495 147.546 191.608 147.024L189.623 146.633V123.469V100.305L196.119 100.566C201.352 100.762 203.096 101.088 205.502 102.328Z" fill="#333540"/>
<path d="M289.4 96.5916C286.853 105.302 281.201 124.478 276.872 139.298C272.493 154.054 268.928 166.275 268.928 166.405C268.928 166.535 273.715 166.665 279.52 166.665H290.163L290.775 163.87C291.131 162.374 291.895 159.189 292.455 156.719L293.474 152.364L305.237 152.494L317 152.689L318.732 159.709L320.412 166.665L331.208 166.535C338.032 166.405 341.953 166.08 341.902 165.69C341.801 164.78 317.408 82.226 317.051 81.511C316.848 81.121 312.112 80.861 305.39 80.861H294.034L289.4 96.5916ZM309.158 119.148L312.57 133.513H305.288H298.006L298.464 131.693C298.719 130.718 300.196 124.543 301.774 117.913C305.288 103.027 305.033 104.002 305.39 104.457C305.543 104.652 307.223 111.282 309.158 119.148Z" fill="#333540"/>
<path d="M78.182 49.7295C79.67 49.7295 80.958 49.9801 82.046 50.4815C83.15 50.9828 83.998 51.6944 84.59 52.6162C85.182 53.538 85.478 54.6296 85.478 55.8911C85.478 57.1363 85.182 58.228 84.59 59.1659C83.998 60.0878 83.15 60.7993 82.046 61.3007C80.958 61.7858 79.67 62.0284 78.182 62.0284H74.798V66.7103H70.91V49.7295H78.182ZM77.966 58.8263C79.134 58.8263 80.022 58.5757 80.63 58.0743C81.238 57.5568 81.542 56.8291 81.542 55.8911C81.542 54.9369 81.238 54.2092 80.63 53.7078C80.022 53.1903 79.134 52.9316 77.966 52.9316H74.798V58.8263H77.966Z" fill="#333540"/>
<path d="M101.262 63.5567V66.7103H88.2538V49.7295H100.95V52.883H92.1178V56.5703H99.9178V59.6269H92.1178V63.5567H101.262Z" fill="#333540"/>
<path d="M104.355 49.7295H108.243V63.5082H116.667V66.7103H104.355V49.7295Z" fill="#333540"/>
<path d="M130.044 63.0715H122.244L120.756 66.7103H116.772L124.26 49.7295H128.1L135.612 66.7103H131.532L130.044 63.0715ZM128.82 60.0878L126.156 53.5865L123.492 60.0878H128.82Z" fill="#333540"/>
<path d="M137.355 49.7295H144.987C146.811 49.7295 148.419 50.0853 149.811 50.7968C151.219 51.4922 152.307 52.4787 153.075 53.7563C153.859 55.034 154.251 56.5218 154.251 58.2199C154.251 59.918 153.859 61.4058 153.075 62.6834C152.307 63.961 151.219 64.9556 149.811 65.6672C148.419 66.3626 146.811 66.7103 144.987 66.7103H137.355V49.7295ZM144.795 63.4839C146.475 63.4839 147.811 63.0149 148.803 62.0769C149.811 61.1228 150.315 59.8371 150.315 58.2199C150.315 56.6027 149.811 55.3251 148.803 54.3871C147.811 53.4329 146.475 52.9558 144.795 52.9558H141.243V63.4839H144.795Z" fill="#333540"/>
<path d="M168.013 63.0715H160.213L158.725 66.7103H154.741L162.229 49.7295H166.069L173.581 66.7103H169.501L168.013 63.0715ZM166.789 60.0878L164.125 53.5865L161.461 60.0878H166.789Z" fill="#333540"/>
<path d="M182.121 49.7295H189.753C191.577 49.7295 193.185 50.0853 194.577 50.7968C195.985 51.4922 197.073 52.4787 197.841 53.7563C198.625 55.034 199.017 56.5218 199.017 58.2199C199.017 59.918 198.625 61.4058 197.841 62.6834C197.073 63.961 195.985 64.9556 194.577 65.6672C193.185 66.3626 191.577 66.7103 189.753 66.7103H182.121V49.7295ZM189.561 63.4839C191.241 63.4839 192.577 63.0149 193.569 62.0769C194.577 61.1228 195.081 59.8371 195.081 58.2199C195.081 56.6027 194.577 55.3251 193.569 54.3871C192.577 53.4329 191.241 52.9558 189.561 52.9558H186.009V63.4839H189.561Z" fill="#333540"/>
<path d="M210.085 67.0014C208.341 67.0014 206.765 66.6213 205.357 65.8612C203.965 65.1011 202.869 64.058 202.069 62.7319C201.285 61.3896 200.893 59.8856 200.893 58.2199C200.893 56.5541 201.285 55.0582 202.069 53.7321C202.869 52.3898 203.965 51.3386 205.357 50.5785C206.765 49.8184 208.341 49.4384 210.085 49.4384C211.829 49.4384 213.397 49.8184 214.789 50.5785C216.181 51.3386 217.277 52.3898 218.077 53.7321C218.877 55.0582 219.277 56.5541 219.277 58.2199C219.277 59.8856 218.877 61.3896 218.077 62.7319C217.277 64.058 216.181 65.1011 214.789 65.8612C213.397 66.6213 211.829 67.0014 210.085 67.0014ZM210.085 63.6537C211.077 63.6537 211.973 63.4273 212.773 62.9745C213.573 62.5055 214.197 61.8586 214.645 61.0338C215.109 60.2091 215.341 59.2711 215.341 58.2199C215.341 57.1687 215.109 56.2307 214.645 55.4059C214.197 54.5811 213.573 53.9423 212.773 53.4895C211.973 53.0205 211.077 52.786 210.085 52.786C209.093 52.786 208.197 53.0205 207.397 53.4895C206.597 53.9423 205.965 54.5811 205.501 55.4059C205.053 56.2307 204.829 57.1687 204.829 58.2199C204.829 59.2711 205.053 60.2091 205.501 61.0338C205.965 61.8586 206.597 62.5055 207.397 62.9745C208.197 63.4273 209.093 63.6537 210.085 63.6537Z" fill="#333540"/>
<path d="M240.06 63.0715H232.26L230.772 66.7103H226.788L234.276 49.7295H238.116L245.628 66.7103H241.548L240.06 63.0715ZM238.836 60.0878L236.172 53.5865L233.508 60.0878H238.836Z" fill="#333540"/>
<path d="M262.659 66.7103L262.635 56.5218L257.691 64.9152H255.939L251.019 56.7401V66.7103H247.371V49.7295H250.587L256.875 60.2818L263.067 49.7295H266.259L266.307 66.7103H262.659Z" fill="#333540"/>
<path d="M270.293 49.7295H274.181V66.7103H270.293V49.7295Z" fill="#333540"/>
<path d="M289.52 57.953H293.072V64.8424C292.16 65.5378 291.104 66.0715 289.904 66.4434C288.704 66.8154 287.496 67.0014 286.28 67.0014C284.536 67.0014 282.968 66.6294 281.576 65.8855C280.184 65.1254 279.088 64.0823 278.288 62.7562C277.504 61.4139 277.112 59.9018 277.112 58.2199C277.112 56.538 277.504 55.034 278.288 53.7078C279.088 52.3655 280.192 51.3224 281.6 50.5785C283.008 49.8184 284.592 49.4384 286.352 49.4384C287.824 49.4384 289.16 49.689 290.36 50.1904C291.56 50.6917 292.568 51.4195 293.384 52.3736L290.888 54.7024C289.688 53.4248 288.24 52.786 286.544 52.786C285.472 52.786 284.52 53.0124 283.688 53.4652C282.856 53.9181 282.208 54.5569 281.744 55.3817C281.28 56.2064 281.048 57.1525 281.048 58.2199C281.048 59.2711 281.28 60.2091 281.744 61.0338C282.208 61.8586 282.848 62.5055 283.664 62.9745C284.496 63.4273 285.44 63.6537 286.496 63.6537C287.616 63.6537 288.624 63.4111 289.52 62.926V57.953Z" fill="#333540"/>
<path d="M307.747 63.0715H299.947L298.459 66.7103H294.475L301.963 49.7295H305.803L313.315 66.7103H309.235L307.747 63.0715ZM306.523 60.0878L303.859 53.5865L301.195 60.0878H306.523ZM305.683 48.4195C305.251 48.4195 304.867 48.3387 304.531 48.1769C304.211 47.999 303.851 47.7646 303.451 47.4735C303.195 47.2794 302.979 47.1338 302.803 47.0368C302.643 46.9398 302.483 46.8913 302.323 46.8913C301.987 46.8913 301.715 47.0125 301.507 47.2551C301.299 47.4815 301.187 47.8131 301.171 48.2497H299.275C299.307 47.1662 299.571 46.3091 300.067 45.6783C300.579 45.0315 301.251 44.708 302.083 44.708C302.499 44.708 302.867 44.797 303.187 44.9748C303.523 45.1366 303.899 45.3711 304.315 45.6783C304.571 45.8724 304.779 46.018 304.939 46.115C305.115 46.212 305.283 46.2605 305.443 46.2605C305.763 46.2605 306.027 46.1473 306.235 45.9209C306.459 45.6783 306.579 45.3549 306.595 44.9506H308.491C308.459 46.0018 308.187 46.8427 307.675 47.4735C307.179 48.1042 306.515 48.4195 305.683 48.4195Z" fill="#333540"/>
<path d="M322.96 67.0014C321.216 67.0014 319.64 66.6213 318.232 65.8612C316.84 65.1011 315.744 64.058 314.944 62.7319C314.16 61.3896 313.768 59.8856 313.768 58.2199C313.768 56.5541 314.16 55.0582 314.944 53.7321C315.744 52.3898 316.84 51.3386 318.232 50.5785C319.64 49.8184 321.216 49.4384 322.96 49.4384C324.704 49.4384 326.272 49.8184 327.664 50.5785C329.056 51.3386 330.152 52.3898 330.952 53.7321C331.752 55.0582 332.152 56.5541 332.152 58.2199C332.152 59.8856 331.752 61.3896 330.952 62.7319C330.152 64.058 329.056 65.1011 327.664 65.8612C326.272 66.6213 324.704 67.0014 322.96 67.0014ZM322.96 63.6537C323.952 63.6537 324.848 63.4273 325.648 62.9745C326.448 62.5055 327.072 61.8586 327.52 61.0338C327.984 60.2091 328.216 59.2711 328.216 58.2199C328.216 57.1687 327.984 56.2307 327.52 55.4059C327.072 54.5811 326.448 53.9423 325.648 53.4895C324.848 53.0205 323.952 52.786 322.96 52.786C321.968 52.786 321.072 53.0205 320.272 53.4895C319.472 53.9423 318.84 54.5811 318.376 55.4059C317.928 56.2307 317.704 57.1687 317.704 58.2199C317.704 59.2711 317.928 60.2091 318.376 61.0338C318.84 61.8586 319.472 62.5055 320.272 62.9745C321.072 63.4273 321.968 63.6537 322.96 63.6537Z" fill="#333540"/>
<rect x="35" y="180.926" width="332" height="10.1076" fill="#2857AF"/>
<path d="M201.591 244.846C208.837 244.846 214.71 238.909 214.71 231.585C214.71 224.262 208.837 218.324 201.591 218.324C194.345 218.324 188.471 224.262 188.471 231.585C188.471 238.909 194.345 244.846 201.591 244.846Z" fill="#333540"/>
<path d="M243.44 309.788L248.423 316.976L215.871 339.993C214.768 340.773 213.502 341.285 212.172 341.491C210.842 341.697 209.483 341.59 208.2 341.18C206.916 340.769 205.744 340.066 204.773 339.124C203.802 338.182 203.058 337.027 202.6 335.748L200.584 330.221L211.914 310.373L215.087 319.146L231.345 307.638C233.232 306.305 235.565 305.783 237.832 306.186C240.099 306.589 242.116 307.885 243.44 309.788Z" fill="#333540"/>
<path d="M289 251.889L225.09 257.53C224.94 258.945 217.605 299.828 217.605 299.828C217.276 301.73 216.564 303.543 215.514 305.156C214.465 306.769 213.099 308.147 211.501 309.205L175.514 372.2C174.361 374.211 172.466 375.679 170.244 376.28C168.022 376.881 165.655 376.567 163.661 375.407L156.139 371.011L190.988 310.035L192.369 307.62L196.457 300.489C196.487 300.435 196.507 300.377 196.515 300.315C196.524 300.254 196.52 300.192 196.504 300.133C196.489 300.073 196.461 300.017 196.425 299.968C196.388 299.919 196.341 299.878 196.289 299.847C196.236 299.816 196.178 299.796 196.117 299.788C196.057 299.78 195.996 299.783 195.937 299.799C195.878 299.815 195.822 299.842 195.774 299.88C195.725 299.917 195.685 299.964 195.654 300.017L191.958 306.469L190.54 302.602C189.772 300.623 189.447 298.497 189.588 296.376C189.588 296.3 189.607 296.206 189.607 296.131L192.22 261.266C192.227 261.141 192.187 261.018 192.107 260.923C192.027 260.828 191.913 260.768 191.79 260.756C191.728 260.747 191.665 260.752 191.605 260.77C191.545 260.787 191.49 260.818 191.442 260.859C191.394 260.9 191.356 260.95 191.329 261.008C191.302 261.065 191.288 261.127 191.286 261.19L190.67 269.472L178.78 281.49C177.628 282.661 176.231 283.557 174.693 284.113L137.829 297.678C137.352 296.34 137.106 294.93 137.101 293.508C137.1 290.993 137.864 288.538 139.29 286.476C140.715 284.414 142.733 282.845 145.071 281.981L170.4 272.661L187.983 254.889C188.718 254.109 189.592 253.475 190.558 253.021C190.558 253.021 220.778 245.644 221.599 245.569C235.449 244.305 276.606 240.72 276.979 240.72C280.002 240.727 282.912 241.877 285.136 243.944C287.361 246.011 288.74 248.846 289 251.889Z" fill="#333540"/>
<path d="M147.12 369.453C154.366 369.453 160.239 363.516 160.239 356.192C160.239 348.869 154.366 342.932 147.12 342.932C139.874 342.932 134 348.869 134 356.192C134 363.516 139.874 369.453 147.12 369.453Z" fill="#333540"/>
<path d="M156.786 534.885V541.407H131.307V536.219L144.311 523.62C145.692 522.27 146.623 521.117 147.105 520.162C147.587 519.174 147.827 518.202 147.827 517.247C147.827 515.863 147.362 514.809 146.431 514.085C145.531 513.327 144.199 512.948 142.433 512.948C140.956 512.948 139.623 513.245 138.435 513.837C137.247 514.397 136.252 515.254 135.449 516.407L129.765 512.652C131.082 510.642 132.896 509.078 135.208 507.958C137.52 506.805 140.169 506.229 143.155 506.229C145.66 506.229 147.843 506.657 149.706 507.513C151.6 508.337 153.061 509.523 154.089 511.071C155.149 512.586 155.678 514.381 155.678 516.456C155.678 518.334 155.293 520.096 154.522 521.743C153.752 523.39 152.259 525.267 150.043 527.375L142.288 534.885H156.786Z" fill="#333540"/>
<path d="M181.276 542C178.482 542 175.994 541.292 173.81 539.875C171.627 538.459 169.909 536.417 168.656 533.749C167.436 531.048 166.826 527.836 166.826 524.114C166.826 520.392 167.436 517.197 168.656 514.529C169.909 511.828 171.627 509.77 173.81 508.353C175.994 506.937 178.482 506.229 181.276 506.229C184.069 506.229 186.558 506.937 188.741 508.353C190.925 509.77 192.627 511.828 193.847 514.529C195.099 517.197 195.725 520.392 195.725 524.114C195.725 527.836 195.099 531.048 193.847 533.749C192.627 536.417 190.925 538.459 188.741 539.875C186.558 541.292 184.069 542 181.276 542ZM181.276 535.231C183.331 535.231 184.936 534.325 186.092 532.514C187.28 530.702 187.874 527.902 187.874 524.114C187.874 520.326 187.28 517.527 186.092 515.715C184.936 513.903 183.331 512.998 181.276 512.998C179.253 512.998 177.647 513.903 176.459 515.715C175.303 517.527 174.725 520.326 174.725 524.114C174.725 527.902 175.303 530.702 176.459 532.514C177.647 534.325 179.253 535.231 181.276 535.231Z" fill="#333540"/>
<path d="M220.787 542C217.993 542 215.504 541.292 213.321 539.875C211.137 538.459 209.42 536.417 208.167 533.749C206.947 531.048 206.337 527.836 206.337 524.114C206.337 520.392 206.947 517.197 208.167 514.529C209.42 511.828 211.137 509.77 213.321 508.353C215.504 506.937 217.993 506.229 220.787 506.229C223.58 506.229 226.069 506.937 228.252 508.353C230.436 509.77 232.138 511.828 233.358 514.529C234.61 517.197 235.236 520.392 235.236 524.114C235.236 527.836 234.61 531.048 233.358 533.749C232.138 536.417 230.436 538.459 228.252 539.875C226.069 541.292 223.58 542 220.787 542ZM220.787 535.231C222.842 535.231 224.447 534.325 225.603 532.514C226.791 530.702 227.385 527.902 227.385 524.114C227.385 520.326 226.791 517.527 225.603 515.715C224.447 513.903 222.842 512.998 220.787 512.998C218.764 512.998 217.158 513.903 215.97 515.715C214.814 517.527 214.236 520.326 214.236 524.114C214.236 527.902 214.814 530.702 215.97 532.514C217.158 534.325 218.764 535.231 220.787 535.231Z" fill="#333540"/>
<path d="M257.407 519.816C262.16 519.816 265.66 520.788 267.908 522.731C270.187 524.674 271.327 527.276 271.327 530.537C271.327 532.645 270.814 534.572 269.786 536.318C268.759 538.031 267.185 539.414 265.066 540.468C262.979 541.489 260.394 542 257.311 542C254.935 542 252.591 541.687 250.279 541.061C247.999 540.402 246.056 539.48 244.451 538.294L247.534 532.168C248.818 533.156 250.295 533.93 251.965 534.49C253.635 535.017 255.352 535.281 257.118 535.281C259.077 535.281 260.619 534.885 261.742 534.095C262.866 533.304 263.428 532.201 263.428 530.784C263.428 529.302 262.834 528.182 261.646 527.425C260.49 526.667 258.467 526.288 255.577 526.288H246.956L248.69 506.822H269.256V513.245H255.192L254.662 519.816H257.407Z" fill="#333540"/>
</svg>
