<svg width="402" height="540" viewBox="0 0 402 540" fill="none" xmlns="http://www.w3.org/2000/svg">
<path d="M77 189H119V435H77V189Z" fill="#EFBD72"/>
<path d="M160 189H201V461H160V189Z" fill="#EFBD72"/>
<path d="M35 189H77V400L57 382L35 342V189Z" fill="#8CA4D6"/>
<path d="M119 189H160V452H119V189Z" fill="#8CA4D6"/>
<path d="M35 36.1893H367V372.731L301.5 439.338L206.5 469.386V188.5H35V36.1893Z" fill="#F0F2FF"/>
<path d="M200.996 456.589C109.52 456.589 35.1021 381.44 35.1021 289.066V35.2521H366.907V289.066C366.907 381.44 292.481 456.589 200.996 456.589ZM19.4717 289.066C19.4717 390.139 100.915 472.39 200.996 472.39C301.103 472.39 382.529 390.139 382.529 289.066V19.4503H19.4717V289.066V289.066Z" fill="#2857AF"/>
<path d="M382.532 289.192C382.532 390.264 301.098 472.516 200.999 472.516C100.909 472.516 19.475 390.264 19.475 289.192V19.5772H382.532V289.192ZM394.499 7.51086H7.5083V289.192C7.5083 396.947 94.3006 484.591 200.999 484.591C307.698 484.591 394.499 396.947 394.499 289.192V7.51086V7.51086Z" fill="#EFBD72"/>
<path d="M61 122.444V164.889H74.5989H88.1979V149.133V133.377H98.7532C110.669 133.377 115.461 132.541 121.353 129.39C130.678 124.438 135.406 113.634 133.592 101.479C132.233 92.2827 128.218 86.3018 121.159 83.0863C115.137 80.2567 112.287 79.9994 85.9314 79.9994H61V122.444ZM101.408 98.0706C104.581 98.9709 106.654 101.029 107.69 104.309C108.337 106.56 108.273 107.396 107.366 109.839C105.617 114.341 103.027 115.627 94.8678 115.885L88.1979 116.142V106.752V97.3632H93.5727C96.4868 97.3632 99.9836 97.6847 101.408 98.0706Z" fill="#333540"/>
<path d="M165.084 122.412L165.265 164.889H186.315C209.17 164.889 213.2 164.437 220.117 161.016C226.612 157.852 233.649 148.879 235.935 140.81C238.461 131.966 238.641 116.021 236.235 106.144C233.95 96.5255 227.454 87.3587 220.297 83.6791C214.042 80.3868 210.554 79.9994 186.736 79.9994H164.964L165.084 122.412ZM205.502 101.238C209.231 103.239 211.516 106.983 212.538 112.858C213.501 118.668 212.959 133.709 211.696 136.808C210.373 139.971 208.449 142.488 206.344 143.65C204.239 144.812 194.495 145.974 191.608 145.458L189.623 145.071V122.154V99.2367L196.119 99.495C201.352 99.6886 203.096 100.011 205.502 101.238Z" fill="#333540"/>
<path d="M289.4 95.5625C286.854 104.18 281.201 123.152 276.872 137.814C272.493 152.413 268.928 164.503 268.928 164.632C268.928 164.76 273.715 164.889 279.52 164.889H290.164L290.775 162.124C291.131 160.644 291.895 157.493 292.455 155.049L293.474 150.741L305.237 150.869L317.001 151.062L318.732 158.008L320.413 164.889L331.208 164.76C338.032 164.632 341.953 164.31 341.902 163.924C341.801 163.024 317.408 81.3499 317.052 80.6425C316.848 80.2567 312.112 79.9994 305.39 79.9994H294.034L289.4 95.5625ZM309.158 117.878L312.57 132.091H305.288H298.006L298.464 130.29C298.719 129.325 300.196 123.216 301.774 116.656C305.288 101.929 305.033 102.894 305.39 103.344C305.543 103.537 307.223 110.097 309.158 117.878Z" fill="#333540"/>
<path d="M78.182 49.1998C79.67 49.1998 80.958 49.4478 82.046 49.9438C83.15 50.4398 83.998 51.1438 84.59 52.0558C85.182 52.9678 85.478 54.0478 85.478 55.2958C85.478 56.5278 85.182 57.6078 84.59 58.5358C83.998 59.4478 83.15 60.1518 82.046 60.6478C80.958 61.1278 79.67 61.3678 78.182 61.3678H74.798V65.9998H70.91V49.1998H78.182ZM77.966 58.1998C79.134 58.1998 80.022 57.9518 80.63 57.4558C81.238 56.9438 81.542 56.2238 81.542 55.2958C81.542 54.3518 81.238 53.6318 80.63 53.1358C80.022 52.6238 79.134 52.3678 77.966 52.3678H74.798V58.1998H77.966ZM101.262 62.8798V65.9998H88.2537V49.1998H100.95V52.3198H92.1177V55.9678H99.9177V58.9918H92.1177V62.8798H101.262ZM104.355 49.1998H108.243V62.8318H116.667V65.9998H104.355V49.1998ZM130.044 62.3998H122.244L120.756 65.9998H116.772L124.26 49.1998H128.1L135.612 65.9998H131.532L130.044 62.3998ZM128.82 59.4478L126.156 53.0158L123.492 59.4478H128.82ZM137.355 49.1998H144.987C146.811 49.1998 148.419 49.5518 149.811 50.2558C151.219 50.9438 152.307 51.9198 153.075 53.1838C153.859 54.4478 154.251 55.9198 154.251 57.5998C154.251 59.2798 153.859 60.7518 153.075 62.0158C152.307 63.2798 151.219 64.2638 149.811 64.9678C148.419 65.6558 146.811 65.9998 144.987 65.9998H137.355V49.1998ZM144.795 62.8078C146.475 62.8078 147.811 62.3438 148.803 61.4158C149.811 60.4718 150.315 59.1998 150.315 57.5998C150.315 55.9998 149.811 54.7358 148.803 53.8078C147.811 52.8638 146.475 52.3918 144.795 52.3918H141.243V62.8078H144.795ZM168.013 62.3998H160.213L158.725 65.9998H154.741L162.229 49.1998H166.069L173.581 65.9998H169.501L168.013 62.3998ZM166.789 59.4478L164.125 53.0158L161.461 59.4478H166.789ZM182.121 49.1998H189.753C191.577 49.1998 193.185 49.5518 194.577 50.2558C195.985 50.9438 197.073 51.9198 197.841 53.1838C198.625 54.4478 199.017 55.9198 199.017 57.5998C199.017 59.2798 198.625 60.7518 197.841 62.0158C197.073 63.2798 195.985 64.2638 194.577 64.9678C193.185 65.6558 191.577 65.9998 189.753 65.9998H182.121V49.1998ZM189.561 62.8078C191.241 62.8078 192.577 62.3438 193.569 61.4158C194.577 60.4718 195.081 59.1998 195.081 57.5998C195.081 55.9998 194.577 54.7358 193.569 53.8078C192.577 52.8638 191.241 52.3918 189.561 52.3918H186.009V62.8078H189.561ZM210.085 66.2878C208.341 66.2878 206.765 65.9118 205.357 65.1598C203.965 64.4078 202.869 63.3758 202.069 62.0638C201.285 60.7358 200.893 59.2478 200.893 57.5998C200.893 55.9518 201.285 54.4718 202.069 53.1598C202.869 51.8318 203.965 50.7918 205.357 50.0398C206.765 49.2878 208.341 48.9118 210.085 48.9118C211.829 48.9118 213.397 49.2878 214.789 50.0398C216.181 50.7918 217.277 51.8318 218.077 53.1598C218.877 54.4718 219.277 55.9518 219.277 57.5998C219.277 59.2478 218.877 60.7358 218.077 62.0638C217.277 63.3758 216.181 64.4078 214.789 65.1598C213.397 65.9118 211.829 66.2878 210.085 66.2878ZM210.085 62.9758C211.077 62.9758 211.973 62.7518 212.773 62.3038C213.573 61.8398 214.197 61.1998 214.645 60.3838C215.109 59.5678 215.341 58.6398 215.341 57.5998C215.341 56.5598 215.109 55.6318 214.645 54.8158C214.197 53.9998 213.573 53.3678 212.773 52.9198C211.973 52.4558 211.077 52.2238 210.085 52.2238C209.093 52.2238 208.197 52.4558 207.397 52.9198C206.597 53.3678 205.965 53.9998 205.501 54.8158C205.053 55.6318 204.829 56.5598 204.829 57.5998C204.829 58.6398 205.053 59.5678 205.501 60.3838C205.965 61.1998 206.597 61.8398 207.397 62.3038C208.197 62.7518 209.093 62.9758 210.085 62.9758ZM240.06 62.3998H232.26L230.772 65.9998H226.788L234.276 49.1998H238.116L245.628 65.9998H241.548L240.06 62.3998ZM238.836 59.4478L236.172 53.0158L233.508 59.4478H238.836ZM262.659 65.9998L262.635 55.9198L257.691 64.2238H255.939L251.019 56.1358V65.9998H247.371V49.1998H250.587L256.875 59.6398L263.067 49.1998H266.259L266.307 65.9998H262.659ZM270.293 49.1998H274.181V65.9998H270.293V49.1998ZM289.52 57.3358H293.072V64.1518C292.16 64.8398 291.104 65.3678 289.904 65.7358C288.704 66.1038 287.496 66.2878 286.28 66.2878C284.536 66.2878 282.968 65.9198 281.576 65.1838C280.184 64.4318 279.088 63.3998 278.288 62.0878C277.504 60.7598 277.112 59.2638 277.112 57.5998C277.112 55.9358 277.504 54.4478 278.288 53.1358C279.088 51.8078 280.192 50.7758 281.6 50.0398C283.008 49.2878 284.592 48.9118 286.352 48.9118C287.824 48.9118 289.16 49.1598 290.36 49.6558C291.56 50.1518 292.568 50.8718 293.384 51.8158L290.888 54.1198C289.688 52.8558 288.24 52.2238 286.544 52.2238C285.472 52.2238 284.52 52.4478 283.688 52.8958C282.856 53.3438 282.208 53.9758 281.744 54.7918C281.28 55.6078 281.048 56.5438 281.048 57.5998C281.048 58.6398 281.28 59.5678 281.744 60.3838C282.208 61.1998 282.848 61.8398 283.664 62.3038C284.496 62.7518 285.44 62.9758 286.496 62.9758C287.616 62.9758 288.624 62.7358 289.52 62.2558V57.3358ZM307.747 62.3998H299.947L298.459 65.9998H294.475L301.963 49.1998H305.803L313.315 65.9998H309.235L307.747 62.3998ZM306.523 59.4478L303.859 53.0158L301.195 59.4478H306.523ZM305.683 47.9038C305.251 47.9038 304.867 47.8238 304.531 47.6638C304.211 47.4878 303.851 47.2558 303.451 46.9678C303.195 46.7758 302.979 46.6318 302.803 46.5358C302.643 46.4398 302.483 46.3918 302.323 46.3918C301.987 46.3918 301.715 46.5118 301.507 46.7518C301.299 46.9758 301.187 47.3038 301.171 47.7358H299.275C299.307 46.6638 299.571 45.8158 300.067 45.1918C300.579 44.5518 301.251 44.2318 302.083 44.2318C302.499 44.2318 302.867 44.3198 303.187 44.4958C303.523 44.6558 303.899 44.8878 304.315 45.1918C304.571 45.3838 304.779 45.5278 304.939 45.6238C305.115 45.7198 305.283 45.7678 305.443 45.7678C305.763 45.7678 306.027 45.6558 306.235 45.4318C306.459 45.1918 306.579 44.8718 306.595 44.4718H308.491C308.459 45.5118 308.187 46.3438 307.675 46.9678C307.179 47.5918 306.515 47.9038 305.683 47.9038ZM322.96 66.2878C321.216 66.2878 319.64 65.9118 318.232 65.1598C316.84 64.4078 315.744 63.3758 314.944 62.0638C314.16 60.7358 313.768 59.2478 313.768 57.5998C313.768 55.9518 314.16 54.4718 314.944 53.1598C315.744 51.8318 316.84 50.7918 318.232 50.0398C319.64 49.2878 321.216 48.9118 322.96 48.9118C324.704 48.9118 326.272 49.2878 327.664 50.0398C329.056 50.7918 330.152 51.8318 330.952 53.1598C331.752 54.4718 332.152 55.9518 332.152 57.5998C332.152 59.2478 331.752 60.7358 330.952 62.0638C330.152 63.3758 329.056 64.4078 327.664 65.1598C326.272 65.9118 324.704 66.2878 322.96 66.2878ZM322.96 62.9758C323.952 62.9758 324.848 62.7518 325.648 62.3038C326.448 61.8398 327.072 61.1998 327.52 60.3838C327.984 59.5678 328.216 58.6398 328.216 57.5998C328.216 56.5598 327.984 55.6318 327.52 54.8158C327.072 53.9998 326.448 53.3678 325.648 52.9198C324.848 52.4558 323.952 52.2238 322.96 52.2238C321.968 52.2238 321.072 52.4558 320.272 52.9198C319.472 53.3678 318.84 53.9998 318.376 54.8158C317.928 55.6318 317.704 56.5598 317.704 57.5998C317.704 58.6398 317.928 59.5678 318.376 60.3838C318.84 61.1998 319.472 61.8398 320.272 62.3038C321.072 62.7518 321.968 62.9758 322.96 62.9758Z" fill="#333540"/>
<rect x="35" y="178.999" width="332" height="9.99992" fill="#2857AF"/>
<path d="M280.05 261.698C286.594 261.698 291.9 256.393 291.9 249.848C291.9 243.304 286.594 237.998 280.05 237.998C273.505 237.998 268.2 243.304 268.2 249.848C268.2 256.393 273.505 261.698 280.05 261.698Z" fill="#333540"/>
<path d="M317.849 319.73L322.35 326.154L292.948 346.722C291.952 347.418 290.808 347.876 289.607 348.06C288.405 348.244 287.178 348.149 286.019 347.782C284.86 347.415 283.801 346.787 282.924 345.945C282.047 345.103 281.375 344.071 280.961 342.928L279.14 337.989L289.374 320.253L292.24 328.093L306.924 317.809C308.628 316.617 310.736 316.151 312.784 316.511C314.832 316.872 316.653 318.029 317.849 319.73Z" fill="#333540"/>
<path d="M359 267.991L301.274 273.032C301.14 274.297 294.514 310.83 294.514 310.83C294.217 312.53 293.574 314.15 292.626 315.591C291.678 317.032 290.444 318.264 289.001 319.209L256.497 375.501C255.455 377.299 253.743 378.61 251.736 379.147C249.729 379.685 247.591 379.404 245.791 378.367L238.997 374.439L270.473 319.951L271.72 317.793L275.412 311.42C275.44 311.373 275.458 311.32 275.466 311.265C275.473 311.211 275.469 311.155 275.455 311.102C275.441 311.049 275.417 310.999 275.383 310.955C275.35 310.911 275.308 310.875 275.261 310.847C275.213 310.819 275.161 310.801 275.106 310.794C275.051 310.787 274.996 310.79 274.943 310.804C274.89 310.818 274.84 310.843 274.796 310.876C274.752 310.909 274.715 310.951 274.688 310.999L271.349 316.764L270.068 313.308C269.375 311.54 269.081 309.64 269.208 307.745C269.208 307.678 269.225 307.593 269.225 307.526L271.586 276.37C271.592 276.259 271.556 276.149 271.484 276.065C271.411 275.98 271.309 275.926 271.198 275.915C271.142 275.907 271.085 275.911 271.031 275.927C270.976 275.943 270.926 275.97 270.883 276.007C270.84 276.043 270.805 276.089 270.781 276.14C270.757 276.191 270.744 276.246 270.743 276.303L270.186 283.704L259.447 294.443C258.406 295.489 257.144 296.29 255.755 296.787L222.458 308.908C222.028 307.713 221.805 306.453 221.801 305.182C221.8 302.935 222.49 300.741 223.778 298.898C225.066 297.056 226.888 295.654 228.999 294.882L251.877 286.553L267.758 270.672C268.423 269.975 269.212 269.409 270.085 269.003C270.085 269.003 297.38 262.411 298.122 262.344C310.631 261.214 347.806 258.011 348.143 258.011C350.872 258.017 353.501 259.045 355.51 260.892C357.52 262.739 358.765 265.272 359 267.991Z" fill="#333540"/>
<path d="M230.85 373.047C237.395 373.047 242.7 367.742 242.7 361.197C242.7 354.653 237.395 349.347 230.85 349.347C224.305 349.347 219 354.653 219 361.197C219 367.742 224.305 373.047 230.85 373.047Z" fill="#333540"/>
<rect x="196" y="189" width="10" height="269" fill="#2857AF"/>
<path d="M152.777 532.231V539.353H124.698V533.687L139.03 519.929C140.551 518.454 141.577 517.195 142.108 516.152C142.639 515.073 142.904 514.012 142.904 512.969C142.904 511.458 142.391 510.307 141.365 509.516C140.374 508.689 138.906 508.275 136.96 508.275C135.332 508.275 133.863 508.599 132.554 509.246C131.245 509.858 130.148 510.793 129.263 512.052L123 507.951C124.451 505.757 126.45 504.048 128.998 502.826C131.546 501.567 134.465 500.937 137.756 500.937C140.516 500.937 142.922 501.405 144.974 502.34C147.062 503.239 148.672 504.534 149.804 506.225C150.972 507.879 151.556 509.84 151.556 512.106C151.556 514.156 151.131 516.08 150.282 517.879C149.433 519.677 147.787 521.727 145.346 524.03L136.8 532.231H152.777Z" fill="#333540"/>
<path d="M179.764 540C176.686 540 173.943 539.227 171.537 537.68C169.131 536.133 167.238 533.903 165.858 530.99C164.513 528.04 163.841 524.533 163.841 520.469C163.841 516.404 164.513 512.915 165.858 510.001C167.238 507.052 169.131 504.804 171.537 503.257C173.943 501.71 176.686 500.937 179.764 500.937C182.843 500.937 185.585 501.71 187.991 503.257C190.397 504.804 192.273 507.052 193.617 510.001C194.997 512.915 195.687 516.404 195.687 520.469C195.687 524.533 194.997 528.04 193.617 530.99C192.273 533.903 190.397 536.133 187.991 537.68C185.585 539.227 182.843 540 179.764 540ZM179.764 532.608C182.029 532.608 183.798 531.619 185.072 529.641C186.381 527.662 187.036 524.605 187.036 520.469C187.036 516.332 186.381 513.275 185.072 511.296C183.798 509.318 182.029 508.329 179.764 508.329C177.535 508.329 175.765 509.318 174.456 511.296C173.182 513.275 172.545 516.332 172.545 520.469C172.545 524.605 173.182 527.662 174.456 529.641C175.765 531.619 177.535 532.608 179.764 532.608Z" fill="#333540"/>
<path d="M223.305 540C220.226 540 217.484 539.227 215.077 537.68C212.671 536.133 210.778 533.903 209.398 530.99C208.053 528.04 207.381 524.533 207.381 520.469C207.381 516.404 208.053 512.915 209.398 510.001C210.778 507.052 212.671 504.804 215.077 503.257C217.484 501.71 220.226 500.937 223.305 500.937C226.383 500.937 229.125 501.71 231.532 503.257C233.938 504.804 235.813 507.052 237.158 510.001C238.538 512.915 239.228 516.404 239.228 520.469C239.228 524.533 238.538 528.04 237.158 530.99C235.813 533.903 233.938 536.133 231.532 537.68C229.125 539.227 226.383 540 223.305 540ZM223.305 532.608C225.569 532.608 227.339 531.619 228.612 529.641C229.922 527.662 230.576 524.605 230.576 520.469C230.576 516.332 229.922 513.275 228.612 511.296C227.339 509.318 225.569 508.329 223.305 508.329C221.075 508.329 219.306 509.318 217.997 511.296C216.723 513.275 216.086 516.332 216.086 520.469C216.086 524.605 216.723 527.662 217.997 529.641C219.306 531.619 221.075 532.608 223.305 532.608Z" fill="#333540"/>
<path d="M263.66 515.775C268.897 515.775 272.754 516.836 275.231 518.958C277.744 521.08 279 523.922 279 527.483C279 529.785 278.434 531.889 277.302 533.795C276.169 535.666 274.435 537.176 272.1 538.327C269.8 539.442 266.951 540 263.554 540C260.936 540 258.353 539.658 255.805 538.975C253.293 538.255 251.152 537.248 249.382 535.953L252.779 529.263C254.195 530.342 255.823 531.187 257.663 531.799C259.503 532.374 261.396 532.662 263.342 532.662C265.5 532.662 267.199 532.231 268.437 531.367C269.676 530.504 270.295 529.299 270.295 527.752C270.295 526.134 269.641 524.911 268.331 524.083C267.057 523.256 264.828 522.843 261.643 522.843H252.143L254.053 501.585H276.718V508.599H261.219L260.635 515.775H263.66Z" fill="#333540"/>
</svg>
