<svg width="402" height="540" viewBox="0 0 402 540" fill="none" xmlns="http://www.w3.org/2000/svg">
<path d="M77 189H119V435H77V189Z" fill="#3A3636"/>
<path d="M325 189H367V366L325 402V189Z" fill="#3A3636"/>
<path d="M160 189H201V461H160V189Z" fill="#3A3636"/>
<path d="M242 189H283V461H242V189Z" fill="#3A3636"/>
<path d="M35 189H77V400L35 342V189Z" fill="#FFDC42"/>
<path d="M119 189H160V452H119V189Z" fill="#FFDC42"/>
<path d="M201 189H242V461H201V189Z" fill="#FFDC42"/>
<path d="M283 189H325V437H283V189Z" fill="#FFDC42"/>
<path d="M36 36H368V178.387H302.5H207.5H107.5H36V36Z" fill="#F0F2FF"/>
<path d="M382.532 289.192C382.532 390.264 301.098 472.516 200.999 472.516C100.909 472.516 19.475 390.264 19.475 289.192V19.5772H382.532V289.192ZM394.499 7.51086H7.5083V289.192C7.5083 396.947 94.3006 484.591 200.999 484.591C307.698 484.591 394.499 396.947 394.499 289.192V7.51086V7.51086Z" fill="#D7CEAA"/>
<path d="M61 122.445V164.89H74.5989H88.1979V149.134V133.378H98.7532C110.669 133.378 115.461 132.542 121.353 129.391C130.678 124.439 135.406 113.634 133.592 101.48C132.233 92.2833 128.218 86.3024 121.159 83.0869C115.137 80.2572 112.287 80 85.9314 80H61V122.445ZM101.408 98.0713C104.581 98.9716 106.654 101.03 107.69 104.309C108.337 106.56 108.273 107.396 107.366 109.84C105.617 114.342 103.027 115.628 94.8678 115.885L88.1979 116.143V106.753V97.3639H93.5727C96.4868 97.3639 99.9836 97.6854 101.408 98.0713Z" fill="#333540"/>
<path d="M165.084 122.413L165.265 164.89H186.315C209.17 164.89 213.2 164.438 220.117 161.017C226.612 157.854 233.649 148.88 235.935 140.811C238.461 131.967 238.641 116.022 236.235 106.145C233.95 96.5261 227.454 87.3593 220.297 83.6796C214.042 80.3873 210.554 80 186.736 80H164.964L165.084 122.413ZM205.502 101.239C209.231 103.24 211.516 106.984 212.538 112.859C213.501 118.669 212.959 133.71 211.696 136.809C210.373 139.972 208.449 142.489 206.344 143.651C204.239 144.813 194.495 145.975 191.608 145.459L189.623 145.072V122.155V99.2374L196.119 99.4957C201.352 99.6893 203.096 100.012 205.502 101.239Z" fill="#333540"/>
<path d="M289.4 95.5632C286.854 104.181 281.201 123.152 276.872 137.815C272.493 152.414 268.928 164.504 268.928 164.633C268.928 164.762 273.715 164.89 279.52 164.89H290.164L290.775 162.125C291.131 160.646 291.895 157.494 292.455 155.051L293.474 150.742L305.237 150.87L317.001 151.063L318.732 158.009L320.413 164.89L331.208 164.762C338.032 164.633 341.953 164.311 341.902 163.925C341.801 163.025 317.408 81.3505 317.052 80.6431C316.848 80.2572 312.112 80 305.39 80H294.034L289.4 95.5632ZM309.158 117.879L312.57 132.092H305.288H298.006L298.464 130.291C298.719 129.326 300.196 123.217 301.774 116.657C305.288 101.93 305.033 102.895 305.39 103.345C305.543 103.538 307.223 110.097 309.158 117.879Z" fill="#333540"/>
<path d="M78.182 49.2C79.67 49.2 80.958 49.448 82.046 49.944C83.15 50.44 83.998 51.144 84.59 52.056C85.182 52.968 85.478 54.048 85.478 55.296C85.478 56.528 85.182 57.608 84.59 58.536C83.998 59.448 83.15 60.152 82.046 60.648C80.958 61.128 79.67 61.368 78.182 61.368H74.798V66H70.91V49.2H78.182ZM77.966 58.2C79.134 58.2 80.022 57.952 80.63 57.456C81.238 56.944 81.542 56.224 81.542 55.296C81.542 54.352 81.238 53.632 80.63 53.136C80.022 52.624 79.134 52.368 77.966 52.368H74.798V58.2H77.966ZM101.262 62.88V66H88.2537V49.2H100.95V52.32H92.1177V55.968H99.9177V58.992H92.1177V62.88H101.262ZM104.355 49.2H108.243V62.832H116.667V66H104.355V49.2ZM130.044 62.4H122.244L120.756 66H116.772L124.26 49.2H128.1L135.612 66H131.532L130.044 62.4ZM128.82 59.448L126.156 53.016L123.492 59.448H128.82ZM137.355 49.2H144.987C146.811 49.2 148.419 49.552 149.811 50.256C151.219 50.944 152.307 51.92 153.075 53.184C153.859 54.448 154.251 55.92 154.251 57.6C154.251 59.28 153.859 60.752 153.075 62.016C152.307 63.28 151.219 64.264 149.811 64.968C148.419 65.656 146.811 66 144.987 66H137.355V49.2ZM144.795 62.808C146.475 62.808 147.811 62.344 148.803 61.416C149.811 60.472 150.315 59.2 150.315 57.6C150.315 56 149.811 54.736 148.803 53.808C147.811 52.864 146.475 52.392 144.795 52.392H141.243V62.808H144.795ZM168.013 62.4H160.213L158.725 66H154.741L162.229 49.2H166.069L173.581 66H169.501L168.013 62.4ZM166.789 59.448L164.125 53.016L161.461 59.448H166.789ZM182.121 49.2H189.753C191.577 49.2 193.185 49.552 194.577 50.256C195.985 50.944 197.073 51.92 197.841 53.184C198.625 54.448 199.017 55.92 199.017 57.6C199.017 59.28 198.625 60.752 197.841 62.016C197.073 63.28 195.985 64.264 194.577 64.968C193.185 65.656 191.577 66 189.753 66H182.121V49.2ZM189.561 62.808C191.241 62.808 192.577 62.344 193.569 61.416C194.577 60.472 195.081 59.2 195.081 57.6C195.081 56 194.577 54.736 193.569 53.808C192.577 52.864 191.241 52.392 189.561 52.392H186.009V62.808H189.561ZM210.085 66.288C208.341 66.288 206.765 65.912 205.357 65.16C203.965 64.408 202.869 63.376 202.069 62.064C201.285 60.736 200.893 59.248 200.893 57.6C200.893 55.952 201.285 54.472 202.069 53.16C202.869 51.832 203.965 50.792 205.357 50.04C206.765 49.288 208.341 48.912 210.085 48.912C211.829 48.912 213.397 49.288 214.789 50.04C216.181 50.792 217.277 51.832 218.077 53.16C218.877 54.472 219.277 55.952 219.277 57.6C219.277 59.248 218.877 60.736 218.077 62.064C217.277 63.376 216.181 64.408 214.789 65.16C213.397 65.912 211.829 66.288 210.085 66.288ZM210.085 62.976C211.077 62.976 211.973 62.752 212.773 62.304C213.573 61.84 214.197 61.2 214.645 60.384C215.109 59.568 215.341 58.64 215.341 57.6C215.341 56.56 215.109 55.632 214.645 54.816C214.197 54 213.573 53.368 212.773 52.92C211.973 52.456 211.077 52.224 210.085 52.224C209.093 52.224 208.197 52.456 207.397 52.92C206.597 53.368 205.965 54 205.501 54.816C205.053 55.632 204.829 56.56 204.829 57.6C204.829 58.64 205.053 59.568 205.501 60.384C205.965 61.2 206.597 61.84 207.397 62.304C208.197 62.752 209.093 62.976 210.085 62.976ZM240.06 62.4H232.26L230.772 66H226.788L234.276 49.2H238.116L245.628 66H241.548L240.06 62.4ZM238.836 59.448L236.172 53.016L233.508 59.448H238.836ZM262.659 66L262.635 55.92L257.691 64.224H255.939L251.019 56.136V66H247.371V49.2H250.587L256.875 59.64L263.067 49.2H266.259L266.307 66H262.659ZM270.293 49.2H274.181V66H270.293V49.2ZM289.52 57.336H293.072V64.152C292.16 64.84 291.104 65.368 289.904 65.736C288.704 66.104 287.496 66.288 286.28 66.288C284.536 66.288 282.968 65.92 281.576 65.184C280.184 64.432 279.088 63.4 278.288 62.088C277.504 60.76 277.112 59.264 277.112 57.6C277.112 55.936 277.504 54.448 278.288 53.136C279.088 51.808 280.192 50.776 281.6 50.04C283.008 49.288 284.592 48.912 286.352 48.912C287.824 48.912 289.16 49.16 290.36 49.656C291.56 50.152 292.568 50.872 293.384 51.816L290.888 54.12C289.688 52.856 288.24 52.224 286.544 52.224C285.472 52.224 284.52 52.448 283.688 52.896C282.856 53.344 282.208 53.976 281.744 54.792C281.28 55.608 281.048 56.544 281.048 57.6C281.048 58.64 281.28 59.568 281.744 60.384C282.208 61.2 282.848 61.84 283.664 62.304C284.496 62.752 285.44 62.976 286.496 62.976C287.616 62.976 288.624 62.736 289.52 62.256V57.336ZM307.747 62.4H299.947L298.459 66H294.475L301.963 49.2H305.803L313.315 66H309.235L307.747 62.4ZM306.523 59.448L303.859 53.016L301.195 59.448H306.523ZM305.683 47.904C305.251 47.904 304.867 47.824 304.531 47.664C304.211 47.488 303.851 47.256 303.451 46.968C303.195 46.776 302.979 46.632 302.803 46.536C302.643 46.44 302.483 46.392 302.323 46.392C301.987 46.392 301.715 46.512 301.507 46.752C301.299 46.976 301.187 47.304 301.171 47.736H299.275C299.307 46.664 299.571 45.816 300.067 45.192C300.579 44.552 301.251 44.232 302.083 44.232C302.499 44.232 302.867 44.32 303.187 44.496C303.523 44.656 303.899 44.888 304.315 45.192C304.571 45.384 304.779 45.528 304.939 45.624C305.115 45.72 305.283 45.768 305.443 45.768C305.763 45.768 306.027 45.656 306.235 45.432C306.459 45.192 306.579 44.872 306.595 44.472H308.491C308.459 45.512 308.187 46.344 307.675 46.968C307.179 47.592 306.515 47.904 305.683 47.904ZM322.96 66.288C321.216 66.288 319.64 65.912 318.232 65.16C316.84 64.408 315.744 63.376 314.944 62.064C314.16 60.736 313.768 59.248 313.768 57.6C313.768 55.952 314.16 54.472 314.944 53.16C315.744 51.832 316.84 50.792 318.232 50.04C319.64 49.288 321.216 48.912 322.96 48.912C324.704 48.912 326.272 49.288 327.664 50.04C329.056 50.792 330.152 51.832 330.952 53.16C331.752 54.472 332.152 55.952 332.152 57.6C332.152 59.248 331.752 60.736 330.952 62.064C330.152 63.376 329.056 64.408 327.664 65.16C326.272 65.912 324.704 66.288 322.96 66.288ZM322.96 62.976C323.952 62.976 324.848 62.752 325.648 62.304C326.448 61.84 327.072 61.2 327.52 60.384C327.984 59.568 328.216 58.64 328.216 57.6C328.216 56.56 327.984 55.632 327.52 54.816C327.072 54 326.448 53.368 325.648 52.92C324.848 52.456 323.952 52.224 322.96 52.224C321.968 52.224 321.072 52.456 320.272 52.92C319.472 53.368 318.84 54 318.376 54.816C317.928 55.632 317.704 56.56 317.704 57.6C317.704 58.64 317.928 59.568 318.376 60.384C318.84 61.2 319.472 61.84 320.272 62.304C321.072 62.752 321.968 62.976 322.96 62.976Z" fill="#333540"/>
<path d="M200.996 456.589C109.519 456.589 35.1019 381.441 35.1019 289.066V35.2522H366.907V289.066C366.907 381.441 292.481 456.589 200.996 456.589ZM19.4714 289.066C19.4714 390.139 100.915 472.39 200.996 472.39C301.103 472.39 382.528 390.139 382.528 289.066V19.4504H19.4714V289.066V289.066Z" fill="#333540"/>
<rect x="35" y="179" width="332" height="10" fill="#333540"/>
<path d="M201.591 242.239C208.837 242.239 214.71 236.365 214.71 229.12C214.71 221.874 208.837 216 201.591 216C194.345 216 188.471 221.874 188.471 229.12C188.471 236.365 194.345 242.239 201.591 242.239Z" fill="#F0F2FF"/>
<path d="M243.44 306.49L248.423 313.602L215.871 336.373C214.768 337.145 213.502 337.651 212.172 337.855C210.842 338.059 209.483 337.953 208.2 337.547C206.916 337.141 205.744 336.445 204.773 335.513C203.802 334.582 203.058 333.439 202.6 332.174L200.584 326.705L211.914 307.069L215.087 315.748L231.345 304.362C233.232 303.043 235.565 302.527 237.832 302.926C240.099 303.325 242.116 304.607 243.44 306.49Z" fill="#F0F2FF"/>
<path d="M289 249.207L225.09 254.788C224.94 256.188 217.605 296.636 217.605 296.636C217.276 298.518 216.564 300.312 215.514 301.907C214.465 303.503 213.099 304.866 211.501 305.913L175.514 368.237C174.361 370.227 172.466 371.679 170.244 372.274C168.022 372.869 165.655 372.558 163.661 371.41L156.139 367.061L190.988 306.734L192.369 304.345L196.457 297.289C196.487 297.237 196.507 297.179 196.515 297.118C196.524 297.058 196.52 296.996 196.504 296.937C196.489 296.878 196.461 296.823 196.425 296.775C196.388 296.726 196.341 296.685 196.289 296.655C196.236 296.624 196.178 296.604 196.117 296.596C196.057 296.588 195.996 296.592 195.937 296.607C195.878 296.623 195.822 296.65 195.774 296.687C195.725 296.724 195.685 296.77 195.654 296.823L191.958 303.206L190.54 299.38C189.772 297.422 189.447 295.319 189.588 293.22C189.588 293.146 189.607 293.052 189.607 292.978L192.22 258.484C192.227 258.361 192.187 258.239 192.107 258.145C192.027 258.051 191.913 257.992 191.79 257.98C191.728 257.971 191.665 257.976 191.605 257.993C191.545 258.011 191.49 258.041 191.442 258.081C191.394 258.122 191.356 258.172 191.329 258.229C191.302 258.285 191.288 258.347 191.286 258.409L190.67 266.603L178.78 278.493C177.628 279.651 176.231 280.538 174.693 281.088L137.829 294.508C137.352 293.185 137.106 291.79 137.101 290.383C137.1 287.895 137.864 285.466 139.29 283.426C140.715 281.386 142.733 279.834 145.071 278.979L170.4 269.758L187.983 252.175C188.718 251.404 189.592 250.777 190.558 250.327C190.558 250.327 220.778 243.029 221.599 242.954C235.449 241.704 276.606 238.157 276.979 238.157C280.002 238.164 282.912 239.302 285.136 241.347C287.361 243.392 288.74 246.196 289 249.207Z" fill="#F0F2FF"/>
<path d="M147.12 365.52C154.365 365.52 160.239 359.646 160.239 352.4C160.239 345.154 154.365 339.28 147.12 339.28C139.874 339.28 134 345.154 134 352.4C134 359.646 139.874 365.52 147.12 365.52Z" fill="#F0F2FF"/>
<path d="M152.777 532.243V539.354H124.698V533.698L139.03 519.961C140.551 518.489 141.577 517.232 142.108 516.191C142.639 515.113 142.904 514.054 142.904 513.012C142.904 511.504 142.391 510.355 141.365 509.565C140.374 508.739 138.906 508.326 136.96 508.326C135.332 508.326 133.863 508.649 132.554 509.296C131.245 509.906 130.148 510.84 129.263 512.097L123 508.003C124.451 505.812 126.45 504.106 128.998 502.885C131.546 501.628 134.465 501 137.756 501C140.516 501 142.922 501.467 144.974 502.401C147.062 503.298 148.672 504.591 149.804 506.279C150.972 507.931 151.556 509.888 151.556 512.151C151.556 514.198 151.131 516.119 150.282 517.914C149.433 519.71 147.787 521.757 145.346 524.055L136.8 532.243H152.777Z" fill="#333540"/>
<path d="M179.764 540C176.685 540 173.943 539.228 171.537 537.684C169.131 536.14 167.238 533.913 165.858 531.004C164.513 528.059 163.841 524.558 163.841 520.5C163.841 516.442 164.513 512.959 165.858 510.05C167.238 507.105 169.131 504.86 171.537 503.316C173.943 501.772 176.685 501 179.764 501C182.843 501 185.585 501.772 187.991 503.316C190.397 504.86 192.273 507.105 193.617 510.05C194.997 512.959 195.687 516.442 195.687 520.5C195.687 524.558 194.997 528.059 193.617 531.004C192.273 533.913 190.397 536.14 187.991 537.684C185.585 539.228 182.843 540 179.764 540ZM179.764 532.62C182.029 532.62 183.798 531.633 185.072 529.657C186.381 527.682 187.036 524.63 187.036 520.5C187.036 516.37 186.381 513.318 185.072 511.343C183.798 509.367 182.029 508.38 179.764 508.38C177.535 508.38 175.765 509.367 174.456 511.343C173.182 513.318 172.545 516.37 172.545 520.5C172.545 524.63 173.182 527.682 174.456 529.657C175.765 531.633 177.535 532.62 179.764 532.62Z" fill="#333540"/>
<path d="M223.305 540C220.226 540 217.484 539.228 215.077 537.684C212.671 536.14 210.778 533.913 209.398 531.004C208.053 528.059 207.381 524.558 207.381 520.5C207.381 516.442 208.053 512.959 209.398 510.05C210.778 507.105 212.671 504.86 215.077 503.316C217.484 501.772 220.226 501 223.305 501C226.383 501 229.125 501.772 231.532 503.316C233.938 504.86 235.813 507.105 237.158 510.05C238.538 512.959 239.228 516.442 239.228 520.5C239.228 524.558 238.538 528.059 237.158 531.004C235.813 533.913 233.938 536.14 231.532 537.684C229.125 539.228 226.383 540 223.305 540ZM223.305 532.62C225.569 532.62 227.339 531.633 228.612 529.657C229.922 527.682 230.576 524.63 230.576 520.5C230.576 516.37 229.922 513.318 228.612 511.343C227.339 509.367 225.569 508.38 223.305 508.38C221.075 508.38 219.306 509.367 217.997 511.343C216.723 513.318 216.086 516.37 216.086 520.5C216.086 524.63 216.723 527.682 217.997 529.657C219.306 531.633 221.075 532.62 223.305 532.62Z" fill="#333540"/>
<path d="M263.66 515.814C268.897 515.814 272.754 516.873 275.231 518.992C277.744 521.11 279 523.948 279 527.503C279 529.801 278.434 531.902 277.302 533.805C276.169 535.673 274.435 537.181 272.1 538.33C269.8 539.443 266.951 540 263.554 540C260.936 540 258.353 539.659 255.805 538.977C253.293 538.258 251.152 537.253 249.382 535.96L252.779 529.28C254.195 530.358 255.823 531.202 257.663 531.812C259.503 532.387 261.396 532.674 263.342 532.674C265.5 532.674 267.199 532.243 268.437 531.381C269.676 530.519 270.295 529.316 270.295 527.772C270.295 526.156 269.641 524.935 268.331 524.109C267.057 523.283 264.828 522.87 261.643 522.87H252.143L254.053 501.646H276.718V508.649H261.219L260.635 515.814H263.66Z" fill="#333540"/>
</svg>
