<svg width="402" height="540" viewBox="0 0 402 540" fill="none" xmlns="http://www.w3.org/2000/svg">
<path d="M35 35H367V371L301.5 437.5L206.5 467.5L106.5 432L35 371V35Z" fill="#F0F2FF"/>
<path d="M35 189H367V386.665L289.5 440.046L249.5 465.943L203 467H155.5L109 443.745L35 386.665V189Z" fill="url(#paint0_linear)"/>
<rect x="35" y="35" width="332" height="144" fill="#F0F2FF"/>
<path d="M200.996 456.589C109.519 456.589 35.102 381.441 35.102 289.066V35.2522H366.907V289.066C366.907 381.441 292.481 456.589 200.996 456.589ZM19.4716 289.066C19.4716 390.139 100.915 472.39 200.996 472.39C301.103 472.39 382.529 390.139 382.529 289.066V19.4504H19.4716V289.066V289.066Z" fill="#F3B75C"/>
<path d="M382.532 289.192C382.532 390.264 301.098 472.516 200.999 472.516C100.909 472.516 19.475 390.264 19.475 289.192V19.5772H382.532V289.192ZM394.499 7.51086H7.5083V289.192C7.5083 396.947 94.3006 484.591 200.999 484.591C307.698 484.591 394.499 396.947 394.499 289.192V7.51086V7.51086Z" fill="#2857AF"/>
<path d="M61 122.445V164.89H74.5989H88.1979V149.134V133.378H98.7532C110.669 133.378 115.461 132.542 121.353 129.391C130.678 124.439 135.406 113.634 133.592 101.48C132.233 92.2833 128.218 86.3024 121.159 83.0869C115.137 80.2572 112.287 80 85.9314 80H61V122.445ZM101.408 98.0713C104.581 98.9716 106.654 101.03 107.69 104.309C108.337 106.56 108.273 107.396 107.366 109.84C105.617 114.342 103.027 115.628 94.8678 115.885L88.1979 116.143V106.753V97.3639H93.5727C96.4868 97.3639 99.9836 97.6854 101.408 98.0713Z" fill="#333540"/>
<path d="M165.084 122.413L165.265 164.89H186.315C209.17 164.89 213.2 164.438 220.117 161.017C226.612 157.854 233.649 148.88 235.935 140.811C238.461 131.967 238.641 116.022 236.235 106.145C233.95 96.5261 227.454 87.3593 220.297 83.6796C214.042 80.3873 210.554 80 186.736 80H164.964L165.084 122.413ZM205.502 101.239C209.231 103.24 211.516 106.984 212.538 112.859C213.501 118.669 212.959 133.71 211.696 136.809C210.373 139.972 208.449 142.489 206.344 143.651C204.239 144.813 194.495 145.975 191.608 145.459L189.623 145.072V122.155V99.2374L196.119 99.4957C201.352 99.6893 203.096 100.012 205.502 101.239Z" fill="#333540"/>
<path d="M289.4 95.5632C286.853 104.181 281.201 123.152 276.872 137.815C272.493 152.414 268.928 164.504 268.928 164.633C268.928 164.762 273.715 164.89 279.52 164.89H290.163L290.775 162.125C291.131 160.646 291.895 157.494 292.455 155.051L293.474 150.742L305.237 150.87L317 151.063L318.732 158.009L320.412 164.89L331.208 164.762C338.032 164.633 341.953 164.311 341.902 163.925C341.801 163.025 317.408 81.3505 317.051 80.6431C316.848 80.2572 312.112 80 305.39 80H294.034L289.4 95.5632ZM309.158 117.879L312.57 132.092H305.288H298.006L298.464 130.291C298.719 129.326 300.196 123.217 301.774 116.657C305.288 101.93 305.033 102.895 305.39 103.345C305.543 103.538 307.223 110.097 309.158 117.879Z" fill="#333540"/>
<path d="M78.1819 49.2001C79.6699 49.2001 80.9579 49.4481 82.0459 49.9441C83.1499 50.4401 83.9979 51.1441 84.5899 52.0561C85.1819 52.9681 85.4779 54.0481 85.4779 55.2961C85.4779 56.5281 85.1819 57.6081 84.5899 58.5361C83.9979 59.4481 83.1499 60.1521 82.0459 60.6481C80.9579 61.1281 79.6699 61.3681 78.1819 61.3681H74.7979V66.0001H70.9099V49.2001H78.1819ZM77.9659 58.2001C79.1339 58.2001 80.0219 57.9521 80.6299 57.4561C81.2379 56.9441 81.5419 56.2241 81.5419 55.2961C81.5419 54.3521 81.2379 53.6321 80.6299 53.1361C80.0219 52.6241 79.1339 52.3681 77.9659 52.3681H74.7979V58.2001H77.9659Z" fill="#333540"/>
<path d="M101.262 62.8801V66.0001H88.2537V49.2001H100.95V52.3201H92.1177V55.9681H99.9177V58.9921H92.1177V62.8801H101.262Z" fill="#333540"/>
<path d="M104.355 49.2001H108.243V62.8321H116.667V66.0001H104.355V49.2001Z" fill="#333540"/>
<path d="M130.044 62.4001H122.244L120.756 66.0001H116.772L124.26 49.2001H128.1L135.612 66.0001H131.532L130.044 62.4001ZM128.82 59.4481L126.156 53.0161L123.492 59.4481H128.82Z" fill="#333540"/>
<path d="M137.355 49.2001H144.987C146.811 49.2001 148.419 49.5521 149.811 50.2561C151.219 50.9441 152.307 51.9201 153.075 53.1841C153.859 54.4481 154.251 55.9201 154.251 57.6001C154.251 59.2801 153.859 60.7521 153.075 62.0161C152.307 63.2801 151.219 64.2641 149.811 64.9681C148.419 65.6561 146.811 66.0001 144.987 66.0001H137.355V49.2001ZM144.795 62.8081C146.475 62.8081 147.811 62.3441 148.803 61.4161C149.811 60.4721 150.315 59.2001 150.315 57.6001C150.315 56.0001 149.811 54.7361 148.803 53.8081C147.811 52.8641 146.475 52.3921 144.795 52.3921H141.243V62.8081H144.795Z" fill="#333540"/>
<path d="M168.013 62.4001H160.213L158.725 66.0001H154.741L162.229 49.2001H166.069L173.581 66.0001H169.501L168.013 62.4001ZM166.789 59.4481L164.125 53.0161L161.461 59.4481H166.789Z" fill="#333540"/>
<path d="M182.121 49.2001H189.753C191.577 49.2001 193.185 49.5521 194.577 50.2561C195.985 50.9441 197.073 51.9201 197.841 53.1841C198.625 54.4481 199.017 55.9201 199.017 57.6001C199.017 59.2801 198.625 60.7521 197.841 62.0161C197.073 63.2801 195.985 64.2641 194.577 64.9681C193.185 65.6561 191.577 66.0001 189.753 66.0001H182.121V49.2001ZM189.561 62.8081C191.241 62.8081 192.577 62.3441 193.569 61.4161C194.577 60.4721 195.081 59.2001 195.081 57.6001C195.081 56.0001 194.577 54.7361 193.569 53.8081C192.577 52.8641 191.241 52.3921 189.561 52.3921H186.009V62.8081H189.561Z" fill="#333540"/>
<path d="M210.085 66.2881C208.341 66.2881 206.765 65.9121 205.357 65.1601C203.965 64.4081 202.869 63.3761 202.069 62.0641C201.285 60.7361 200.893 59.2481 200.893 57.6001C200.893 55.9521 201.285 54.4721 202.069 53.1601C202.869 51.8321 203.965 50.7921 205.357 50.0401C206.765 49.2881 208.341 48.9121 210.085 48.9121C211.829 48.9121 213.397 49.2881 214.789 50.0401C216.181 50.7921 217.277 51.8321 218.077 53.1601C218.877 54.4721 219.277 55.9521 219.277 57.6001C219.277 59.2481 218.877 60.7361 218.077 62.0641C217.277 63.3761 216.181 64.4081 214.789 65.1601C213.397 65.9121 211.829 66.2881 210.085 66.2881ZM210.085 62.9761C211.077 62.9761 211.973 62.7521 212.773 62.3041C213.573 61.8401 214.197 61.2001 214.645 60.3841C215.109 59.5681 215.341 58.6401 215.341 57.6001C215.341 56.5601 215.109 55.6321 214.645 54.8161C214.197 54.0001 213.573 53.3681 212.773 52.9201C211.973 52.4561 211.077 52.2241 210.085 52.2241C209.093 52.2241 208.197 52.4561 207.397 52.9201C206.597 53.3681 205.965 54.0001 205.501 54.8161C205.053 55.6321 204.829 56.5601 204.829 57.6001C204.829 58.6401 205.053 59.5681 205.501 60.3841C205.965 61.2001 206.597 61.8401 207.397 62.3041C208.197 62.7521 209.093 62.9761 210.085 62.9761Z" fill="#333540"/>
<path d="M240.06 62.4001H232.26L230.772 66.0001H226.788L234.276 49.2001H238.116L245.628 66.0001H241.548L240.06 62.4001ZM238.836 59.4481L236.172 53.0161L233.508 59.4481H238.836Z" fill="#333540"/>
<path d="M262.659 66.0001L262.635 55.9201L257.691 64.2241H255.939L251.019 56.1361V66.0001H247.371V49.2001H250.587L256.875 59.6401L263.067 49.2001H266.259L266.307 66.0001H262.659Z" fill="#333540"/>
<path d="M270.293 49.2001H274.181V66.0001H270.293V49.2001Z" fill="#333540"/>
<path d="M289.52 57.3361H293.072V64.1521C292.16 64.8401 291.104 65.3681 289.904 65.7361C288.704 66.1041 287.496 66.2881 286.28 66.2881C284.536 66.2881 282.968 65.9201 281.576 65.1841C280.184 64.4321 279.088 63.4001 278.288 62.0881C277.504 60.7601 277.112 59.2641 277.112 57.6001C277.112 55.9361 277.504 54.4481 278.288 53.1361C279.088 51.8081 280.192 50.7761 281.6 50.0401C283.008 49.2881 284.592 48.9121 286.352 48.9121C287.824 48.9121 289.16 49.1601 290.36 49.6561C291.56 50.1521 292.568 50.8721 293.384 51.8161L290.888 54.1201C289.688 52.8561 288.24 52.2241 286.544 52.2241C285.472 52.2241 284.52 52.4481 283.688 52.8961C282.856 53.3441 282.208 53.9761 281.744 54.7921C281.28 55.6081 281.048 56.5441 281.048 57.6001C281.048 58.6401 281.28 59.5681 281.744 60.3841C282.208 61.2001 282.848 61.8401 283.664 62.3041C284.496 62.7521 285.44 62.9761 286.496 62.9761C287.616 62.9761 288.624 62.7361 289.52 62.2561V57.3361Z" fill="#333540"/>
<path d="M307.747 62.4001H299.947L298.459 66.0001H294.475L301.963 49.2001H305.803L313.315 66.0001H309.235L307.747 62.4001ZM306.523 59.4481L303.859 53.0161L301.195 59.4481H306.523ZM305.683 47.9041C305.251 47.9041 304.867 47.8241 304.531 47.6641C304.211 47.4881 303.851 47.2561 303.451 46.9681C303.195 46.7761 302.979 46.6321 302.803 46.5361C302.643 46.4401 302.483 46.3921 302.323 46.3921C301.987 46.3921 301.715 46.5121 301.507 46.7521C301.299 46.9761 301.187 47.3041 301.171 47.7361H299.275C299.307 46.6641 299.571 45.8161 300.067 45.1921C300.579 44.5521 301.251 44.2321 302.083 44.2321C302.499 44.2321 302.867 44.3201 303.187 44.4961C303.523 44.6561 303.899 44.8881 304.315 45.1921C304.571 45.3841 304.779 45.5281 304.939 45.6241C305.115 45.7201 305.283 45.7681 305.443 45.7681C305.763 45.7681 306.027 45.6561 306.235 45.4321C306.459 45.1921 306.579 44.8721 306.595 44.4721H308.491C308.459 45.5121 308.187 46.3441 307.675 46.9681C307.179 47.5921 306.515 47.9041 305.683 47.9041Z" fill="#333540"/>
<path d="M322.96 66.2881C321.216 66.2881 319.64 65.9121 318.232 65.1601C316.84 64.4081 315.744 63.3761 314.944 62.0641C314.16 60.7361 313.768 59.2481 313.768 57.6001C313.768 55.9521 314.16 54.4721 314.944 53.1601C315.744 51.8321 316.84 50.7921 318.232 50.0401C319.64 49.2881 321.216 48.9121 322.96 48.9121C324.704 48.9121 326.272 49.2881 327.664 50.0401C329.056 50.7921 330.152 51.8321 330.952 53.1601C331.752 54.4721 332.152 55.9521 332.152 57.6001C332.152 59.2481 331.752 60.7361 330.952 62.0641C330.152 63.3761 329.056 64.4081 327.664 65.1601C326.272 65.9121 324.704 66.2881 322.96 66.2881ZM322.96 62.9761C323.952 62.9761 324.848 62.7521 325.648 62.3041C326.448 61.8401 327.072 61.2001 327.52 60.3841C327.984 59.5681 328.216 58.6401 328.216 57.6001C328.216 56.5601 327.984 55.6321 327.52 54.8161C327.072 54.0001 326.448 53.3681 325.648 52.9201C324.848 52.4561 323.952 52.2241 322.96 52.2241C321.968 52.2241 321.072 52.4561 320.272 52.9201C319.472 53.3681 318.84 54.0001 318.376 54.8161C317.928 55.6321 317.704 56.5601 317.704 57.6001C317.704 58.6401 317.928 59.5681 318.376 60.3841C318.84 61.2001 319.472 61.8401 320.272 62.3041C321.072 62.7521 321.968 62.9761 322.96 62.9761Z" fill="#333540"/>
<rect x="35" y="179" width="332" height="10" fill="#F3B75C"/>
<path fill-rule="evenodd" clip-rule="evenodd" d="M220.53 229C235.258 231.542 229.002 256.716 217.512 256.716C205.084 256.716 205.929 229 220.53 229ZM150.584 367.498C166.528 367.498 166.526 391.714 150.584 391.714C134.645 391.714 134.643 367.498 150.584 367.498ZM141.022 373.754C140.165 376.488 139.255 380.339 141.325 381.843C143.735 382.287 150.982 383.039 149.281 388.027C147.837 389.689 144.1 389.323 140.843 385.158C145.055 392.543 156.922 392.18 155.869 387.114C152.805 372.355 164.207 373.736 158.896 387.133C165.786 379.54 158.782 369.128 154.892 371.631C151.723 374.173 145.814 379.386 143.488 375.219C142.03 372.276 145.369 369.035 154.512 369.098C149.448 367.207 143.809 369.207 141.022 373.754L141.022 373.754ZM173.525 320.146L172.03 316.519C155.136 311.886 152.254 324.689 161.297 323.292C154.78 330.586 156.882 327.543 152.994 338.87L173.525 320.146H173.525ZM186.423 306.922L222.145 313.131C213.442 354.202 219.878 339.003 202.954 360.798L185.573 384.73L191.953 388.853C194.421 389.728 195.296 394.25 190.444 393.989L175.168 392.466C173.178 385.032 173.741 389.94 178.379 380.178L186.574 359.484C196.509 341.007 196.4 356.509 195.359 331.324L161.592 349.964H154.398L153.199 342.516L186.423 306.922L186.423 306.922ZM195.522 254.564L169.541 267.954C158.244 272.592 152.596 278.643 142.179 284.757L137.59 287.134C133.374 294.806 138.34 299.593 143.199 295.053L146.002 288.98L163.662 282.047L171.308 277.665L194.346 272.445C192.64 290.221 194.286 287.858 188.602 302.182L222.639 311.46L230.406 276.394C245.23 277.779 282.294 283.053 295.148 279.619C302.072 276.646 299.255 273.998 294.161 271.956L287.234 274.99L263.645 268.979L258.783 269.139C253.235 268.234 242.653 260.816 223.033 258.059C220.032 261.705 212.607 260.068 208.826 255.146C204.435 254.266 199.992 254.604 195.522 254.564L195.522 254.564Z" fill="#333540"/>
<path d="M152.777 532.243V539.354H124.698V533.698L139.03 519.961C140.551 518.489 141.577 517.232 142.108 516.191C142.639 515.113 142.904 514.054 142.904 513.012C142.904 511.504 142.391 510.355 141.365 509.565C140.374 508.739 138.906 508.326 136.96 508.326C135.332 508.326 133.863 508.649 132.554 509.296C131.245 509.906 130.148 510.84 129.263 512.097L123 508.003C124.451 505.812 126.45 504.106 128.998 502.885C131.546 501.628 134.465 501 137.756 501C140.516 501 142.922 501.467 144.974 502.401C147.062 503.298 148.672 504.591 149.804 506.279C150.972 507.931 151.556 509.888 151.556 512.151C151.556 514.198 151.131 516.119 150.282 517.914C149.433 519.71 147.787 521.757 145.346 524.055L136.8 532.243H152.777Z" fill="#333540"/>
<path d="M179.764 540C176.686 540 173.943 539.228 171.537 537.684C169.131 536.14 167.238 533.913 165.858 531.004C164.513 528.059 163.841 524.558 163.841 520.5C163.841 516.442 164.513 512.959 165.858 510.05C167.238 507.105 169.131 504.86 171.537 503.316C173.943 501.772 176.686 501 179.764 501C182.843 501 185.585 501.772 187.991 503.316C190.397 504.86 192.273 507.105 193.617 510.05C194.997 512.959 195.687 516.442 195.687 520.5C195.687 524.558 194.997 528.059 193.617 531.004C192.273 533.913 190.397 536.14 187.991 537.684C185.585 539.228 182.843 540 179.764 540ZM179.764 532.62C182.029 532.62 183.798 531.633 185.072 529.657C186.381 527.682 187.036 524.63 187.036 520.5C187.036 516.37 186.381 513.318 185.072 511.343C183.798 509.367 182.029 508.38 179.764 508.38C177.535 508.38 175.765 509.367 174.456 511.343C173.182 513.318 172.545 516.37 172.545 520.5C172.545 524.63 173.182 527.682 174.456 529.657C175.765 531.633 177.535 532.62 179.764 532.62Z" fill="#333540"/>
<path d="M223.305 540C220.226 540 217.484 539.228 215.077 537.684C212.671 536.14 210.778 533.913 209.398 531.004C208.053 528.059 207.381 524.558 207.381 520.5C207.381 516.442 208.053 512.959 209.398 510.05C210.778 507.105 212.671 504.86 215.077 503.316C217.484 501.772 220.226 501 223.305 501C226.383 501 229.125 501.772 231.532 503.316C233.938 504.86 235.813 507.105 237.158 510.05C238.538 512.959 239.228 516.442 239.228 520.5C239.228 524.558 238.538 528.059 237.158 531.004C235.813 533.913 233.938 536.14 231.532 537.684C229.125 539.228 226.383 540 223.305 540ZM223.305 532.62C225.569 532.62 227.339 531.633 228.612 529.657C229.922 527.682 230.576 524.63 230.576 520.5C230.576 516.37 229.922 513.318 228.612 511.343C227.339 509.367 225.569 508.38 223.305 508.38C221.075 508.38 219.306 509.367 217.997 511.343C216.723 513.318 216.086 516.37 216.086 520.5C216.086 524.63 216.723 527.682 217.997 529.657C219.306 531.633 221.075 532.62 223.305 532.62Z" fill="#333540"/>
<path d="M263.66 515.814C268.897 515.814 272.754 516.873 275.231 518.992C277.744 521.11 279 523.948 279 527.503C279 529.801 278.434 531.902 277.302 533.805C276.169 535.673 274.435 537.181 272.1 538.33C269.8 539.443 266.951 540 263.554 540C260.936 540 258.353 539.659 255.805 538.977C253.293 538.258 251.152 537.253 249.382 535.96L252.779 529.28C254.195 530.358 255.823 531.202 257.663 531.812C259.503 532.387 261.396 532.674 263.342 532.674C265.5 532.674 267.199 532.243 268.437 531.381C269.676 530.519 270.295 529.316 270.295 527.772C270.295 526.156 269.641 524.935 268.331 524.109C267.057 523.283 264.828 522.87 261.643 522.87H252.143L254.053 501.646H276.718V508.649H261.219L260.635 515.814H263.66Z" fill="#333540"/>
<defs>
<linearGradient id="paint0_linear" x1="306" y1="217.54" x2="-235.279" y2="458.147" gradientUnits="userSpaceOnUse">
<stop stop-color="#2857AF"/>
<stop offset="1" stop-color="#58BEF7"/>
</linearGradient>
</defs>
</svg>
