<svg width="402" height="545" viewBox="0 0 402 545" fill="none" xmlns="http://www.w3.org/2000/svg">
<path d="M77 191H119V437H77V191Z" fill="#ADADAD"/>
<path d="M325 191H367V368L325 404V191Z" fill="#ADADAD"/>
<path d="M160 191H201V463H160V191Z" fill="#ADADAD"/>
<path d="M242 191H283V463H242V191Z" fill="#ADADAD"/>
<path d="M35 191H77V402L35 344V191Z" fill="#8AE58A"/>
<path d="M119 191H160V454H119V191Z" fill="#8AE58A"/>
<path d="M201 191H242V463H201V191Z" fill="#8AE58A"/>
<path d="M283 191H325V439H283V191Z" fill="#8AE58A"/>
<path d="M36 36H368V181H302.5H207.5H107.5H36V36Z" fill="#F0F2FF"/>
<path d="M200.996 456.8C109.519 456.8 35.1019 381.652 35.1019 289.277V35.462H366.907V289.277C366.907 381.652 292.481 456.8 200.996 456.8ZM19.4714 289.277C19.4714 390.35 100.915 472.602 200.996 472.602C301.103 472.602 382.529 390.35 382.529 289.277V19.6602H19.4714V289.277Z" fill="#5C995C"/>
<path d="M382.532 289.275C382.532 390.348 301.098 472.6 200.999 472.6C100.909 472.6 19.475 390.348 19.475 289.275V19.6582H382.532V289.275ZM394.499 7.5918H7.5083V289.275C7.5083 397.031 94.3006 484.676 200.999 484.676C307.698 484.676 394.499 397.031 394.499 289.275V7.5918Z" fill="#CECECE"/>
<path d="M61 123.765V166.668H74.5989H88.1979V150.742V134.816H98.7533C110.669 134.816 115.461 133.971 121.353 130.785C130.678 125.78 135.406 114.859 133.592 102.574C132.233 93.2781 128.218 87.2328 121.159 83.9826C115.137 81.1224 112.287 80.8624 85.9314 80.8624H61V123.765ZM101.408 99.1285C104.581 100.039 106.654 102.119 107.69 105.434C108.337 107.709 108.273 108.554 107.366 111.024C105.617 115.574 103.027 116.875 94.8678 117.135L88.1979 117.395V107.904V98.4134H93.5727C96.4868 98.4134 99.9836 98.7385 101.408 99.1285Z" fill="#333540"/>
<path d="M165.084 123.732L165.265 166.668H186.315C209.17 166.668 213.2 166.211 220.117 162.753C226.612 159.555 233.649 150.485 235.935 142.329C238.461 133.39 238.641 117.272 236.235 107.289C233.95 97.5667 227.454 88.301 220.297 84.5817C214.042 81.2539 210.554 80.8624 186.736 80.8624H164.964L165.084 123.732ZM205.502 102.33C209.231 104.353 211.516 108.137 212.538 114.075C213.501 119.948 212.959 135.151 211.696 138.283C210.373 141.481 208.449 144.025 206.344 145.2C204.239 146.375 194.495 147.549 191.608 147.027L189.623 146.636V123.471V100.307L196.119 100.568C201.352 100.764 203.096 101.09 205.502 102.33Z" fill="#333540"/>
<path d="M289.4 96.5933C286.854 105.304 281.201 124.48 276.872 139.301C272.493 154.057 268.928 166.278 268.928 166.408C268.928 166.538 273.715 166.668 279.52 166.668H290.164L290.775 163.872C291.131 162.377 291.895 159.192 292.455 156.722L293.474 152.367L305.237 152.497L317.001 152.692L318.732 159.712L320.413 166.668L331.208 166.538C338.032 166.408 341.953 166.083 341.903 165.693C341.801 164.782 317.408 82.2275 317.052 81.5124C316.848 81.1224 312.112 80.8624 305.39 80.8624H294.034L289.4 96.5933ZM309.158 119.15L312.57 133.516H305.288H298.006L298.464 131.695C298.719 130.72 300.196 124.545 301.774 117.915C305.288 103.029 305.033 104.004 305.39 104.459C305.543 104.654 307.223 111.284 309.158 119.15Z" fill="#333540"/>
<path d="M78.1819 49.7304C79.6699 49.7304 80.9579 49.9811 82.0459 50.4824C83.1499 50.9838 83.9979 51.6954 84.5899 52.6172C85.1819 53.539 85.4779 54.6307 85.4779 55.8921C85.4779 57.1374 85.1819 58.2291 84.5899 59.1671C83.9979 60.0889 83.1499 60.8005 82.0459 61.3018C80.9579 61.787 79.6699 62.0296 78.1819 62.0296H74.7979V66.7115H70.9099V49.7304H78.1819ZM77.9659 58.8274C79.1339 58.8274 80.0219 58.5768 80.6299 58.0754C81.2379 57.5579 81.5419 56.8301 81.5419 55.8921C81.5419 54.938 81.2379 54.2102 80.6299 53.7088C80.0219 53.1913 79.1339 52.9326 77.9659 52.9326H74.7979V58.8274H77.9659Z" fill="#333540"/>
<path d="M101.262 63.5579V66.7115H88.2537V49.7304H100.95V52.884H92.1177V56.5714H99.9177V59.628H92.1177V63.5579H101.262Z" fill="#333540"/>
<path d="M104.355 49.7304H108.243V63.5094H116.667V66.7115H104.355V49.7304Z" fill="#333540"/>
<path d="M130.044 63.0727H122.244L120.756 66.7115H116.772L124.26 49.7304H128.1L135.612 66.7115H131.532L130.044 63.0727ZM128.82 60.0889L126.156 53.5876L123.492 60.0889H128.82Z" fill="#333540"/>
<path d="M137.355 49.7304H144.987C146.811 49.7304 148.419 50.0862 149.811 50.7978C151.219 51.4932 152.307 52.4797 153.075 53.7574C153.859 55.035 154.251 56.5229 154.251 58.221C154.251 59.9191 153.859 61.4069 153.075 62.6846C152.307 63.9622 151.219 64.9568 149.811 65.6684C148.419 66.3638 146.811 66.7115 144.987 66.7115H137.355V49.7304ZM144.795 63.4851C146.475 63.4851 147.811 63.0161 148.803 62.0781C149.811 61.1239 150.315 59.8382 150.315 58.221C150.315 56.6037 149.811 55.3261 148.803 54.3881C147.811 53.4339 146.475 52.9568 144.795 52.9568H141.243V63.4851H144.795Z" fill="#333540"/>
<path d="M168.013 63.0727H160.213L158.725 66.7115H154.741L162.229 49.7304H166.069L173.581 66.7115H169.501L168.013 63.0727ZM166.789 60.0889L164.125 53.5876L161.461 60.0889H166.789Z" fill="#333540"/>
<path d="M182.121 49.7304H189.753C191.577 49.7304 193.185 50.0862 194.577 50.7978C195.985 51.4932 197.073 52.4797 197.841 53.7574C198.625 55.035 199.017 56.5229 199.017 58.221C199.017 59.9191 198.625 61.4069 197.841 62.6846C197.073 63.9622 195.985 64.9568 194.577 65.6684C193.185 66.3638 191.577 66.7115 189.753 66.7115H182.121V49.7304ZM189.561 63.4851C191.241 63.4851 192.577 63.0161 193.569 62.0781C194.577 61.1239 195.081 59.8382 195.081 58.221C195.081 56.6037 194.577 55.3261 193.569 54.3881C192.577 53.4339 191.241 52.9568 189.561 52.9568H186.009V63.4851H189.561Z" fill="#333540"/>
<path d="M210.085 67.0026C208.341 67.0026 206.765 66.6226 205.357 65.8625C203.965 65.1024 202.869 64.0592 202.069 62.7331C201.285 61.3908 200.893 59.8867 200.893 58.221C200.893 56.5552 201.285 55.0592 202.069 53.7331C202.869 52.3908 203.965 51.3396 205.357 50.5795C206.765 49.8194 208.341 49.4393 210.085 49.4393C211.829 49.4393 213.397 49.8194 214.789 50.5795C216.181 51.3396 217.277 52.3908 218.077 53.7331C218.877 55.0592 219.277 56.5552 219.277 58.221C219.277 59.8867 218.877 61.3908 218.077 62.7331C217.277 64.0592 216.181 65.1024 214.789 65.8625C213.397 66.6226 211.829 67.0026 210.085 67.0026ZM210.085 63.6549C211.077 63.6549 211.973 63.4285 212.773 62.9757C213.573 62.5067 214.197 61.8598 214.645 61.035C215.109 60.2102 215.341 59.2722 215.341 58.221C215.341 57.1698 215.109 56.2318 214.645 55.407C214.197 54.5822 213.573 53.9433 212.773 53.4905C211.973 53.0215 211.077 52.787 210.085 52.787C209.093 52.787 208.197 53.0215 207.397 53.4905C206.597 53.9433 205.965 54.5822 205.501 55.407C205.053 56.2318 204.829 57.1698 204.829 58.221C204.829 59.2722 205.053 60.2102 205.501 61.035C205.965 61.8598 206.597 62.5067 207.397 62.9757C208.197 63.4285 209.093 63.6549 210.085 63.6549Z" fill="#333540"/>
<path d="M240.06 63.0727H232.26L230.772 66.7115H226.788L234.276 49.7304H238.116L245.628 66.7115H241.548L240.06 63.0727ZM238.836 60.0889L236.172 53.5876L233.508 60.0889H238.836Z" fill="#333540"/>
<path d="M262.659 66.7115L262.635 56.5229L257.691 64.9164H255.939L251.019 56.7412V66.7115H247.371V49.7304H250.587L256.875 60.283L263.067 49.7304H266.259L266.307 66.7115H262.659Z" fill="#333540"/>
<path d="M270.293 49.7304H274.181V66.7115H270.293V49.7304Z" fill="#333540"/>
<path d="M289.52 57.9541H293.072V64.8436C292.16 65.539 291.104 66.0727 289.904 66.4447C288.704 66.8166 287.496 67.0026 286.28 67.0026C284.536 67.0026 282.968 66.6307 281.576 65.8867C280.184 65.1266 279.088 64.0835 278.288 62.7573C277.504 61.415 277.112 59.9029 277.112 58.221C277.112 56.539 277.504 55.035 278.288 53.7088C279.088 52.3665 280.192 51.3234 281.6 50.5795C283.008 49.8194 284.592 49.4393 286.352 49.4393C287.824 49.4393 289.16 49.69 290.36 50.1913C291.56 50.6927 292.568 51.4204 293.384 52.3746L290.888 54.7035C289.688 53.4258 288.24 52.787 286.544 52.787C285.472 52.787 284.52 53.0134 283.688 53.4663C282.856 53.9191 282.208 54.5579 281.744 55.3827C281.28 56.2075 281.048 57.1536 281.048 58.221C281.048 59.2722 281.28 60.2102 281.744 61.035C282.208 61.8598 282.848 62.5067 283.664 62.9757C284.496 63.4285 285.44 63.6549 286.496 63.6549C287.616 63.6549 288.624 63.4123 289.52 62.9272V57.9541Z" fill="#333540"/>
<path d="M307.747 63.0727H299.947L298.459 66.7115H294.475L301.963 49.7304H305.803L313.315 66.7115H309.235L307.747 63.0727ZM306.523 60.0889L303.859 53.5876L301.195 60.0889H306.523ZM305.683 48.4204C305.251 48.4204 304.867 48.3396 304.531 48.1779C304.211 48 303.851 47.7655 303.451 47.4744C303.195 47.2803 302.979 47.1347 302.803 47.0377C302.643 46.9407 302.483 46.8921 302.323 46.8921C301.987 46.8921 301.715 47.0134 301.507 47.256C301.299 47.4824 301.187 47.814 301.171 48.2506H299.275C299.307 47.1671 299.571 46.3099 300.067 45.6792C300.579 45.0323 301.251 44.7089 302.083 44.7089C302.499 44.7089 302.867 44.7978 303.187 44.9757C303.523 45.1374 303.899 45.3719 304.315 45.6792C304.571 45.8733 304.779 46.0188 304.939 46.1159C305.115 46.2129 305.283 46.2614 305.443 46.2614C305.763 46.2614 306.027 46.1482 306.235 45.9218C306.459 45.6792 306.579 45.3558 306.595 44.9515H308.491C308.459 46.0027 308.187 46.8436 307.675 47.4744C307.179 48.1051 306.515 48.4204 305.683 48.4204Z" fill="#333540"/>
<path d="M322.96 67.0026C321.216 67.0026 319.64 66.6226 318.232 65.8625C316.84 65.1024 315.744 64.0592 314.944 62.7331C314.16 61.3908 313.768 59.8867 313.768 58.221C313.768 56.5552 314.16 55.0592 314.944 53.7331C315.744 52.3908 316.84 51.3396 318.232 50.5795C319.64 49.8194 321.216 49.4393 322.96 49.4393C324.704 49.4393 326.272 49.8194 327.664 50.5795C329.056 51.3396 330.152 52.3908 330.952 53.7331C331.752 55.0592 332.152 56.5552 332.152 58.221C332.152 59.8867 331.752 61.3908 330.952 62.7331C330.152 64.0592 329.056 65.1024 327.664 65.8625C326.272 66.6226 324.704 67.0026 322.96 67.0026ZM322.96 63.6549C323.952 63.6549 324.848 63.4285 325.648 62.9757C326.448 62.5067 327.072 61.8598 327.52 61.035C327.984 60.2102 328.216 59.2722 328.216 58.221C328.216 57.1698 327.984 56.2318 327.52 55.407C327.072 54.5822 326.448 53.9433 325.648 53.4905C324.848 53.0215 323.952 52.787 322.96 52.787C321.968 52.787 321.072 53.0215 320.272 53.4905C319.472 53.9433 318.84 54.5822 318.376 55.407C317.928 56.2318 317.704 57.1698 317.704 58.221C317.704 59.2722 317.928 60.2102 318.376 61.035C318.84 61.8598 319.472 62.5067 320.272 62.9757C321.072 63.4285 321.968 63.6549 322.96 63.6549Z" fill="#333540"/>
<rect x="35" y="180.93" width="332" height="10.1078" fill="#5C995C"/>
<path d="M201.591 244.85C208.837 244.85 214.71 238.913 214.71 231.589C214.71 224.266 208.837 218.328 201.591 218.328C194.345 218.328 188.471 224.266 188.471 231.589C188.471 238.913 194.345 244.85 201.591 244.85Z" fill="#333540"/>
<path d="M243.44 309.794L248.423 316.982L215.871 339.999C214.768 340.779 213.502 341.291 212.172 341.497C210.842 341.703 209.483 341.596 208.2 341.186C206.916 340.775 205.744 340.072 204.773 339.13C203.802 338.188 203.058 337.033 202.6 335.754L200.584 330.227L211.914 310.379L215.087 319.152L231.345 307.643C233.232 306.31 235.565 305.788 237.832 306.191C240.099 306.595 242.116 307.89 243.44 309.794Z" fill="#333540"/>
<path d="M289 251.893L225.09 257.535C224.94 258.95 217.605 299.834 217.605 299.834C217.276 301.735 216.564 303.549 215.514 305.161C214.465 306.774 213.099 308.152 211.501 309.21L175.514 372.206C174.361 374.218 172.466 375.685 170.244 376.287C168.022 376.888 165.655 376.574 163.661 375.414L156.139 371.018L190.988 310.041L192.369 307.626L196.457 300.494C196.487 300.441 196.507 300.382 196.515 300.321C196.524 300.26 196.52 300.198 196.504 300.138C196.489 300.079 196.461 300.023 196.425 299.974C196.388 299.925 196.341 299.884 196.289 299.853C196.236 299.822 196.178 299.801 196.117 299.793C196.057 299.785 195.996 299.789 195.937 299.805C195.878 299.82 195.822 299.848 195.774 299.885C195.725 299.922 195.685 299.969 195.654 300.022L191.958 306.475L190.54 302.607C189.772 300.628 189.447 298.502 189.588 296.381C189.588 296.306 189.607 296.211 189.607 296.136L192.22 261.27C192.227 261.146 192.187 261.023 192.107 260.928C192.027 260.833 191.913 260.773 191.79 260.761C191.728 260.752 191.665 260.757 191.605 260.774C191.545 260.792 191.49 260.822 191.442 260.863C191.394 260.904 191.356 260.955 191.329 261.012C191.302 261.069 191.288 261.132 191.286 261.195L190.67 269.477L178.78 281.495C177.628 282.666 176.231 283.562 174.693 284.118L137.829 297.683C137.352 296.345 137.106 294.935 137.101 293.513C137.1 290.998 137.864 288.543 139.29 286.481C140.715 284.419 142.733 282.85 145.071 281.986L170.4 272.666L187.983 254.893C188.718 254.113 189.592 253.48 190.558 253.026C190.558 253.026 220.778 245.649 221.599 245.573C235.449 244.309 276.606 240.724 276.979 240.724C280.002 240.731 282.912 241.881 285.136 243.949C287.361 246.016 288.74 248.85 289 251.893Z" fill="#333540"/>
<path d="M147.12 369.46C154.365 369.46 160.239 363.523 160.239 356.199C160.239 348.875 154.365 342.938 147.12 342.938C139.874 342.938 134 348.875 134 356.199C134 363.523 139.874 369.46 147.12 369.46Z" fill="#333540"/>
<path d="M152.777 537.243V544.354H124.698V538.698L139.03 524.961C140.551 523.489 141.577 522.232 142.108 521.191C142.639 520.113 142.904 519.054 142.904 518.012C142.904 516.504 142.391 515.355 141.365 514.565C140.374 513.739 138.906 513.326 136.96 513.326C135.332 513.326 133.863 513.649 132.554 514.296C131.245 514.906 130.148 515.84 129.263 517.097L123 513.003C124.451 510.812 126.45 509.106 128.998 507.885C131.546 506.628 134.465 506 137.756 506C140.516 506 142.922 506.467 144.974 507.401C147.062 508.298 148.672 509.591 149.804 511.279C150.972 512.931 151.556 514.888 151.556 517.151C151.556 519.198 151.131 521.119 150.282 522.914C149.433 524.71 147.787 526.757 145.346 529.055L136.8 537.243H152.777Z" fill="#333540"/>
<path d="M179.764 545C176.685 545 173.943 544.228 171.537 542.684C169.131 541.14 167.238 538.913 165.858 536.004C164.513 533.059 163.841 529.558 163.841 525.5C163.841 521.442 164.513 517.959 165.858 515.05C167.238 512.105 169.131 509.86 171.537 508.316C173.943 506.772 176.685 506 179.764 506C182.843 506 185.585 506.772 187.991 508.316C190.397 509.86 192.273 512.105 193.617 515.05C194.997 517.959 195.687 521.442 195.687 525.5C195.687 529.558 194.997 533.059 193.617 536.004C192.273 538.913 190.397 541.14 187.991 542.684C185.585 544.228 182.843 545 179.764 545ZM179.764 537.62C182.029 537.62 183.798 536.633 185.072 534.657C186.381 532.682 187.036 529.63 187.036 525.5C187.036 521.37 186.381 518.318 185.072 516.343C183.798 514.367 182.029 513.38 179.764 513.38C177.535 513.38 175.765 514.367 174.456 516.343C173.182 518.318 172.545 521.37 172.545 525.5C172.545 529.63 173.182 532.682 174.456 534.657C175.765 536.633 177.535 537.62 179.764 537.62Z" fill="#333540"/>
<path d="M223.305 545C220.226 545 217.484 544.228 215.077 542.684C212.671 541.14 210.778 538.913 209.398 536.004C208.053 533.059 207.381 529.558 207.381 525.5C207.381 521.442 208.053 517.959 209.398 515.05C210.778 512.105 212.671 509.86 215.077 508.316C217.484 506.772 220.226 506 223.305 506C226.383 506 229.125 506.772 231.532 508.316C233.938 509.86 235.813 512.105 237.158 515.05C238.538 517.959 239.228 521.442 239.228 525.5C239.228 529.558 238.538 533.059 237.158 536.004C235.813 538.913 233.938 541.14 231.532 542.684C229.125 544.228 226.383 545 223.305 545ZM223.305 537.62C225.569 537.62 227.339 536.633 228.612 534.657C229.922 532.682 230.576 529.63 230.576 525.5C230.576 521.37 229.922 518.318 228.612 516.343C227.339 514.367 225.569 513.38 223.305 513.38C221.075 513.38 219.306 514.367 217.997 516.343C216.723 518.318 216.086 521.37 216.086 525.5C216.086 529.63 216.723 532.682 217.997 534.657C219.306 536.633 221.075 537.62 223.305 537.62Z" fill="#333540"/>
<path d="M263.66 520.814C268.897 520.814 272.754 521.873 275.231 523.992C277.744 526.11 279 528.948 279 532.503C279 534.801 278.434 536.902 277.302 538.805C276.169 540.673 274.435 542.181 272.1 543.33C269.8 544.443 266.951 545 263.554 545C260.936 545 258.353 544.659 255.805 543.977C253.293 543.258 251.152 542.253 249.382 540.96L252.779 534.28C254.195 535.358 255.823 536.202 257.663 536.812C259.503 537.387 261.396 537.674 263.342 537.674C265.5 537.674 267.199 537.243 268.437 536.381C269.676 535.519 270.295 534.316 270.295 532.772C270.295 531.156 269.641 529.935 268.331 529.109C267.057 528.283 264.828 527.87 261.643 527.87H252.143L254.053 506.646H276.718V513.649H261.219L260.635 520.814H263.66Z" fill="#333540"/>
</svg>
