<svg width="368" height="477" viewBox="0 0 368 477" fill="none" xmlns="http://www.w3.org/2000/svg">
<path d="M361.876 100.886L360.624 94.0599L353.798 92.6195C353.36 92.4943 308.271 83.1008 268.192 60.6818C211.017 28.6814 191.792 8.51674 191.604 8.32887L183.964 0L176.324 8.26625C176.136 8.45411 156.848 28.744 99.7988 60.6818C59.7201 83.0382 14.6315 92.4943 14.1305 92.6195L7.30456 94.0599L6.0521 100.886C-1.90103 143.657 -2.02628 186.679 5.73899 228.95L9.18325 245.796L10.1226 249.678C21.019 294.015 40.3069 335.472 67.4853 372.858C96.9182 413.375 134.304 447.379 178.641 473.869L183.964 477L189.287 473.869C233.624 447.379 271.01 413.375 300.506 372.858C327.622 335.472 346.847 294.078 357.806 249.678L362.19 228.95C369.955 186.679 369.83 143.657 361.876 100.886Z" fill="black"/>
<path d="M351.669 102.764C351.669 102.764 305.015 93.1205 263.12 69.6995C202.876 36.0083 183.964 15.28 183.964 15.28C183.964 15.28 165.052 36.0083 104.809 69.6995C62.9138 93.1205 16.2596 102.764 16.2596 102.764C7.61759 148.98 8.61956 195.259 18.3888 239.283H349.54C359.246 195.259 360.248 148.98 351.669 102.764Z" fill="#FFB300"/>
<path d="M183.965 464.914C271.637 412.561 329.375 330.65 349.54 239.345H18.3892C38.5538 330.65 96.2923 412.561 183.965 464.914Z" fill="#8E001C"/>
<path d="M154.093 401.539C152.214 401.539 150.523 401.477 149.271 401.477C148.519 401.477 147.956 401.414 147.517 401.414C147.142 401.414 146.515 401.414 145.639 401.477C144.261 401.539 142.32 401.539 140.754 401.539C140.378 401.539 140.003 401.477 140.003 401.101C140.003 400.85 140.19 400.662 140.378 400.662C140.879 400.662 142.821 400.537 143.572 400.349C144.825 400.099 144.95 399.535 145.075 398.345C145.2 396.78 145.326 393.523 145.263 389.39L145.2 383.065V377.868C145.2 376.803 145.138 376.49 144.637 376.49C144.073 376.49 142.257 377.367 141.067 377.93C140.691 378.118 140.316 378.306 140.128 378.369C140.065 378.369 140.003 378.431 139.94 378.431C139.815 378.494 139.689 378.557 139.564 378.557C139.439 378.557 139.188 378.243 139.188 377.993C139.188 377.742 139.439 377.555 139.564 377.429C139.627 377.429 139.877 377.179 140.378 376.866C142.32 375.551 147.58 372.106 148.707 371.292C149.02 371.042 149.396 370.791 149.709 370.791C150.085 370.791 150.273 371.23 150.273 371.668C150.273 371.731 150.022 375.551 150.022 382.001V389.39C150.022 393.085 150.022 396.592 150.148 398.345C150.273 399.598 150.461 400.099 151.65 400.412C152.277 400.537 153.968 400.662 154.281 400.662C154.469 400.662 154.719 400.85 154.719 401.101C154.719 401.477 154.531 401.539 154.093 401.539Z" fill="#100F0D"/>
<path d="M165.177 402.353C164.989 402.353 164.739 402.103 164.739 401.852C164.802 401.539 165.177 401.226 165.24 401.163C166.43 400.412 169.373 398.345 171.878 394.525C174.258 390.893 175.448 386.948 175.448 382.752C175.448 377.742 173.569 372.67 169.498 372.67C166.743 372.67 164.802 375.175 164.802 378.557C164.802 384.756 168.935 386.009 169.999 386.009C171.127 386.009 172.003 385.821 172.692 385.508C172.88 385.445 173.068 385.32 173.193 385.257C173.318 385.195 173.444 385.132 173.506 385.132C173.694 385.132 173.882 385.257 173.882 385.508C173.945 385.633 173.819 385.883 173.694 386.009C172.629 387.199 170.751 387.825 168.496 387.825C162.61 387.825 160.418 383.253 160.418 380.122C160.418 377.492 161.42 375.112 163.173 373.421C164.989 371.731 167.557 370.791 170.5 370.791C173.569 370.791 176.136 371.856 177.952 373.922C179.643 375.864 180.52 378.557 180.52 381.562V381.625C180.52 386.51 178.704 391.081 175.072 395.152C171.44 399.285 167.181 401.539 165.991 402.103C165.741 402.291 165.49 402.353 165.177 402.353Z" fill="#100F0D"/>
<path d="M199.933 401.414H184.527C184.214 401.414 183.964 401.101 183.964 400.788C183.964 400.537 184.214 400.161 184.715 399.723C185.091 399.41 185.467 399.034 185.843 398.721C191.291 393.962 198.117 388.013 198.117 380.247C198.117 377.492 197.428 375.425 196.175 374.173C194.86 372.858 193.357 372.733 192.731 372.733C190.915 372.733 189.725 373.171 188.661 374.173C187.721 375.112 186.97 376.991 186.97 377.93C186.97 378.306 186.907 378.494 186.782 378.619C186.719 378.744 186.594 378.744 186.406 378.744C186.218 378.744 186.03 378.431 185.968 377.868C185.968 377.742 185.968 377.429 185.905 376.991C185.843 375.864 185.78 373.922 185.78 373.108C185.78 372.733 185.843 372.545 186.218 372.232C188.16 371.23 190.477 370.729 193.357 370.729C199.557 370.729 203.314 373.922 203.314 379.245C203.314 386.948 194.86 393.711 189.85 397.782L189.788 397.844C189.725 397.907 189.663 397.907 189.663 397.97C189.663 397.97 189.725 398.032 189.788 398.032H192.481C194.109 398.032 197.929 398.032 199.244 397.844C201.686 397.531 203.127 396.404 203.69 394.338C203.815 393.899 203.878 393.649 204.191 393.649C204.567 393.649 204.567 394.15 204.567 394.463C204.567 395.089 203.815 398.784 203.44 400.161C203.127 401.289 202.438 401.414 199.933 401.414Z" fill="#100F0D"/>
<path d="M213.46 402.103C213.021 402.103 212.833 401.978 212.833 401.602C212.833 401.101 212.896 400.537 213.084 399.974C214.274 395.841 219.346 384.193 224.606 375.238H214.524C213.585 375.238 211.831 375.363 210.829 375.989C210.141 376.427 209.64 377.743 209.514 378.369C209.514 378.745 209.326 378.932 209.076 378.932C208.763 378.932 208.7 378.682 208.7 378.244C208.7 377.304 208.951 375.112 209.076 373.484C209.139 372.607 209.264 371.919 209.264 371.731C209.264 371.355 209.452 371.167 209.765 371.167C209.827 371.167 209.89 371.167 209.953 371.23C210.391 371.292 211.643 371.543 215.088 371.543H227.675C228.364 371.543 228.677 371.668 228.677 371.919C228.677 372.169 228.552 372.482 228.426 372.67C225.17 377.304 218.97 393.085 218.407 398.283C218.344 398.721 218.344 398.972 218.407 399.285C218.407 399.41 218.407 399.598 218.407 399.786C218.407 400.537 215.15 402.103 213.46 402.103Z" fill="#100F0D"/>
<path d="M154.093 400.099C152.214 400.099 150.523 400.036 149.271 400.036C148.519 400.036 147.956 399.974 147.517 399.974C147.142 399.974 146.515 399.974 145.639 400.036C144.261 400.099 142.32 400.099 140.754 400.099C140.378 400.099 140.003 400.099 140.003 399.723C140.003 399.41 140.19 399.222 140.378 399.222C140.879 399.222 142.821 399.097 143.572 398.909C144.825 398.659 144.95 398.095 145.075 396.842C145.2 395.214 145.326 391.833 145.263 387.95L145.2 381.625V376.427C145.2 375.363 145.138 375.05 144.637 375.05C144.073 375.05 142.257 375.926 141.067 376.49C140.691 376.678 140.316 376.866 140.128 376.928C140.065 376.928 140.003 376.991 139.94 376.991C139.815 377.054 139.689 377.116 139.564 377.116C139.439 377.116 139.188 376.928 139.188 376.615C139.188 376.365 139.314 376.177 139.564 375.989C139.627 375.989 139.877 375.739 140.378 375.425C142.32 374.11 147.58 370.666 148.707 369.852C149.02 369.601 149.396 369.351 149.709 369.351C150.085 369.351 150.273 369.789 150.273 370.228C150.273 370.29 150.022 374.11 150.022 380.56V387.95C150.022 391.645 150.022 395.152 150.148 396.842C150.273 398.158 150.461 398.721 151.65 398.972C152.277 399.097 153.968 399.222 154.281 399.222C154.469 399.222 154.719 399.347 154.719 399.723C154.719 400.099 154.469 400.099 154.093 400.099Z" fill="#BCB9B7"/>
<path d="M165.177 400.976C164.989 400.976 164.739 400.725 164.739 400.475C164.739 400.224 164.989 399.974 165.177 399.848L165.24 399.786C166.43 399.097 169.373 397.03 171.878 393.148C174.258 389.516 175.448 385.57 175.448 381.375C175.448 376.365 173.569 371.292 169.498 371.292C166.743 371.292 164.802 373.797 164.802 377.179C164.802 383.378 168.935 384.631 169.999 384.631C171.314 384.631 172.128 384.38 172.692 384.193C172.817 384.13 172.88 384.067 173.005 384.005C173.256 383.817 173.381 383.692 173.506 383.692C173.757 383.692 173.882 383.942 173.882 384.13C173.945 384.255 173.819 384.506 173.694 384.631C172.629 385.821 170.751 386.447 168.496 386.447C162.61 386.447 160.418 381.876 160.418 378.744C160.418 376.114 161.42 373.735 163.173 372.044C164.989 370.353 167.557 369.414 170.5 369.414C173.569 369.414 176.136 370.478 177.952 372.545C179.643 374.486 180.52 377.179 180.52 380.247V380.31C180.52 385.195 178.704 389.766 175.072 393.837C171.44 397.97 167.181 400.224 165.991 400.788C165.741 400.85 165.553 400.976 165.177 400.976Z" fill="#BCB9B7"/>
<path d="M199.933 400.036H184.528C184.215 400.036 183.964 399.723 183.964 399.41C183.964 399.16 184.215 398.784 184.716 398.345C185.154 397.97 185.593 397.531 186.094 397.156C191.479 392.459 198.117 386.572 198.117 378.87C198.117 376.114 197.428 374.048 196.176 372.795C194.861 371.48 193.358 371.355 192.732 371.355C190.916 371.355 189.726 371.793 188.661 372.795C187.722 373.735 186.97 375.613 186.97 376.553C186.97 376.866 186.908 377.116 186.845 377.241C186.782 377.367 186.595 377.367 186.469 377.367C186.281 377.367 186.094 377.116 186.031 376.553C186.031 376.49 186.031 376.302 186.031 376.114C185.968 375.112 185.843 372.733 185.843 371.731C185.843 371.417 185.906 371.23 186.281 370.917C188.223 369.915 190.54 369.414 193.42 369.414C199.62 369.414 203.378 372.607 203.378 377.93C203.378 385.633 194.923 392.396 189.851 396.467L189.788 396.529C189.726 396.592 189.663 396.655 189.663 396.655C189.663 396.717 189.726 396.717 189.788 396.717H192.481C193.295 396.717 197.867 396.655 199.244 396.467C201.687 396.154 203.127 395.026 203.691 392.96C203.753 392.521 203.941 392.271 204.192 392.271C204.567 392.271 204.567 392.772 204.567 393.085C204.567 393.711 203.816 397.406 203.44 398.784C203.127 399.911 202.438 400.036 199.933 400.036Z" fill="#BCB9B7"/>
<path d="M213.459 400.662C212.958 400.662 212.833 400.6 212.833 400.161C212.833 399.66 212.896 399.097 213.084 398.533C213.71 396.467 215.338 392.396 217.279 388.138C219.659 382.94 222.227 377.868 224.669 373.797H214.587C213.647 373.797 211.894 373.922 210.892 374.549C210.203 374.987 209.702 376.302 209.577 376.928C209.577 377.304 209.389 377.492 209.138 377.492C208.825 377.492 208.763 377.241 208.763 376.866C208.763 375.864 209.013 373.484 209.201 371.856C209.264 371.104 209.326 370.478 209.326 370.353C209.326 369.915 209.514 369.727 209.827 369.727C209.89 369.727 209.953 369.727 210.015 369.789C210.454 369.852 211.706 370.102 215.15 370.102H227.737C228.426 370.102 228.739 370.228 228.739 370.478C228.739 370.729 228.614 371.042 228.489 371.23C225.233 375.989 219.033 391.77 218.469 396.842C218.407 397.281 218.407 397.531 218.469 397.844C218.469 397.97 218.469 398.158 218.469 398.345C218.407 399.097 215.15 400.662 213.459 400.662Z" fill="#BCB9B7"/>
<path d="M75.501 307.229C75.501 308.043 75.6262 308.356 76.1272 308.544C77.6928 309.107 79.9472 309.358 81.7633 309.358C84.7066 309.358 85.6459 309.045 87.0236 308.043C89.2154 306.477 91.4073 303.033 91.4073 296.959C91.4073 286.5 84.4561 283.432 80.0725 283.432C78.1938 283.432 76.8787 283.495 76.1272 283.745C75.6262 283.87 75.501 284.183 75.501 284.747V307.229ZM66.7964 301.405C66.7964 290.195 66.7964 288.129 66.6711 285.749C66.5459 283.244 65.9197 282.054 63.4774 281.491C62.9138 281.365 61.6613 281.303 60.5967 281.303C59.7826 281.303 59.3442 281.178 59.3442 280.614C59.3442 280.113 59.8452 279.988 60.9724 279.988C64.8551 279.988 69.5518 280.238 71.1174 280.238C73.6223 280.238 79.2584 279.988 81.5128 279.988C86.2095 279.988 91.1568 280.426 95.102 283.119C97.2312 284.559 100.174 288.317 100.174 293.264C100.174 298.775 97.8574 303.784 90.4053 309.859C96.9807 318.125 102.116 324.701 106.437 329.272C110.57 333.593 113.638 334.094 114.766 334.345C115.517 334.47 116.206 334.532 116.77 334.532C117.396 334.532 117.709 334.783 117.709 335.096C117.709 335.722 117.208 335.847 116.269 335.847H109.255C105.122 335.847 103.306 335.534 101.364 334.47C98.1705 332.779 95.3525 329.272 91.2194 323.573C88.2761 319.503 84.8318 314.493 83.8925 313.428C83.5167 312.927 83.0784 312.865 82.5774 312.865L76.1272 312.74C75.7515 312.74 75.5636 312.865 75.5636 313.303V314.368C75.5636 321.256 75.5636 327.08 75.8767 330.149C76.1272 332.341 76.5656 333.969 78.82 334.219C79.8846 334.407 81.5128 334.532 82.4522 334.532C83.0158 334.532 83.3289 334.783 83.3289 335.096C83.3289 335.66 82.7653 335.847 81.8259 335.847C77.5049 335.847 72.0567 335.66 70.9921 335.66C69.5518 335.66 64.8551 335.847 61.9118 335.847C60.9724 335.847 60.4715 335.66 60.4715 335.096C60.4715 334.783 60.7219 334.532 61.6613 334.532C62.7259 334.532 63.6026 334.407 64.2915 334.219C65.7944 333.969 66.1702 332.341 66.4206 330.149C66.7964 327.08 66.7964 321.256 66.7964 314.43V301.405Z" fill="#110F0D"/>
<path d="M164.613 309.358C164.613 292.763 155.095 282.493 143.009 282.493C134.429 282.493 124.785 287.252 124.785 305.663C124.785 321.069 133.302 333.217 147.455 333.217C152.652 333.217 164.676 330.775 164.613 309.358ZM114.578 307.98C114.578 295.33 122.907 278.986 145.138 278.986C163.549 278.986 175.009 289.694 175.009 306.603C175.009 323.573 163.173 336.912 144.386 336.912C123.094 336.912 114.578 321.069 114.578 307.98Z" fill="#110F0D"/>
<path d="M186.532 280.927C186.72 279.612 187.158 278.986 187.784 278.986C188.348 278.986 188.786 279.299 189.788 281.24L209.953 322.384L230.055 280.739C230.618 279.549 230.994 278.986 231.683 278.986C232.372 278.986 232.81 279.675 232.998 281.24L239.761 326.517C240.45 331.151 241.139 333.343 243.394 333.969C245.523 334.658 247.026 334.72 247.965 334.72C248.654 334.72 249.155 334.783 249.155 335.221C249.155 335.848 248.278 336.035 247.214 336.035C245.398 336.035 235.19 335.91 232.247 335.66C230.493 335.534 230.055 335.284 230.055 334.908C230.055 334.533 230.368 334.282 230.869 334.032C231.307 333.906 231.558 332.967 231.245 330.9L226.798 298.712H226.485L210.391 331.714C208.7 335.159 208.325 335.848 207.636 335.848C207.01 335.848 206.258 334.345 205.068 332.153C203.315 328.771 197.491 317.436 196.552 315.37C195.925 313.804 191.479 305.1 188.912 299.526H188.598L184.778 328.333C184.653 329.711 184.591 330.65 184.591 331.84C184.591 333.217 185.53 333.906 186.782 334.219C188.16 334.533 189.162 334.595 189.913 334.595C190.477 334.595 191.041 334.72 191.041 335.096C191.041 335.785 190.352 335.91 189.225 335.91C186.156 335.91 182.774 335.66 181.459 335.66C180.082 335.66 176.512 335.91 174.132 335.91C173.444 335.91 172.817 335.785 172.817 335.096C172.817 334.72 173.256 334.595 174.007 334.595C174.571 334.595 175.134 334.595 176.199 334.345C178.266 333.906 178.892 331.026 179.268 328.521L186.532 280.927Z" fill="#110F0D"/>
<path d="M282.659 313.303C283.034 313.303 283.097 313.115 283.034 312.865L276.396 294.704C276.334 294.391 276.271 294.015 276.02 294.015C275.77 294.015 275.645 294.391 275.582 294.704L268.819 312.802C268.756 313.115 268.756 313.303 269.069 313.303C269.007 313.303 282.659 313.303 282.659 313.303ZM267.566 316.998C267.191 316.998 267.003 317.186 266.878 317.624L262.87 327.769C262.118 329.585 261.742 331.339 261.742 332.278C261.742 333.593 262.431 334.533 264.686 334.533H265.813C266.69 334.533 266.94 334.72 266.94 335.159C266.94 335.722 266.502 335.848 265.688 335.848C263.308 335.848 260.177 335.66 257.86 335.66C257.046 335.66 252.975 335.848 249.093 335.848C248.153 335.848 247.715 335.722 247.715 335.159C247.715 334.72 248.028 334.533 248.592 334.533C249.28 334.533 250.282 334.47 250.909 334.407C254.29 333.969 255.668 331.464 257.171 327.769L275.707 281.867C276.584 279.737 277.085 278.986 277.774 278.986C278.463 278.986 278.964 279.612 279.653 281.303C281.469 285.373 293.242 314.932 298.001 326.204C300.819 332.842 302.948 333.844 304.514 334.219C305.641 334.47 306.706 334.533 307.645 334.533C308.209 334.533 308.584 334.595 308.584 335.159C308.584 335.722 307.896 335.848 305.203 335.848C302.51 335.848 297.124 335.848 291.238 335.722C289.86 335.66 288.983 335.66 288.983 335.159C288.983 334.72 289.234 334.532 289.985 334.47C290.549 334.345 291.05 333.656 290.674 332.779L284.788 317.562C284.6 317.186 284.412 316.998 284.036 316.998H267.566Z" fill="#110F0D"/>
<path d="M75.501 305.601C75.501 306.477 75.6262 306.728 76.1272 306.978C77.6928 307.479 79.9472 307.73 81.7633 307.73C84.7066 307.73 85.6459 307.417 87.0236 306.477C89.2154 304.786 91.4073 301.405 91.4073 295.33C91.4073 284.872 84.4561 281.804 80.0725 281.804C78.1938 281.804 76.8787 281.866 76.1272 282.117C75.6262 282.242 75.501 282.555 75.501 283.119V305.601ZM66.7964 299.777C66.7964 288.567 66.7964 286.501 66.6711 284.121C66.5459 281.616 65.9197 280.426 63.4774 279.862C62.9138 279.737 61.6613 279.675 60.5967 279.675C59.7826 279.675 59.3442 279.549 59.3442 278.986C59.3442 278.485 59.8452 278.359 60.9724 278.359C64.8551 278.359 69.5518 278.547 71.1174 278.547C73.6223 278.547 79.2584 278.359 81.5128 278.359C86.2095 278.359 91.1568 278.798 95.102 281.491C97.2312 282.931 100.174 286.688 100.174 291.636C100.174 297.146 97.8574 302.156 90.4053 308.231C96.9807 316.497 102.116 323.072 106.437 327.644C110.57 331.965 113.638 332.466 114.766 332.716C115.517 332.842 116.206 332.904 116.77 332.904C117.396 332.904 117.709 333.155 117.709 333.468C117.709 334.094 117.208 334.219 116.269 334.219H109.255C105.122 334.219 103.306 333.844 101.364 332.842C98.1705 331.151 95.3525 327.644 91.2194 321.945C88.2761 317.937 84.8318 312.865 83.8925 311.8C83.5167 311.299 83.0784 311.237 82.5774 311.237L76.1272 311.111C75.7515 311.111 75.5636 311.237 75.5636 311.675V312.74C75.5636 319.628 75.5636 325.452 75.8767 328.521C76.1272 330.712 76.5656 332.341 78.82 332.591C79.8846 332.779 81.5128 332.904 82.4522 332.904C83.0158 332.904 83.3289 333.155 83.3289 333.468C83.3289 334.031 82.7653 334.219 81.8259 334.219C77.5049 334.219 72.0567 334.031 70.9921 334.031C69.5518 334.031 64.8551 334.219 61.9118 334.219C60.9724 334.219 60.4715 334.031 60.4715 333.468C60.4715 333.155 60.7219 332.904 61.6613 332.904C62.7259 332.904 63.6026 332.779 64.2915 332.591C65.7944 332.341 66.1702 330.712 66.4206 328.521C66.7964 325.452 66.7964 319.628 66.7964 312.802V299.777Z" fill="#FBBA00"/>
<path d="M164.613 307.73C164.613 291.135 155.095 280.865 143.009 280.865C134.429 280.865 124.785 285.624 124.785 304.035C124.785 319.44 133.302 331.589 147.455 331.589C152.652 331.589 164.676 329.084 164.613 307.73ZM114.578 306.352C114.578 293.702 122.907 277.358 145.138 277.358C163.549 277.358 175.009 288.066 175.009 304.974C175.009 321.945 163.173 335.284 144.386 335.284C123.094 335.284 114.578 319.44 114.578 306.352Z" fill="#FBBA00"/>
<path d="M186.532 279.174C186.72 277.921 187.158 277.295 187.784 277.295C188.348 277.295 188.786 277.671 189.788 279.549L209.953 320.693L230.055 279.048C230.618 277.859 230.994 277.295 231.683 277.295C232.372 277.295 232.81 278.046 232.998 279.549L239.761 324.826C240.45 329.46 241.139 331.652 243.394 332.341C245.523 332.967 247.026 333.029 247.965 333.029C248.654 333.029 249.155 333.092 249.155 333.53C249.155 334.157 248.278 334.345 247.214 334.345C245.335 334.345 235.19 334.219 232.247 334.031C230.493 333.844 230.055 333.656 230.055 333.217C230.055 332.842 230.368 332.591 230.869 332.403C231.307 332.215 231.558 331.276 231.245 329.209L226.798 297.021H226.485L210.391 330.024C208.7 333.468 208.325 334.157 207.636 334.157C207.01 334.157 206.258 332.654 205.068 330.462C203.315 327.08 197.491 315.745 196.552 313.679C195.925 312.113 191.479 303.409 188.912 297.835H188.598L184.778 326.705C184.653 328.02 184.591 328.959 184.591 330.149C184.591 331.527 185.53 332.215 186.782 332.528C188.16 332.842 189.162 332.904 189.913 332.904C190.477 332.904 191.041 333.029 191.041 333.405C191.041 334.094 190.352 334.219 189.225 334.219C186.156 334.219 182.774 334.031 181.459 334.031C180.082 334.031 176.512 334.219 174.132 334.219C173.444 334.219 172.817 334.094 172.817 333.405C172.817 333.029 173.256 332.904 174.007 332.904C174.571 332.904 175.134 332.904 176.199 332.654C178.266 332.215 178.892 329.335 179.268 326.83L186.532 279.174Z" fill="#FBBA00"/>
<path d="M282.659 311.675C283.034 311.675 283.097 311.487 283.034 311.237L276.396 293.076C276.334 292.763 276.271 292.387 276.02 292.387C275.77 292.387 275.645 292.763 275.582 293.076L268.819 311.174C268.756 311.487 268.756 311.675 269.069 311.675C269.007 311.675 282.659 311.675 282.659 311.675ZM267.566 315.37C267.191 315.37 267.003 315.558 266.878 315.933L262.87 326.141C262.118 327.957 261.742 329.71 261.742 330.65C261.742 331.965 262.431 332.904 264.686 332.904H265.813C266.69 332.904 266.94 333.092 266.94 333.53C266.94 334.094 266.502 334.219 265.688 334.219C263.308 334.219 260.177 334.031 257.86 334.031C257.046 334.031 252.975 334.219 249.093 334.219C248.153 334.219 247.715 334.094 247.715 333.53C247.715 333.092 248.028 332.904 248.592 332.904C249.28 332.904 250.282 332.842 250.909 332.779C254.29 332.341 255.668 329.836 257.171 326.141L275.707 280.238C276.584 278.109 277.085 277.295 277.774 277.295C278.463 277.295 278.964 277.984 279.653 279.675C281.469 283.745 293.242 313.303 298.001 324.575C300.819 331.213 302.948 332.215 304.514 332.591C305.641 332.842 306.706 332.904 307.645 332.904C308.209 332.904 308.584 332.967 308.584 333.53C308.584 334.094 307.896 334.219 305.203 334.219C302.51 334.219 297.124 334.219 291.238 334.094C289.86 334.031 288.983 334.031 288.983 333.53C288.983 333.092 289.234 332.904 289.985 332.842C290.549 332.716 291.05 332.027 290.674 331.151L284.788 315.933C284.6 315.558 284.412 315.37 284.036 315.37H267.566Z" fill="#FBBA00"/>
<path d="M352.17 241.788H15.7588C14.3811 241.788 13.2539 240.66 13.2539 239.283C13.2539 237.905 14.3811 236.778 15.7588 236.778H352.17C353.548 236.778 354.675 237.905 354.675 239.283C354.675 240.66 353.548 241.788 352.17 241.788Z" fill="#17191D"/>
<path d="M53.5203 149.419C52.0799 150.358 51.5163 147.79 51.5163 147.79C51.078 146.788 51.078 145.724 51.6416 145.348C52.7688 145.974 54.0213 145.974 54.4596 146.601C54.898 147.352 54.2718 148.98 53.5203 149.419ZM320.608 210.413C319.668 209.224 318.666 208.034 317.602 206.719C312.842 200.957 302.259 186.742 302.259 186.742C302.259 140.589 293.993 132.009 285.476 124.745C278.024 118.358 266.063 115.101 253.225 113.097C249.718 112.534 245.898 112.346 241.452 112.346C237.194 112.346 232.873 112.534 228.74 112.784C225.295 112.972 165.115 115.477 145.764 112.221C137.373 110.843 125.662 112.471 118.774 113.285C115.58 113.661 98.1705 116.416 96.1666 113.16C95.7282 112.534 95.7909 111.156 95.9787 109.653C96.1666 107.211 97.1686 104.267 95.2899 101.637C92.6597 98.0051 89.8417 94.1224 88.2761 94.1224C87.7751 94.1224 83.5167 97.6293 82.4521 98.6939C80.6987 100.447 80.1351 103.328 80.1977 106.71C80.2603 108.776 80.1351 108.4 79.9472 108.526C79.6967 108.776 68.6124 108.776 65.857 109.027C65.857 108.463 65.7318 105.582 63.8531 102.827C62.6632 101.074 61.5987 95.2497 61.5987 95.2497C61.5987 95.2497 57.5908 102.201 56.2757 104.017C54.7727 106.083 53.2072 108.213 52.2678 110.655C51.9547 111.594 51.8921 112.721 51.7668 113.786C51.7668 114.6 51.6416 116.228 51.3285 116.479C49.1993 118.044 48.0094 120.174 47.8216 122.866C47.759 123.618 48.0094 124.682 48.1973 125.872C48.3852 126.686 48.6357 127.876 48.6357 128.44C48.3852 128.628 48.1973 128.753 48.0094 128.878C46.0681 130.068 43.5006 131.822 43.6885 134.765C43.9389 139.274 44.9409 141.027 46.3812 143.469C46.757 144.158 47.1953 144.847 47.6337 145.724C48.2599 146.914 48.5731 148.667 48.8235 150.358C49.1993 152.675 47.0075 155.243 48.5104 156.683C50.4517 158.624 55.5242 158.749 57.7786 158.749C58.3423 158.749 60.6593 158.687 61.2229 158.687C62.037 158.687 62.7259 158.749 63.2895 158.812C67.5478 159.689 71.7436 160.002 75.8767 160.378C81.5128 160.753 86.8358 161.192 92.2213 162.82C102.116 165.701 111.885 169.771 122.03 175.219C122.594 175.47 123.095 175.783 123.595 176.033C127.353 177.975 128.167 177.724 129.92 182.859C131.737 188.057 128.48 228.574 127.729 232.77C126.601 239.533 124.41 243.604 120.903 244.919C116.206 246.61 114.265 250.304 112.449 253.874C111.822 255.001 111.948 256.379 111.196 257.569C111.196 257.569 109.693 259.259 110.194 259.635C110.695 260.074 115.454 258.946 115.454 258.946C117.083 259.072 115.329 259.886 116.957 259.886C120.965 259.886 125.85 259.886 130.797 257.068C132.864 257.068 131.486 259.698 133.365 259.322C139.314 258.258 139.815 253.686 140.566 249.365C141.756 242.038 141.568 240.786 142.382 240.097C143.197 239.408 145.827 240.535 146.516 239.784C147.079 239.157 146.516 233.835 146.766 229.013C147.204 222.124 149.083 214.108 151.15 207.47L151.275 207.094C151.713 205.654 152.402 203.901 153.091 202.022C155.032 196.95 157.349 190.812 157.099 185.865C159.228 186.241 159.541 186.366 160.731 188.057C160.919 188.308 161.232 188.809 161.608 189.372C163.925 193.192 165.115 194.257 166.68 194.257C166.805 194.257 166.993 194.257 167.119 194.194C169.623 193.568 171.001 191.439 172.379 188.621C173.819 185.865 175.26 183.047 177.639 182.484C177.702 182.484 177.827 182.484 177.952 182.484C179.831 182.484 183.213 184.174 185.154 187.18C189.35 193.693 192.982 189.122 193.295 188.558C193.796 187.807 197.178 182.233 198.054 180.918C199.056 179.352 199.683 179.227 199.933 179.227H199.996C202.062 179.54 211.08 190.311 214.274 189.623C217.342 189.247 220.787 177.411 222.728 177.411C222.79 177.411 222.916 177.411 222.978 177.474C223.479 177.849 224.544 179.478 225.233 180.542C227.612 184.174 228.176 186.554 230.055 186.554C230.681 186.554 231.683 186.053 232.309 184.488C232.497 184.049 233.249 182.296 233.311 182.045C233.436 182.233 235.065 187.619 238.947 182.797C238.885 182.734 238.885 182.671 238.822 182.609C238.822 182.671 238.822 182.671 238.822 182.671C238.822 182.671 238.822 182.671 238.822 182.609V182.546V182.609C239.386 181.356 246.587 188.495 250.031 191.251C253.163 194.131 255.793 196.699 255.981 196.887C263.433 203.462 272.638 211.729 274.392 220.621C275.456 225.756 275.206 231.705 273.766 237.341C273.453 238.531 273.139 239.22 272.826 239.408C272.576 239.596 271.762 239.658 270.697 239.658C270.259 239.658 269.758 239.721 269.194 239.784C266.627 239.909 264.936 242.602 263.37 244.981C262.681 246.109 261.742 247.048 261.304 247.799C260.803 248.676 261.554 249.991 262.055 250.304C262.493 250.555 267.065 251.619 268.443 251.619C268.818 251.619 269.257 251.619 269.507 251.494C270.509 251.87 271.699 252.058 273.014 252.058C277.022 252.058 282.032 250.43 283.41 247.674C285.852 242.977 287.48 237.842 289.046 232.895C289.234 232.332 289.421 231.768 289.547 231.204C289.922 230.14 290.423 228.887 290.924 227.635C292.615 223.126 295.558 218.241 294.243 213.795C293.555 211.415 291.175 209.161 289.672 207.094C288.357 205.341 283.284 198.703 281.719 196.449C286.478 201.02 299.566 207.783 302.885 215.674C304.075 218.492 302.885 230.14 302.697 233.208C302.572 234.711 302.51 236.214 302.447 237.717C302.322 242.477 300.944 243.353 296.122 243.854C291.989 244.23 290.048 250.367 289.046 253.686C288.983 253.874 288.92 254.062 288.92 254.187L288.419 255.753L290.048 256.003C290.674 256.128 291.3 256.254 292.052 256.379C295.057 256.942 300.067 258.821 303.637 258.821C307.77 258.821 310.713 257.819 312.592 255.753C315.034 253.185 315.911 248.426 316.725 244.293C317.038 242.79 318.792 237.216 319.418 235.212C323.363 222.562 327.246 217.678 320.608 210.413Z" fill="black"/>
<path d="M301.132 247.111C300.694 247.987 299.003 248.175 298.439 248.363C297.312 248.864 296.185 249.553 296.248 250.43C296.248 250.743 296.06 254.563 296.248 254.938C296.498 255.377 298.064 255.878 298.439 255.377C298.627 255.001 298.377 252.308 298.69 250.43C298.752 250.179 298.94 249.052 299.504 248.801C299.692 248.739 301.571 247.925 301.132 247.111Z" fill="#BCB9B7"/>
<path d="M166.555 179.666C167.995 179.54 169.999 179.165 170.688 179.666C171.314 180.167 172.316 181.92 172.254 182.985C172.191 184.049 168.684 189.748 168.434 189.998C168.246 190.311 167.87 191.063 167.244 190.249C166.618 189.372 165.49 180.668 165.49 180.668C165.49 180.668 165.303 179.791 166.555 179.666Z" fill="#BCB9B7"/>
<path d="M319.105 213.294C317.164 210.539 312.342 205.592 310.4 203.212C307.833 200.081 296.06 186.241 296.06 186.241C296.06 186.241 292.678 165.388 291.238 160.628C290.361 157.622 287.793 135.579 270.76 123.681C271.699 122.115 282.721 130.757 286.666 137.52C293.931 149.732 296.999 181.67 296.999 181.67C296.999 181.67 301.633 132.886 275.832 122.616C257.296 114.851 248.09 116.103 248.09 116.103C248.09 116.103 235.253 123.806 242.955 138.397C244.458 141.278 261.304 167.078 262.431 169.145C272.012 187.118 302.447 208.034 308.021 213.733C308.334 214.046 313.532 217.49 313.907 221.31C313.97 221.999 306.768 217.177 306.894 218.054C307.895 227.071 306.831 244.355 306.643 246.359C306.518 248.614 306.393 248.989 304.952 249.49C303.574 249.929 302.134 248.614 301.32 250.993C300.381 253.623 300.694 255.565 303.136 255.565C305.578 255.565 309.211 256.817 311.528 247.987C313.907 238.97 318.98 223.063 320.483 217.177C320.921 215.799 319.794 214.296 319.105 213.294Z" fill="#BCBABA"/>
<path d="M61.3483 103.14C61.3483 103.14 63.3523 109.089 63.3523 110.718C63.2897 112.471 62.7887 112.596 62.7887 112.596L56.7769 115.164C56.7769 115.164 58.0919 113.661 58.7808 111.782C59.4697 109.841 61.411 104.894 61.3483 103.14Z" fill="#BCB9B7"/>
<path d="M133.114 253.248C132.989 253.31 132.864 253.31 132.801 253.248L132.425 252.747C132.363 252.684 132.425 252.559 132.551 252.434L132.864 252.246C132.989 252.121 133.177 252.121 133.177 252.183L133.553 252.747C133.615 252.809 133.553 252.935 133.427 253.06L133.114 253.248Z" fill="#BCB9B7"/>
<path d="M272.012 243.666C272.012 243.666 271.261 243.416 270.822 243.98C270.259 244.731 270.008 247.612 270.008 247.612C270.008 247.612 270.697 248.488 272.012 247.987C273.265 247.486 275.895 245.545 275.081 244.919C274.204 244.293 272.012 243.666 272.012 243.666Z" fill="#BCB9B7"/>
<path d="M269.695 242.226C269.695 242.226 268.568 242.226 268.004 242.852C267.441 243.479 266.439 245.169 266.501 245.858C266.564 246.547 267.566 247.674 268.067 246.985C268.631 246.297 271.01 242.163 269.695 242.226Z" fill="#BCB9B7"/>
<path d="M49.0742 133.826C47.6965 135.955 51.5791 137.771 52.5811 136.644C53.3325 133.763 50.3892 132.698 49.0742 133.826Z" fill="#BCB9B7"/>
<path d="M80.4485 137.583C78.5072 135.203 77.0042 131.321 78.3193 130.569C79.6344 129.88 80.8868 130.882 81.6383 131.321C82.8281 131.947 83.3918 131.571 83.3291 130.005C83.2665 128.753 83.1413 127.626 83.016 126.499C82.6403 123.18 80.8868 119.485 79.5091 118.044C77.1921 115.602 70.7419 112.784 66.6714 115.54C65.4816 116.354 64.6048 117.606 63.8534 119.172C63.5402 119.735 64.3543 120.487 64.1038 121.113C62.6009 124.745 60.3465 128.941 57.7163 131.634C57.591 131.822 66.734 132.573 79.6344 142.029C80.7616 142.843 78.5698 147.477 77.8183 147.227C77.4426 147.164 79.1334 143.344 77.8809 142.655C71.9317 139.336 68.4248 138.898 63.9786 137.27C62.914 136.957 59.8455 138.898 59.0314 138.146C57.9042 136.706 54.5225 135.078 54.2094 134.89C54.3346 134.953 54.773 135.266 54.8982 136.706C55.3366 140.338 48.5107 136.706 54.272 142.53C55.9002 144.158 57.4658 145.411 58.6556 144.91C60.5343 144.847 59.6576 145.098 59.8455 145.536L60.8474 147.916C61.0353 148.354 61.2232 148.291 61.3484 147.853L61.7868 145.348C61.8494 144.91 62.3504 144.534 62.7888 144.534C62.7888 144.534 71.556 144.722 73.3094 144.91C75.0629 145.098 75.1881 145.724 75.1881 145.724C75.2507 146.225 75.9396 147.227 74.4993 148.417C73.4347 149.293 70.8045 147.477 68.738 149.168C66.6714 150.796 62.5383 151.548 62.5383 151.548C62.0373 151.673 61.5363 151.423 61.3484 150.922L60.2838 148.605C60.096 148.166 59.9081 148.166 59.9081 148.667L59.6576 151.736C59.595 152.174 59.4071 152.612 59.3445 152.612C59.2192 152.612 58.9061 152.299 58.7183 151.861L58.6556 151.673C58.4678 151.235 58.0294 151.235 57.7163 151.548L57.1527 152.174C56.8396 152.55 56.4012 152.487 56.1507 152.049L55.9628 151.736C55.7124 151.36 55.3366 151.36 55.0235 151.736L54.7104 152.299C54.4599 152.675 54.1468 152.612 54.0215 152.174L53.8963 151.861C53.771 151.423 53.4579 151.423 53.27 151.798C53.1448 152.111 52.8943 152.174 52.7691 151.986C52.456 152.299 52.2681 152.487 52.1428 152.612C51.8923 152.863 51.3287 153.364 51.2661 153.865C51.2661 154.366 51.8923 154.679 54.8982 155.305C57.9042 155.869 71.9317 150.17 76.3153 151.109C81.4504 152.174 83.3918 147.978 83.7675 142.53C83.7675 142.405 83.7049 142.092 83.6422 141.653C82.7655 140.213 81.4504 138.773 80.4485 137.52V137.583Z" fill="#BCB9B7"/>
<path d="M66.7339 121.113C66.7339 121.113 68.4873 118.044 70.6165 117.418C72.2447 116.98 73.8729 117.919 76.3778 119.547C78.8201 121.176 80.1352 123.806 82.5775 123.117C83.3916 122.866 80.6988 125.872 78.3192 125.058C77.7555 124.808 74.186 118.921 70.7418 118.984C70.6791 118.984 68.4873 119.422 66.7339 121.113Z" fill="#17191D"/>
<path d="M73.6855 124.557C73.1845 124.557 72.7462 123.994 72.7462 123.367C72.7462 122.741 73.1845 122.178 73.6855 122.178C74.2491 122.178 74.938 122.741 74.938 123.43C74.8753 124.056 74.2491 124.557 73.6855 124.557ZM73.0593 118.232C70.1786 117.418 68.4878 119.422 68.4878 119.422C69.2393 117.481 72.6835 118.671 74.1865 119.297C75.0632 119.673 76.1904 121.614 77.0672 123.18C76.1278 122.24 74.8127 121.238 73.6855 121.113C71.4937 120.925 71.3058 123.868 71.3058 123.868L70.1786 125.246C70.1786 125.246 70.3665 125.559 72.0573 125.559C73.7481 125.559 79.6347 125.497 80.3862 124.808C81.2003 124.119 76.2531 119.172 73.0593 118.232Z" fill="#17191D"/>
<path d="M118.335 250.492C118.335 250.492 116.144 255.001 116.081 255.502C116.018 255.94 116.144 256.254 116.394 256.254C116.645 256.254 117.459 256.441 118.022 256.066C118.586 255.69 120.715 251.244 120.966 250.617C121.028 250.43 119.275 249.428 118.335 250.492Z" fill="#BCB9B7"/>
<path d="M292.302 217.49C293.43 213.482 289.672 213.044 288.42 218.179C287.981 219.995 282.784 238.719 282.283 243.604C282.22 243.854 282.408 244.105 282.658 243.792C282.721 245.482 291.801 219.243 292.302 217.49Z" fill="#BCB9B7"/>
<path d="M263.057 154.742C263.057 154.867 262.807 154.867 262.556 154.867L260.678 154.554C260.427 154.491 260.239 154.366 260.239 154.241L260.302 153.99C260.302 153.865 260.552 153.865 260.803 153.865L262.682 154.178C262.932 154.241 263.183 154.366 263.057 154.491V154.742Z" fill="#BCB9B7"/>
<path d="M262.368 155.493C262.368 155.556 262.243 155.618 262.055 155.618L260.803 155.43C260.615 155.368 260.49 155.243 260.552 155.18V154.929C260.552 154.804 260.74 154.742 260.928 154.742L262.118 154.992C262.306 154.992 262.431 155.117 262.431 155.243L262.368 155.493Z" fill="#BCB9B7"/>
<path d="M125.537 115.665C116.519 117.418 103.807 118.17 96.918 117.23C91.4698 116.479 91.2193 113.097 92.2213 110.154C87.1488 115.101 84.456 113.16 84.3308 112.596C84.1429 111.782 86.2095 112.596 87.5246 111.219C88.9023 109.966 89.6538 105.207 88.6518 102.952C87.5246 100.698 88.7144 101.074 88.7144 101.074C88.7144 101.074 91.5324 101.387 92.7849 104.706C93.5364 101.387 88.9023 97.191 87.3993 98.1303C85.8964 99.0697 82.8278 101.575 83.2662 105.269C83.7672 109.778 83.4541 112.033 82.0137 111.97C72.1193 111.532 61.035 110.217 54.8979 116.604C54.8979 116.604 62.3501 111.657 68.1114 112.221C73.8101 112.722 85.5206 113.911 86.2095 127.626C86.2095 127.626 86.0842 130.757 86.3347 134.326C86.46 136.268 84.7065 135.015 84.7065 135.892C84.7692 139.712 87.4619 139.086 87.2741 142.405C86.3347 155.931 80.0724 155.618 80.0724 155.618C80.0724 155.618 87.5872 156.683 91.3446 144.033C91.3446 151.297 90.5931 153.113 87.6498 155.931C93.4111 156.307 97.92 150.859 98.0453 150.045C98.922 151.423 100.55 155.869 104.809 157.685C102.742 154.178 103.243 149.92 103.681 146.162C104.996 154.616 107.126 157.748 111.447 159.564C109.693 157.81 106.124 153.99 107.188 147.164C108.065 152.988 114.891 158.186 114.891 158.186C114.891 158.186 112.699 154.679 112.135 148.479C115.079 154.804 118.21 155.305 118.21 155.305C118.21 155.305 113.325 150.233 112.511 143.532C112.386 143.469 115.955 148.104 118.773 148.104C116.582 145.411 113.137 141.653 112.699 136.957C114.953 139.775 116.519 141.653 119.024 141.904C116.895 139.462 115.141 135.516 114.515 130.82C116.957 133.888 116.519 134.89 121.091 136.143C119.337 134.389 118.085 129.63 118.961 127.313C119.775 128.941 122.844 130.569 126.476 131.07C125.286 130.319 123.408 125.747 123.658 123.994C125.286 124.808 128.856 125.998 131.674 125.622C130.359 124.808 129.419 120.863 129.795 119.923C130.547 120.362 135.932 120.299 137.059 119.923C135.306 118.859 133.803 117.23 134.241 117.356C135.494 117.794 137.623 116.729 140.378 116.291C143.322 115.79 143.823 115.79 145.701 115.79C143.885 114.913 132.613 113.911 125.537 115.665Z" fill="#BCBABA"/>
<path d="M216.716 172.151C216.716 172.151 210.955 171.775 210.516 173.528C210.078 175.282 213.147 184.738 213.585 185.865C214.336 187.619 216.278 183.486 216.278 183.486C216.904 182.421 219.284 176.848 219.284 176.096C219.221 175.157 219.284 172.151 216.716 172.151Z" fill="#BCB9B7"/>
<path d="M244.584 183.423C244.208 183.611 243.832 183.673 243.582 183.736C243.832 183.861 244.145 183.924 244.396 183.924C244.333 183.799 244.458 183.611 244.584 183.423Z" fill="#BCB9B7"/>
<path d="M194.047 173.027C194.047 173.027 188.223 172.652 187.784 174.405C187.346 176.221 189.851 184.487 190.226 185.615C190.79 187.306 192.043 184.738 192.043 184.738C192.669 183.611 197.24 177.724 197.303 176.973C197.303 176.096 196.677 173.027 194.047 173.027Z" fill="#BCB9B7"/>
<path d="M234.626 115.853C232.81 115.915 217.718 117.669 207.698 117.669C199.62 117.731 191.166 117.293 186.594 117.481C186.219 117.418 185.655 117.481 185.154 117.543C178.391 117.23 156.848 116.917 156.848 116.917C155.22 116.604 133.302 122.24 130.108 146.601C128.167 161.63 129.106 166.389 132.488 173.529C134.555 177.787 138.625 185.615 138.437 191.752C138.375 194.257 133.866 181.043 133.928 182.546C134.617 197.952 131.924 232.645 130.359 240.034C128.543 248.801 126.789 244.355 124.723 248.05C124.41 248.614 119.901 256.817 120.026 256.88C120.089 256.942 122.28 256.629 124.535 256.441C127.228 256.316 129.419 249.115 131.236 249.115C131.486 249.115 129.232 254.939 129.545 254.813C131.423 254.375 134.492 253.561 134.304 255.064C134.993 255.314 135.557 254.939 135.932 254.438C136.496 253.749 139.001 242.539 140.566 236.715C140.879 235.776 143.384 236.277 144.073 236.59C145.451 233.835 143.259 224.629 147.204 211.916C151.087 199.392 155.158 188.495 153.341 185.302C153.154 184.926 146.516 193.693 146.328 193.38C145.889 192.378 167.995 155.305 163.737 136.143C163.612 135.454 163.299 134.64 163.299 134.076C163.299 133.951 165.866 135.015 169.06 135.892C173.193 137.145 176.825 137.833 178.078 142.593C179.581 151.798 183.839 164.887 192.544 165.701C188.598 162.068 183.526 143.657 184.152 136.143C186.594 148.479 194.109 166.327 200.309 165.513C199.056 163.509 193.859 152.237 193.859 145.223C196.113 151.047 201.436 163.947 205.444 164.01C215.965 164.198 218.657 159.438 226.423 157.685C243.894 153.74 248.466 160.44 251.096 161.818C248.967 159.751 241.703 147.039 236.881 137.145C233.061 129.317 239.511 121.489 250.595 116.604C252.724 115.602 238.008 115.727 234.626 115.853Z" fill="#BCBABA"/>
<path d="M242.141 183.611C242.141 183.611 241.578 183.11 241.077 183.047C240.889 182.985 240.826 182.985 240.701 182.985C240.513 182.985 240.388 183.047 240.388 183.047L240.137 183.11L240.2 182.922C240.262 182.734 240.45 182.421 240.889 182.421C241.077 182.421 241.264 182.484 241.39 182.546C242.079 182.797 242.329 183.486 242.329 183.486L242.454 183.861L242.141 183.611Z" fill="#17191D"/>
<path d="M237.131 182.672C237.194 182.484 237.381 182.171 237.82 182.171C238.008 182.171 238.196 182.233 238.383 182.296C238.446 182.358 238.697 182.421 238.697 182.421L238.822 182.546L238.321 182.859H238.258C238.258 182.859 238.07 182.797 238.008 182.797C237.882 182.734 237.757 182.734 237.632 182.734C237.381 182.734 237.319 182.797 237.319 182.797L237.068 182.859L237.131 182.672Z" fill="#17191D"/>
<path d="M238.321 182.421C238.384 182.421 238.634 182.546 238.634 182.546L238.321 182.734C238.321 182.734 238.133 182.672 238.008 182.672C237.507 182.546 237.256 182.672 237.256 182.672C237.256 182.672 237.444 182.108 238.321 182.421Z" fill="#17191D"/>
<path d="M247.84 249.49C241.64 249.49 240.888 239.471 240.763 237.717C239.26 237.592 237.632 236.527 236.567 235.651C236.505 235.651 236.38 235.588 236.254 235.525C236.254 236.277 236.317 237.028 236.317 237.717C236.38 238.907 236.63 241.913 236.693 242.727L236.755 242.79C236.881 243.917 237.194 246.547 234.563 247.987C233.812 248.426 232.935 248.676 231.996 248.676C231.244 248.676 230.556 248.488 230.055 248.363C229.929 248.363 229.867 248.363 229.742 248.363L229.303 248.3C228.614 248.175 227.738 248.113 227.049 248.05H226.861C225.546 248.05 221.914 248.3 221.287 248.363C221.162 248.363 221.037 248.363 220.912 248.363C218.845 248.363 217.154 246.735 217.154 246.672C216.09 245.67 216.027 244.042 216.904 242.727L217.154 242.414L217.53 242.101C217.718 241.976 218.344 241.537 219.283 241.412C220.035 240.911 221.225 240.222 223.041 239.22C221.475 236.089 214.461 225.318 220.536 221.936C222.853 220.746 226.297 219.494 229.616 218.68C229.616 218.492 229.679 218.304 229.742 218.116C229.804 217.866 229.867 216.989 229.742 216.363C228.802 216.864 227.863 217.114 227.049 217.114C226.798 217.114 226.548 217.114 226.297 217.052C224.168 216.613 221.475 213.545 221.162 213.106C220.724 212.48 218.97 209.286 217.28 206.218C212.833 205.967 212.458 205.842 212.144 205.779C211.643 205.592 211.142 205.466 208.262 203.024C207.322 202.21 206.821 201.083 206.947 200.018C207.072 199.141 207.636 198.327 208.45 197.951C208.512 197.889 208.575 197.889 208.7 197.826C209.076 197.325 209.64 196.824 210.704 196.574L211.017 196.511H211.393C212.082 196.511 212.708 196.762 213.272 197.075C213.272 196.762 213.397 196.386 213.522 196.073C214.086 195.008 215.213 194.382 216.465 194.382C217.217 194.382 217.968 194.57 218.845 195.008L218.97 195.071L219.096 195.133C219.409 195.321 219.409 195.321 219.409 195.321C219.972 195.447 221.225 195.822 221.663 196.01C222.415 196.323 222.978 196.699 224.356 199.141L226.548 201.396C227.55 199.016 228.802 197.951 229.241 197.576C229.867 197.012 230.681 196.762 231.495 196.511C231.62 196.449 231.871 196.386 232.059 196.386C232.372 196.073 232.747 195.822 233.186 195.572C233.186 195.447 233.248 195.321 233.248 195.196C232.935 194.758 232.56 194.131 232.246 193.63C231.307 192.128 231.432 190.75 231.495 189.873V189.623C231.62 187.306 234.626 185.302 234.626 185.239C234.939 185.051 235.315 184.863 235.628 184.738C236.254 184.049 237.256 182.859 238.008 182.233C238.571 181.669 239.385 181.294 240.137 181.043C240.763 179.728 242.141 179.039 244.207 179.039C244.834 179.039 246.963 179.227 247.652 179.29C249.217 179.54 250.219 180.542 250.72 181.669C252.035 182.108 252.912 183.298 253.037 184.926L253.538 185.427C253.851 185.74 254.603 186.617 254.853 187.932C255.667 189.497 255.48 191.313 255.417 192.128C255.354 194.632 254.728 196.135 254.039 197.012C253.914 197.263 253.851 197.513 253.789 197.701C256.168 199.204 256.92 202.586 257.108 203.901C257.358 204.652 258.298 207.909 258.799 210.038C259.425 213.106 258.36 215.924 258.298 216.3L258.172 216.613L257.985 216.864C257.797 217.177 256.795 218.492 256.356 219.055C255.542 219.995 254.665 220.433 253.914 220.558C254.165 221.623 254.415 222.75 254.603 223.752C256.544 226.132 257.546 229.514 257.546 230.641C257.546 231.455 257.296 232.269 257.108 232.895C257.296 233.459 257.358 234.21 257.296 235.838C258.11 236.778 258.861 238.03 259.613 239.471C259.675 239.658 259.738 239.784 259.738 239.846C263.433 247.862 254.227 248.426 253.664 248.238C252.411 249.365 248.528 249.49 247.84 249.49Z" fill="#17191D"/>
<path d="M247.276 181.857C246.713 181.732 244.709 181.607 244.145 181.607C241.452 181.607 242.892 182.985 242.892 182.985C242.892 182.985 240.701 183.298 239.761 184.112C238.885 184.926 237.256 186.867 237.256 186.867C237.256 186.867 236.505 187.118 236.067 187.431C235.628 187.681 234.376 188.683 234.188 189.685C234 190.437 233.937 191.314 234.501 192.253C235.065 193.192 236.004 194.445 236.004 194.445C236.004 194.445 236.254 194.883 236.004 195.384C235.753 195.948 235.378 197.263 235.378 197.263C235.378 197.263 234.063 197.952 233.687 198.39C233.311 198.828 231.432 199.079 230.994 199.455C230.556 199.83 229.366 200.895 228.552 203.713C227.612 204.527 227.111 205.592 227.111 205.592L222.227 200.644C222.227 200.644 221.601 198.703 220.661 198.39C220.348 198.265 218.219 197.513 217.718 197.325C215.902 196.636 215.589 197.137 215.902 197.701C216.278 198.139 217.405 198.703 217.718 198.828C217.969 199.016 218.094 200.957 213.522 200.206C213.272 200.143 212.082 199.392 211.268 199.079C209.327 198.453 209.702 200.331 210.078 200.707C210.516 201.02 212.458 203.087 212.959 203.212C213.397 203.337 218.97 203.588 218.97 203.588C218.97 203.588 222.79 210.789 223.291 211.478C223.855 212.23 225.984 214.234 226.861 214.421C227.738 214.609 230.305 213.67 231.558 211.353L232.059 220.809C232.059 220.809 223.291 222.75 221.663 224.065C218.407 226.696 224.231 236.59 226.172 239.283C226.798 240.097 226.36 240.347 226.36 240.347C226.36 240.347 220.223 243.666 220.16 243.98C219.597 243.792 219.096 244.167 219.096 244.167C219.096 244.167 218.783 244.543 218.97 244.794C219.221 244.981 220.223 245.733 221.037 245.67C221.789 245.608 226.11 245.357 227.174 245.357C228.176 245.42 229.429 245.608 230.117 245.67C230.744 245.733 232.121 246.297 233.249 245.67C234.376 245.044 234.188 243.98 234.063 242.915C233.937 241.913 233.687 237.842 233.687 237.842C233.687 237.842 233.562 233.083 233.436 232.519C234.626 232.645 236.568 233.083 236.943 232.895C237.57 232.519 238.196 233.584 238.196 233.584C238.196 233.584 240.2 235.15 241.139 235.024C242.016 234.837 242.204 234.774 242.642 233.396C242.955 232.958 243.268 233.083 243.268 234.336C243.268 235.588 242.642 247.048 248.09 246.86C251.472 246.735 253.852 245.107 253.852 245.107C253.852 245.107 254.854 246.422 256.106 245.921C259.613 244.668 257.672 241.537 257.421 241.099C257.108 240.598 255.542 237.154 254.54 237.091C254.603 235.588 254.353 233.396 254.102 232.833C254.29 232.519 254.854 231.204 254.854 230.641C254.854 230.015 253.852 226.758 252.035 224.817C251.597 221.811 250.094 217.177 250.094 217.177C250.094 217.177 252.098 217.928 252.724 217.991C253.351 218.054 253.852 217.803 254.227 217.302C254.666 216.801 255.793 215.298 255.793 215.298C255.793 215.298 256.732 212.918 256.169 210.539C255.668 208.222 254.54 204.339 254.54 204.339C254.54 204.339 253.977 200.644 252.161 199.768C250.282 198.954 249.906 199.016 249.906 199.016C249.906 199.016 249.343 198.202 249.781 198.014C250.219 197.889 250.908 197.325 251.096 197.137C251.347 196.887 251.66 195.572 251.66 195.572C251.66 195.572 252.724 195.008 252.724 191.877C252.787 191.877 253.1 189.748 252.286 188.683C252.286 187.744 251.597 187.18 251.597 187.18L250.407 185.865C250.407 185.865 250.595 184.3 249.844 184.112C249.092 183.924 248.591 183.736 248.591 183.736C248.591 183.736 248.529 182.045 247.276 181.857Z" fill="#BCBABA"/>
<path d="M237.382 187.619C237.945 187.556 238.384 188.558 238.384 188.746C238.446 188.934 238.321 188.934 238.008 188.871C237.695 188.871 237.444 188.245 236.818 188.245C236.192 188.308 236.192 188.746 236.004 188.683C235.816 188.683 236.818 187.619 237.382 187.619Z" fill="#17191D"/>
<path d="M242.016 186.053C242.642 186.241 242.892 186.867 242.892 186.867C242.892 186.867 242.266 186.366 241.703 186.304C241.202 186.178 240.951 186.304 240.951 186.304C240.951 186.304 241.139 185.677 242.016 186.053Z" fill="#17191D"/>
<path d="M248.215 191C248.153 190.813 248.028 190.687 247.902 190.687H247.777L247.715 190.75C247.464 191.063 247.151 191.188 246.838 191.188C246.399 191.188 246.086 190.938 246.086 190.938C246.086 190.938 246.024 191.814 246.963 191.814C247.715 191.814 248.153 191.188 248.153 191.188L248.215 191Z" fill="#17191D"/>
<path d="M243.081 205.091C243.331 204.778 244.145 205.529 244.333 205.341C244.584 205.153 242.768 203.087 243.331 202.648C244.02 202.21 244.772 203.776 245.147 203.525C245.523 203.212 245.398 203.087 245.273 202.836C245.21 202.711 244.458 201.271 244.458 201.271C244.396 201.208 243.582 199.893 244.083 199.642C244.646 199.455 245.273 200.394 245.398 200.519C245.398 200.582 246.462 202.46 246.901 202.273C247.339 202.022 246.149 199.204 246.149 199.204C246.087 198.891 245.523 198.202 245.774 197.952C246.087 197.764 246.337 197.826 247.089 198.828C247.151 198.891 249.093 202.46 249.343 202.335C249.343 202.335 249.406 201.584 249.093 201.083C249.468 201.396 250.22 201.584 250.157 202.085C250.157 202.335 250.095 203.838 249.844 204.214C248.967 205.216 244.959 206.594 243.644 206.406C243.582 206.28 242.768 205.466 243.081 205.091ZM251.097 220.621L250.533 218.054L250.282 217.114L245.586 208.347L245.398 208.034C245.21 207.909 245.085 207.721 244.709 207.345C244.584 207.22 244.646 207.095 244.834 207.095C246.462 207.345 249.343 206.531 249.969 206.28C250.157 206.531 254.729 211.854 255.042 211.666C255.418 211.416 250.47 204.903 250.47 204.84C250.47 204.84 250.909 202.147 250.783 201.834C250.596 201.208 249.28 200.269 248.717 200.269H248.654C248.592 200.081 248.466 199.956 248.404 199.893L248.341 199.768C247.965 199.141 247.715 198.703 247.527 198.39C248.404 198.703 249.343 198.954 249.406 199.016L249.907 199.079L250.47 198.327L246.65 197.012C246.337 196.95 245.961 196.198 245.899 195.572C245.899 195.134 248.592 192.503 248.091 192.378C247.026 192.002 244.584 194.633 244.521 195.447C244.458 195.948 244.772 197.075 245.21 197.513C245.022 197.701 244.959 197.952 244.959 198.265C240.2 198.578 238.447 200.269 238.259 201.145C238.259 201.145 242.079 199.642 243.394 199.455C242.517 200.269 243.957 201.897 243.957 201.897C243.77 201.834 243.331 201.521 242.83 201.834C241.954 202.586 242.83 204.026 243.018 204.339C242.642 204.339 242.392 204.464 242.267 204.59C241.828 205.153 242.705 206.218 243.331 206.969C243.644 207.282 242.267 207.22 238.259 204.214C238.384 207.095 243.206 208.848 244.709 208.848C244.709 208.911 250.846 220.245 251.097 220.621Z" fill="#17191D"/>
<path d="M231.871 220.245L231.182 220.684L230.18 221.247C230.368 221.686 234.313 231.267 238.321 234.273L238.446 233.96C233.123 226.696 231.934 220.245 231.871 220.245Z" fill="#17191D"/>
<path d="M246.713 225.13C244.333 225.506 242.58 233.459 242.58 233.459C243.143 232.707 243.206 233.96 243.206 233.96C243.206 233.96 245.147 227.196 246.775 226.508C248.529 225.819 251.034 226.132 251.034 226.132C251.034 226.132 249.092 224.754 246.713 225.13Z" fill="#17191D"/>
<path d="M228.176 212.605C228.427 212.417 227.487 204.84 227.487 204.84L227.112 205.216L226.548 204.84C226.235 205.529 227.863 212.731 228.176 212.605Z" fill="#17191D"/>
<path d="M229.93 206.531L230.493 212.668L231.558 212.104L231.245 207.595C231.245 207.595 231.808 207.846 231.996 207.658C232.184 207.47 231.12 206.594 231.057 205.404C231.057 204.59 231.996 203.525 231.809 203.462C231.621 203.337 231.308 203.65 231.308 203.65C231.37 202.899 231.433 202.085 231.495 201.584C231.558 200.832 232.56 199.329 232.56 199.329C230.368 200.081 229.93 202.586 229.93 202.586L229.805 204.527C229.805 204.59 229.617 205.153 229.617 205.592C229.617 206.03 229.93 206.531 229.93 206.531Z" fill="#17191D"/>
<path d="M254.603 236.34C254.603 236.34 254.54 243.792 252.975 245.67H253.851C254.164 245.42 254.791 243.04 255.041 242.101C255.292 241.099 255.229 236.966 255.229 236.966L254.603 236.34Z" fill="#17191D"/>
<path d="M227.3 226.069C226.986 227.635 233.499 233.647 233.499 233.647L235.253 232.833C235.315 232.833 229.178 228.324 227.3 226.069Z" fill="#17191D"/>
<path d="M245.084 184.613C245.147 184.738 245.147 185.239 245.084 185.615C245.084 185.677 244.897 186.429 245.899 186.93C246.525 187.243 246.9 187.807 247.214 188.182C247.214 188.245 247.276 188.37 247.339 188.433C247.527 188.621 247.589 188.809 247.464 189.247C247.401 189.497 247.276 189.623 247.214 189.748C247.088 189.811 246.963 189.936 247.088 190.124V190.186C247.151 190.437 247.276 190.938 247.777 191.126C247.902 191.188 248.153 191.564 247.84 192.378L247.777 192.629C247.464 193.505 247.715 195.572 248.216 195.447C248.779 195.321 248.654 193.505 248.779 193.255C249.092 192.879 249.343 191.752 249.218 191.126C249.155 190.938 249.092 190.75 248.967 190.687C248.466 190.374 248.341 190.124 248.341 190.061C248.341 190.061 248.403 189.936 248.466 189.873C248.591 189.748 248.717 189.56 248.779 189.372C248.967 188.996 248.842 188.433 248.654 188.057C248.529 187.681 247.589 186.554 247.026 186.366C246.587 186.178 246.337 185.928 246.337 185.677C246.337 185.552 246.337 185.364 246.337 185.176C246.399 184.801 246.462 184.362 246.274 184.174C244.709 181.983 242.392 182.233 242.392 182.233L241.39 183.36C241.39 183.36 243.143 182.421 245.084 184.613Z" fill="#17191D"/>
<path d="M232.622 198.766C232.936 198.953 234.438 199.204 237.194 200.895C237.57 200.206 234.689 198.64 233.374 198.202C232.56 198.202 232.497 198.327 232.435 198.39C232.497 198.515 232.497 198.64 232.622 198.766Z" fill="#17191D"/>
<path d="M224.356 241.349C221.914 238.03 216.653 237.905 214.9 239.533C214.775 239.471 214.712 239.408 214.649 239.345C213.898 238.782 211.769 237.467 210.767 236.903C209.139 235.212 208.45 234.774 208.137 234.586C206.822 233.835 204.254 232.895 202.125 232.394C201.686 227.823 201.311 226.695 201.06 226.257C201.123 226.132 201.624 222.061 201.499 219.494C202.876 219.744 204.692 220.057 206.133 220.057C206.947 220.057 207.636 219.932 208.137 219.744C209.577 219.369 211.894 218.554 212.833 216.989L213.084 216.676L213.209 216.3C213.272 215.987 213.961 212.981 212.144 210.1C210.892 208.159 207.448 204.59 205.569 202.711C205.632 201.646 205.694 200.582 205.694 200.582C205.757 199.705 205.506 198.828 204.504 197.764C204.191 197.45 201.874 194.82 201.248 194.445C200.622 194.069 199.62 193.756 198.743 193.756C198.493 193.756 198.18 193.818 197.929 193.881C195.675 194.382 195.862 197.826 195.988 198.139C195.675 197.951 195.361 197.826 195.048 197.701C194.297 196.824 193.17 196.323 192.042 196.135C191.416 195.697 190.602 195.259 189.475 195.259C189.412 195.259 189.35 195.259 189.224 195.259C187.784 195.321 187.721 195.509 187.033 196.073C185.968 196.323 184.966 196.95 184.215 197.889C183.588 198.202 182.837 198.828 182.211 199.893C181.584 200.456 180.833 201.333 180.269 202.899L180.081 203.462C179.58 204.777 178.954 206.28 179.393 207.909C179.393 207.909 179.393 207.971 179.393 208.034C178.14 208.347 176.387 209.098 175.385 211.04C174.946 211.916 174.508 213.044 174.132 214.046C173.569 214.108 167.244 214.86 167.369 217.866C167.432 218.805 167.87 219.744 168.747 220.308C168.12 221.31 168.12 222.374 168.621 223.251C169.122 224.065 169.686 224.629 170.438 224.942C170.688 225.694 171.001 226.445 171.565 227.134C172.191 227.948 172.88 228.512 173.443 228.95C172.254 229.326 171.001 229.889 169.811 230.766C168.058 231.956 165.428 234.523 167.682 238.594C168.058 239.22 169.185 240.473 174.696 245.921C174.508 246.109 170.124 254.124 177.263 254.5C178.892 257.193 184.465 253.31 184.653 253.185C185.091 253.248 192.543 253.31 190.539 247.549C191.103 247.486 193.671 246.735 193.796 246.735C194.61 247.111 196.489 247.862 197.553 247.925C198.054 247.987 198.868 248.05 199.432 248.05C200.183 248.05 202.062 247.987 202.939 247.799C203.189 247.799 203.44 247.674 203.753 247.674C204.504 248.927 205.757 250.492 207.322 251.369C209.201 252.434 213.46 254.375 214.9 255.001C215.213 255.252 218.219 257.757 220.223 257.757C226.548 257.757 224.606 251.995 224.669 251.682C225.17 250.179 226.109 243.729 224.356 241.349Z" fill="#17191D"/>
<path d="M202.125 210.852C201.875 210.539 199.37 209.913 198.368 209.787C198.055 209.474 196.928 209.098 196.928 209.098C196.865 209.098 198.43 207.971 198.43 207.157C197.303 201.646 195.487 201.271 195.487 201.271C195.487 201.271 194.924 200.018 193.295 199.83C193.045 198.64 190.79 198.452 190.79 198.452C190.79 198.452 190.164 197.701 189.287 197.701C188.599 197.764 188.411 198.077 188.035 198.452C188.035 198.452 186.657 198.265 185.781 199.83C185.781 199.83 184.653 200.081 184.027 201.646C184.027 201.646 183.213 201.834 182.462 203.713C181.961 205.028 181.397 206.343 181.647 207.282C181.898 208.222 182.712 209.224 182.712 209.224C182.712 209.224 181.961 209.85 181.146 210.1C180.332 210.351 178.328 210.539 177.514 212.167C176.7 213.795 175.636 216.926 175.636 216.926C175.636 216.926 175.135 216.613 174.571 216.551C174.007 216.488 171.628 216.613 171.064 216.989C170.751 217.177 169.749 217.302 169.749 217.74C169.812 218.868 171.69 218.492 171.69 218.492L171.252 220.997C171.252 220.997 170.438 221.748 170.688 222.061C170.876 222.437 171.252 222.562 171.503 222.5C171.816 222.437 172.317 221.874 172.317 221.874C172.317 221.874 172.317 224.253 173.381 225.631C174.446 227.009 175.698 227.51 175.698 227.51C175.698 227.51 176.512 227.823 177.201 227.51C177.953 227.196 179.268 226.132 179.393 225.756C179.518 225.318 179.831 223.94 179.831 223.94C179.831 223.94 180.395 221.748 180.708 221.748C180.959 221.686 181.209 221.999 181.209 221.999V226.445C181.209 226.445 179.456 229.764 179.456 230.641C178.516 230.703 174.508 230.265 171.064 232.77C168.246 234.711 169.248 236.465 169.749 237.404C170.25 238.343 178.892 246.672 179.143 246.985C179.017 247.236 179.268 247.612 178.892 247.612H177.953C177.953 247.612 176.638 247.111 176.387 247.612C175.886 248.864 177.264 248.739 177.326 248.989C177.326 249.177 176.199 248.801 176.011 249.49C175.761 250.242 176.011 251.056 176.575 251.682C176.951 252.183 177.827 251.933 178.078 252.058C178.328 252.12 178.454 252.559 179.143 252.747C180.646 253.31 183.965 250.618 184.403 250.68C186.031 251.494 187.972 249.991 188.035 249.052C188.16 248.175 188.035 247.674 187.722 246.985C187.409 246.297 186.344 245.169 186.344 245.169C186.344 245.169 187.597 244.794 187.91 244.668C187.91 244.668 188.098 244.543 188.536 244.731C188.974 244.919 190.853 245.295 191.417 245.232C191.98 245.232 194.172 244.23 194.485 244.418C194.798 244.543 196.928 245.482 197.679 245.545C198.493 245.608 201.499 245.608 202.376 245.42C203.19 245.295 204.881 244.794 204.881 244.794C204.881 244.794 206.258 248.05 208.388 249.24C210.517 250.492 216.278 252.997 216.278 252.997C216.278 252.997 218.595 255.314 220.098 255.314C221.601 255.314 221.977 254.062 221.977 253.749C221.977 253.436 221.914 251.807 222.227 250.931C222.54 250.054 222.791 247.486 222.853 246.234C222.979 245.044 223.354 241.662 220.161 241.161C219.597 241.099 218.47 240.911 218.282 240.911C217.844 240.911 218.031 242.038 217.906 241.6C217.718 241.099 217.155 240.974 216.967 241.036C216.341 241.349 216.09 241.85 216.09 242.101C216.153 242.602 216.341 243.979 216.341 243.979C216.403 243.979 213.711 241.85 213.022 241.224C212.27 240.66 209.139 238.844 209.139 238.844C209.139 238.844 207.448 237.028 206.885 236.84C206.634 236.465 202.125 234.461 199.746 234.461C199.683 232.645 199.558 228.324 198.556 226.257C198.556 225.694 199.182 219.682 198.806 218.116C198.681 217.365 199.683 216.864 200.247 216.864C200.81 216.864 205.945 217.991 207.323 217.427C207.323 217.427 210.078 216.738 210.705 215.736C210.705 215.736 211.206 213.482 209.89 211.478C208.575 209.412 204.004 204.715 202.814 203.713C203.002 202.523 203.065 200.394 203.065 200.394C203.065 200.394 203.065 199.955 202.814 199.642C202.438 199.329 200.372 196.95 200.059 196.699C199.871 196.449 198.931 196.135 198.493 196.261C198.117 196.386 198.243 197.2 198.493 197.451C198.744 197.701 199.307 198.202 199.307 198.202L199.683 199.141C199.683 199.141 199.245 199.329 199.182 199.517C199.119 199.705 199.119 200.77 199.245 201.02C199.37 201.271 199.871 201.333 199.871 201.333C199.871 201.333 199.432 202.398 198.994 202.398C198.556 201.834 197.929 200.143 197.366 200.707C197.115 201.02 196.928 201.458 197.115 201.897C197.241 202.335 197.992 204.527 198.368 204.965C198.744 205.341 199.057 205.529 199.057 205.529C199.119 205.529 202 210.038 202.125 210.852Z" fill="#BCBABA"/>
<path d="M174.508 232.582C178.641 232.144 186.156 244.981 186.407 245.232C186.72 245.482 187.158 244.919 187.158 244.919C186.845 244.355 180.27 230.766 174.508 232.582Z" fill="#17191D"/>
<path d="M174.008 219.055C174.759 218.93 175.949 217.49 175.761 217.427C175.573 217.365 174.947 218.304 173.82 218.304C173.507 218.304 173.068 218.241 172.567 218.116H172.505C172.379 218.367 171.377 218.492 171.377 218.492L171.503 219.118L172.442 218.868C172.567 218.93 173.256 219.118 174.008 219.055Z" fill="#17191D"/>
<path d="M180.207 211.29C179.33 211.416 180.332 223.126 180.332 223.126L181.209 221.999C181.084 221.31 181.021 217.866 181.021 217.365C181.334 217.615 185.342 216.739 186.219 215.236C186.219 215.236 183.401 215.737 182.712 215.611C181.459 215.423 181.146 214.86 181.021 214.484C181.084 214.359 180.583 211.29 180.207 211.29Z" fill="#17191D"/>
<path d="M179.706 229.827L178.892 230.39C184.59 233.396 188.035 244.543 188.097 244.606V244.731L189.913 245.357C189.913 245.357 185.592 232.457 179.706 229.827Z" fill="#17191D"/>
<path d="M193.107 244.731C193.358 245.107 194.673 244.418 194.673 244.418V244.293C194.673 244.293 194.485 238.907 198.806 234.837C198.869 234.837 194.109 235.776 193.107 244.731Z" fill="#17191D"/>
<path d="M216.403 243.792L215.338 243.04C215.338 243.04 215.902 245.482 215.839 246.547C215.839 246.672 215.777 246.735 215.714 246.798C215.651 246.86 215.651 246.86 215.589 246.923C215.213 247.361 215.464 248.989 215.464 248.989C215.464 248.989 215.965 248.05 216.466 247.486C216.466 247.486 216.528 247.424 216.591 247.361C216.779 247.173 216.841 246.985 216.716 246.046C216.716 245.733 216.466 243.792 216.403 243.792Z" fill="#17191D"/>
<path d="M199.432 211.165C199.245 211.228 198.869 214.046 198.869 214.421C198.869 214.484 198.744 216.3 196.677 215.987C194.673 215.674 193.796 215.235 193.796 215.235C194.548 216.738 197.93 217.427 198.806 218.617C198.931 218.868 199.119 220.183 199.119 220.308H199.808V217.991L200.497 217.803C200.184 212.856 199.62 211.165 199.432 211.165Z" fill="#17191D"/>
<path d="M185.53 209.099C184.277 209.099 182.461 209.286 182.399 209.286L180.332 209.725L180.958 210.163C181.021 210.163 183.651 209.6 185.467 209.6C185.718 209.6 185.968 209.662 186.156 209.725C187.722 210.038 189.538 210.664 189.6 210.414C189.6 210.163 187.408 209.349 186.344 209.161C186.156 209.099 185.843 209.099 185.53 209.099Z" fill="#17191D"/>
<path d="M198.869 209.85L198.994 209.725L199.057 209.662L199.119 209.537L199.057 209.412L198.243 208.911C198.18 208.911 194.235 208.911 194.235 208.911C193.233 208.973 190.164 210.163 190.352 210.414C190.54 210.601 192.794 209.725 194.297 209.474C195.925 209.286 198.744 209.85 198.869 209.85Z" fill="#17191D"/>
<path d="M195.675 202.273C196.489 201.459 194.923 200.519 194.923 200.394C194.923 200.394 195.988 201.772 195.111 201.396C194.36 200.206 191.479 199.392 191.416 199.267C191.229 199.079 191.792 198.578 193.358 199.768C193.42 199.58 192.481 198.64 191.103 198.766C191.103 198.578 190.978 198.327 190.853 198.265C190.79 198.265 190.79 198.265 190.79 198.265C190.728 198.265 190.665 198.265 190.665 198.265C190.79 198.39 190.978 198.766 190.79 198.766C190.477 198.828 190.352 198.327 190.289 198.265C190.164 198.014 189.475 198.327 189.851 198.64C189.976 198.766 190.164 198.828 190.289 198.891C190.477 199.016 190.414 199.141 190.227 199.016C190.039 198.954 189.788 198.891 189.475 198.891C189.162 198.891 188.912 199.016 188.661 199.141C188.536 199.141 188.411 199.079 188.536 198.954C188.661 198.891 188.849 198.828 188.974 198.766C189.475 198.327 188.598 197.701 188.411 198.64C188.285 198.828 188.223 198.891 188.097 198.954C187.722 198.954 188.16 198.327 188.097 198.327C188.097 198.327 188.097 198.39 188.035 198.39C187.91 198.515 187.784 198.64 187.722 198.828C187.596 198.828 186.031 198.891 185.78 199.768C186.97 198.891 187.596 198.954 187.534 199.329C187.471 199.455 186.093 200.269 185.53 200.832C185.029 201.145 184.403 201.959 184.277 201.959C184.027 202.022 184.027 201.584 184.277 200.958C183.589 201.709 183.714 202.273 183.902 202.586C183.526 203.462 183.589 204.59 184.09 205.466C184.528 206.218 187.095 208.41 187.346 208.284C187.534 208.159 184.653 205.592 184.403 204.464C183.964 201.897 187.471 199.58 188.661 199.455C188.724 199.455 188.849 199.768 189.475 199.705C190.289 199.705 190.415 199.455 190.415 199.455C191.291 199.329 195.612 200.958 195.174 204.151C194.986 205.153 194.61 206.343 194.798 206.468C194.986 206.594 195.174 206.03 195.55 205.153C196.113 204.277 196.113 203.149 195.675 202.273Z" fill="#17191D"/>
<path d="M206.947 216.551C206.383 215.924 201.749 210.351 201.749 210.351C201.749 210.288 201.624 210.1 201.436 210.1C201.373 210.1 200.747 210.163 200.747 210.288C201.749 211.916 203.941 214.484 205.444 215.736C206.195 216.363 206.759 216.676 206.947 216.551Z" fill="#17191D"/>
<path d="M178.516 246.61C178.767 246.923 179.142 247.486 179.142 247.486C179.142 247.486 179.706 246.109 180.708 245.545C181.647 245.044 183.338 244.293 184.09 244.23C181.272 243.541 178.641 245.608 178.516 246.61Z" fill="#17191D"/>
<path d="M177.139 224.003C177.64 224.065 177.765 223.564 177.827 223.001L177.89 222.876C177.89 222.876 178.391 222.437 178.704 221.435C178.955 222.75 179.643 225.443 179.142 226.132L178.391 226.883L179.205 226.445C179.518 226.32 180.019 225.756 179.831 224.817C179.769 224.316 178.955 220.12 178.955 220.12V219.932C178.892 219.369 178.704 218.868 178.391 218.429C177.89 217.74 177.076 217.365 176.512 217.302C176.512 217.302 178.704 218.805 178.454 220.308C178.203 221.811 177.89 221.936 177.89 221.936L177.577 221.623V222.437C177.514 222.876 177.389 223.063 177.076 223.063C176.262 223.063 175.636 224.191 174.759 223.94C173.882 223.69 173.444 223.001 172.943 222.562C172.442 222.187 173.193 221.435 173.193 221.435C173.193 221.435 173.131 221.185 172.943 220.997C172.692 220.872 172.317 221.811 172.317 221.811C172.317 221.811 171.816 223.126 172.504 223.564C173.757 224.379 173.381 224.379 174.759 224.817C176.137 225.193 176.011 224.003 177.139 224.003Z" fill="#17191D"/>
<path d="M236.63 183.423C235.691 183.423 234.564 182.859 234.251 181.231C234.188 180.918 233.374 179.039 232.623 177.411C228.677 168.08 228.99 171.525 229.366 170.022C230.055 167.329 233.687 167.016 236.38 167.016C237.006 167.016 237.507 167.078 237.695 167.078C239.01 167.078 240.137 167.579 241.014 168.456C242.517 169.896 242.893 172.088 242.893 173.09C242.893 173.153 240.889 179.165 239.887 180.981L239.824 181.043C238.321 183.423 237.006 183.423 236.63 183.423Z" fill="#17191D"/>
<path d="M237.57 169.145C237.57 169.145 231.746 168.769 231.307 170.523C230.869 172.276 235.002 179.039 236.255 180.918C237.131 182.233 238.071 180.041 238.071 180.041C238.697 178.914 240.763 173.842 240.763 173.09C240.763 172.151 240.2 169.082 237.57 169.145Z" fill="#BCB9B7"/>
<path d="M72.9336 111.532C72.9336 111.532 89.0903 112.534 91.9084 130.757C92.8477 127.438 89.153 116.354 84.5189 113.724C84.0179 113.41 82.0139 112.409 83.5169 109.152C78.0687 108.338 72.9336 111.532 72.9336 111.532Z" fill="#17191D"/>
<path d="M150.022 118.921C150.022 118.921 159.917 115.164 162.234 131.007C163.299 125.246 161.983 118.358 157.976 116.228C153.968 114.162 150.022 118.921 150.022 118.921Z" fill="#17191D"/>
<path d="M103.556 135.892C103.556 135.892 104.558 139.211 105.56 139.9C106.625 140.526 109.38 136.456 109.38 136.456C109.38 136.456 107.439 141.34 105.811 142.593C104.433 141.591 103.869 140.338 103.556 135.892Z" fill="#17191D"/>
<path d="M107.564 139.649C107.564 139.649 109.13 142.906 110.195 143.595C111.259 144.221 113.701 140.276 113.701 140.276C113.639 140.276 111.51 145.348 110.382 146.287C109.38 145.411 107.439 144.221 107.564 139.649Z" fill="#17191D"/>
<path d="M98.3584 145.223C98.3584 145.223 100.3 148.792 101.427 149.293C103.431 150.045 103.556 144.847 103.556 144.847C103.556 144.847 104.37 150.608 102.241 152.487C100.425 151.485 99.423 150.796 98.3584 145.223Z" fill="#17191D"/>
<path d="M103.306 143.156C103.306 143.156 104.371 146.288 105.31 147.039C106.312 147.79 108.379 142.154 108.379 142.154C108.379 142.154 107.69 147.665 106.124 150.421C105.122 149.293 103.431 147.54 103.306 143.156Z" fill="#17191D"/>
<path d="M107.313 145.724C107.313 145.849 109.192 148.667 110.382 149.168C111.572 149.669 112.323 144.91 112.323 144.91C112.323 144.91 112.636 150.358 111.259 151.924C110.382 151.36 107.689 149.982 107.313 145.724Z" fill="#17191D"/>
<path d="M108.378 132.448C108.378 132.448 110.257 136.643 111.447 137.27C112.699 137.896 114.515 133.45 114.515 133.45C114.515 133.45 113.576 138.334 111.384 139.837C109.881 138.585 109.443 137.708 108.378 132.448Z" fill="#17191D"/>
<path d="M105.247 128.816C105.247 128.816 106.437 131.947 107.439 132.448C108.503 133.011 110.32 128.816 110.32 128.816C110.32 128.816 109.255 134.201 107.564 135.829C106.437 134.953 105.936 133.45 105.247 128.816Z" fill="#17191D"/>
<path d="M111.635 127.751C111.635 127.751 112.637 130.444 113.513 131.007C114.39 131.571 115.831 129.191 115.831 129.191C115.768 129.191 115.267 132.949 113.576 133.45C112.887 132.886 112.136 131.634 111.635 127.751Z" fill="#17191D"/>
<path d="M116.582 124.495C116.582 124.495 117.145 127.062 117.897 127.626C118.648 128.127 120.026 125.81 120.026 125.81C120.026 125.81 119.838 128.628 117.834 129.88C117.083 129.003 116.206 127.939 116.582 124.495Z" fill="#17191D"/>
<path d="M121.153 120.8C121.153 120.8 121.654 123.367 122.406 123.868C123.157 124.432 124.535 122.115 124.535 122.115C124.535 122.115 124.284 125.559 122.406 125.935C122.656 126.248 120.84 123.868 121.153 120.8Z" fill="#17191D"/>
<path d="M99.4233 139.086C99.4233 139.086 101.114 142.092 101.866 142.154C102.68 142.217 104.183 139.086 104.183 139.086C104.183 139.086 103.494 143.344 101.866 144.158C101.177 143.344 99.7991 141.967 99.4233 139.086Z" fill="#17191D"/>
<path d="M109.443 124.933C109.443 124.933 110.132 127.438 110.883 127.939C111.697 128.44 112.887 125.998 112.887 125.998C112.887 125.998 112.511 129.567 111.134 130.569C110.257 129.818 109.255 128.503 109.443 124.933Z" fill="#17191D"/>
<path d="M181.835 164.198C179.08 163.321 175.761 157.622 174.759 155.18C173.694 152.738 171.878 145.599 173.005 142.969C173.569 145.536 175.135 151.11 176.324 153.552C178.14 157.309 180.395 162.194 181.835 164.198Z" fill="#BCB9B7"/>
<path d="M240.764 237.404C240.263 236.402 237.632 235.338 236.505 235.212C235.441 235.024 235.253 235.024 235.128 236.089C235.065 236.966 235.002 237.842 235.19 238.782C235.441 240.347 235.566 239.909 237.006 239.972C238.071 240.097 239.073 240.222 240.137 240.159C241.077 240.097 241.327 240.097 241.327 239.158C241.327 238.469 241.578 237.592 240.764 237.404Z" fill="#17191D"/>
</svg>
