<svg width="50" height="50" viewBox="0 0 50 50" fill="none" xmlns="http://www.w3.org/2000/svg">
<path d="M8.70594 43.9574C13.7691 48.3101 20.2247 50.43 26.8832 49.9274C33.5407 49.4238 39.6051 46.3586 43.9578 41.295C48.3105 36.2313 50.4304 29.7752 49.9273 23.1172C49.4242 16.4593 46.3585 10.3954 41.2953 6.0432C36.2316 1.6895 29.776 -0.430394 23.1175 0.0727242C16.4591 0.575343 10.3952 3.64152 6.04295 8.70468C1.69024 13.7683 -0.429657 20.2239 0.072463 26.8824C0.575583 33.5408 3.64127 39.6047 8.70594 43.9574ZM38.9696 39.6307C37.6376 40.9912 36.3076 41.951 35.4887 42.4831C35.2853 42.54 33.7385 42.9172 30.4715 42.2947C28.1887 41.8595 26.8023 41.277 26.1253 40.9322L24.497 33.4764L31.9434 25.2856L39.3772 26.695C39.7849 27.6503 40.5094 29.4479 40.8926 31.0123C41.3293 32.7934 41.6026 35.307 41.699 36.2962C41.1824 37.0652 40.2706 38.3022 38.9696 39.6307ZM23.5872 32.7215C22.7763 32.6275 21.3264 32.4197 19.2759 31.983C17.277 31.5568 15.8335 31.0722 15.0017 30.753C14.6829 30.0745 13.6287 27.7412 12.9782 25.2471C12.4356 23.1657 12.0994 20.826 11.9475 19.6084C12.4916 18.8425 13.4474 17.5954 14.7614 16.253C16.1743 14.81 17.259 13.8693 17.834 13.3946C17.6232 13.3866 17.2195 13.5475 17.3994 13.553C17.4218 13.5535 20.5715 13.7004 23.1755 14.3204C24.9911 14.7526 27.2724 15.529 28.5235 15.9737L31.0241 24.5407L23.5872 32.7215ZM29.0296 14.9005C27.787 14.4558 25.3948 13.6354 23.4488 13.1728C20.7234 12.5248 18.4126 12.4408 18.3152 12.4373C18.2937 12.4368 18.0519 12.4094 18.0304 12.4114C17.9814 12.4149 18.0883 12.4533 18.1113 12.4668L16.4251 7.34121C16.9542 6.63275 18.1518 5.16536 19.5348 4.35847C21.3199 3.31726 24.3211 2.49539 24.7153 2.39047C25.6002 2.43044 27.2075 2.56983 29.2139 3.03847C30.9791 3.45166 32.2346 3.91431 32.9891 4.23756C33.3143 4.86759 34.1717 6.55781 34.7108 7.8803C35.1165 8.87355 35.3983 10.3584 35.5541 11.3482L29.0296 14.9005ZM18.9402 3.33825C17.3994 4.23707 16.1128 5.79039 15.5128 6.58828C14.6879 6.57729 13.1721 6.70819 11.284 7.55005C10.6215 7.84583 10.0569 8.1436 9.57828 8.42789C12.3882 5.80288 15.7831 3.96028 19.4938 3.03797C19.3019 3.1354 19.1161 3.23582 18.9402 3.33825ZM3.41793 21.8987C3.95653 20.6656 5.01822 19.2172 5.68872 18.3614L10.8278 20.1765C11.0017 21.49 11.328 23.6009 11.8361 25.5464C12.4601 27.9376 13.4159 30.1359 13.8326 31.0397L10.6859 37.0507C10.0449 36.9393 9.00171 36.6954 7.35246 36.1693C5.74068 35.6547 5.02922 35.2875 4.72495 35.0902C3.43892 32.5051 2.65151 29.6698 2.42818 26.7045C2.38022 26.071 2.36023 25.44 2.36473 24.8125C2.67649 23.8307 3.05421 22.731 3.41793 21.8987ZM2.80889 20.4857C3.38746 17.6184 4.5226 14.8895 6.17035 12.4313C5.99399 12.869 5.82162 13.3591 5.67373 13.8947C5.3185 15.1828 5.17361 16.3898 5.11465 17.1862C4.61903 17.7933 3.56732 19.1348 2.80889 20.4857ZM5.69921 36.8453C6.06693 36.9852 6.49211 37.1346 6.99323 37.294C9.0142 37.9385 10.2273 38.1968 10.9507 38.2827C11.4708 39.0142 12.3507 40.1623 13.4329 41.2205C14.6844 42.4456 16.2297 43.3544 17.0236 43.7796C16.9827 43.8595 16.9592 43.9494 16.9592 44.0454L16.9482 46.1673C14.5305 45.2455 12.2652 43.9025 10.2448 42.1653C8.43714 40.613 6.91279 38.8178 5.69921 36.8453ZM18.1268 46.5789L18.1403 44.0624C18.7753 44.0344 19.9464 43.8855 21.7666 43.2989C23.4953 42.7424 24.7328 42.2422 25.4663 41.9215C26.2042 42.3132 27.7216 42.9727 30.2516 43.4553C31.8554 43.7611 33.2769 43.882 34.4735 43.8135C34.5854 43.807 34.6888 43.7996 34.7867 43.7906L34.9886 45.3254C32.4315 46.5819 29.6321 47.3514 26.7053 47.5722C23.7601 47.795 20.8592 47.4493 18.1268 46.5789ZM45.054 35.5163C44.93 35.5233 44.8081 35.5288 44.6932 35.5333C43.9488 35.5588 43.2673 35.5438 42.8077 35.5248C42.6748 34.2983 42.4199 32.2823 42.0392 30.73C41.63 29.0582 40.8761 27.1922 40.4544 26.2084C40.8371 25.5434 41.4427 24.3913 41.9423 22.9963C42.4939 21.4585 42.8446 19.8302 43.009 18.9719L46.7816 18.812C47.1898 20.2599 47.4571 21.7598 47.5731 23.2941C47.8973 27.5923 47.0145 31.7952 45.054 35.5163ZM46.4174 17.6459L42.7822 17.8008C42.288 17.0109 41.2748 15.511 39.9198 14.1281C38.6528 12.8345 37.4512 11.9107 36.7622 11.4211C36.6083 10.3929 36.2946 8.63423 35.8055 7.43364C35.4058 6.45438 34.8537 5.31025 34.446 4.49637C34.4839 4.48887 34.5284 4.48188 34.5689 4.47439C36.42 5.34073 38.1642 6.46538 39.7565 7.83334C42.8576 10.4993 45.1299 13.8748 46.4174 17.6459Z" fill="white"/>
</svg>
